<svg xmlns="http://www.w3.org/2000/svg" viewBox="0 0 114.3 114.3"><defs><style>.cls-1{opacity:0.52;}.cls-2{fill:#46a8b8;}.cls-3{fill:none;stroke:#446eb2;stroke-miterlimit:10;stroke-width:1.38px;}</style></defs><g id="Layer_2" data-name="Layer 2"><g id="Layer_4" data-name="Layer 4"><g class="cls-1"><path class="cls-2" d="M74.33,38.49a17.21,17.21,0,0,1-20.39,16.9C46.16,54,40,45.56,40,37.65V32.46c0-7.91,6.2-16.33,14-17.73A17.2,17.2,0,0,1,74.33,31.62Z"/><path class="cls-2" d="M95.64,98.44A40.4,40.4,0,0,0,58.15,74.33c-17.33,0-33.26,10.08-39.54,24.22,0,0,16,15,38,15S95.64,98.44,95.64,98.44Z"/></g><path class="cls-3" d="M74.33,38.49a17.21,17.21,0,0,1-20.39,16.9C46.16,54,40,45.56,40,37.65V32.46c0-7.91,6.2-16.33,14-17.73A17.2,17.2,0,0,1,74.33,31.62Z"/><circle class="cls-3" cx="57.15" cy="57.15" r="56.46"/><path class="cls-3" d="M18.66,98.44C24.94,84.3,39.82,74.33,57.15,74.33s32.2,10,38.49,24.11"/></g></g></svg>