<?xml version="1.0" encoding="utf-8"?>
<!-- Generator: Adobe Illustrator 26.0.1, SVG Export Plug-In . SVG Version: 6.00 Build 0)  -->
<svg version="1.1" id="Layer_5" xmlns="http://www.w3.org/2000/svg" xmlns:xlink="http://www.w3.org/1999/xlink" x="0px" y="0px"
	 viewBox="0 0 800.8 491" style="enable-background:new 0 0 800.8 491;" xml:space="preserve">
<style type="text/css">
	.st0{opacity:0.31;fill:#5AD4E0;enable-background:new    ;}
	.st1{fill:#1B3C69;}
	.st2{fill:#71E2E2;}
	.st3{fill:#FFFFFF;}
	.st4{fill:#39888E;}
	.st5{fill:#F4F4F4;}
	.st6{fill:#3A949B;}
	.st7{fill:#83ABE5;}
	.st8{fill:#446EB2;}
	.st9{fill:#2E5C93;}
	.st10{fill:#83737D;}
	.st11{fill:#5AD4E0;}
	.st12{fill:#E2E2E2;}
	.st13{fill:#3A619B;}
	.st14{fill:#44A9B8;}
	.st15{fill:#5989CE;}
	.st16{fill:#EAEAEA;}
	.st17{fill:#2B5382;}
	.st18{fill:#224A7A;}
	.st19{fill:#AF6D50;}
	.st20{fill:#5387D3;}
	.st21{fill:#5E89BC;}
	.st22{fill:#46A8B8;}
	.st23{fill:#395B8E;}
</style>
<path class="st0" d="M689.6,487.5c17.5-41.4,30.5-93.5,30.5-141.3C720.1,155,565.1,0,373.9,0C182.7,0,27.8,155,27.8,346.2
	c-0.1,50,10.7,99.4,31.7,144.8"/>
<path class="st1" d="M627.5,62.8c-5.6-1.7-12-4.8-17.4-7.5l-0.1-0.1c-0.7-0.4-2-1-2-2.1c0-0.4,0.1-0.7,0.4-1
	c0.8-0.7,2.3-0.6,3.2-0.6h0.1c5.8,0.3,13.8,8.1,16.1,10.5c0.1,0.2,0.1,0.4,0.2,0.5c0,0.1-0.1,0.1-0.1,0.2
	C627.7,62.8,627.6,62.8,627.5,62.8z M608.7,52.5c-0.1,0.1-0.2,0.3-0.2,0.5c0,0.7,1.1,1.2,1.7,1.5l0.1,0.1c5.2,2.8,10.7,5.2,16.3,7.2
	c-2.8-2.8-9.9-9.4-15.1-9.7h-0.1c-0.9-0.1-1.8,0-2.6,0.3L608.7,52.5z"/>
<path class="st1" d="M626.7,63c-0.9-0.3-2.5-0.7-4.3-1.2c-7.3-1.9-19.4-5.1-18.3-10.5c0.3-1.4,1.8-2.1,4.5-2.1
	c7.1,0,14.4,6,18.6,11.2c0,0,0,0,0,0c0.1,0.1,0.1,0.3-0.1,0.4c0,0,0,0,0,0c-0.1,0.1-0.3,0.1-0.4-0.1c-4.1-5-11.2-11-18.1-11
	c-1.3,0-3.6,0.2-3.9,1.6c-1,4.8,10.9,7.9,17.9,9.8c1.9,0.5,3.4,0.9,4.4,1.2c0,0,0,0,0,0c0.2,0.1,0.2,0.2,0.2,0.4
	c0,0.1-0.1,0.1-0.1,0.2C626.9,63,626.8,63,626.7,63z"/>
<path class="st1" d="M627.1,63.5c-0.8-0.4-2.4-0.9-4.4-1.5c-7.2-2.3-18.2-5.8-17.4-10c0.3-1.6,2.6-1.8,3.9-1.7
	c6.6,0.6,15,7,18.8,11.3c0.1,0.1,0.1,0.3,0,0.4c-0.1,0.1-0.3,0.1-0.5,0c-3.7-4.2-11.9-10.5-18.4-11.1c-0.8-0.1-2.9,0-3.2,1.2
	c-0.7,3.6,10.8,7.3,16.9,9.3c2.1,0.7,3.7,1.2,4.5,1.6c0,0,0,0,0,0c0.2,0.1,0.2,0.3,0.1,0.4c0,0.1-0.1,0.1-0.1,0.1
	C627.3,63.5,627.2,63.5,627.1,63.5z"/>
<path class="st1" d="M627.6,62.2c-1.4-0.9-2.9-1.6-4.4-2.3c-6.8-3.3-17.1-8.3-15.2-12.3c0.7-1.4,3.2-0.6,4.4-0.2l0.2,0.1
	c5,1.6,10.9,8,14.9,12.3l1,1.1c0.1,0.1,0.1,0.3,0,0.5c-0.1,0.1-0.3,0.1-0.4,0l-1-1.1c-3.9-4.2-9.8-10.6-14.7-12.1l-0.2-0.1
	c-0.9-0.3-3.2-1-3.7-0.1c-1.7,3.4,8.7,8.5,14.9,11.5c1.6,0.7,3.1,1.5,4.5,2.4c0.1,0.1,0.2,0.3,0.1,0.4c0,0,0,0.1-0.1,0.1
	C627.9,62.3,627.7,62.3,627.6,62.2z"/>
<path class="st1" d="M628.4,60.9c-6.7-8.4-15.5-17.5-18.4-15.5c-0.7,0.5,0.9,2.9,1.4,3.6c0.2,0.2,0.3,0.4,0.3,0.5
	c3,5,9.4,8.6,14,10.9c0.1,0.1,0.2,0.3,0.1,0.4c-0.1,0.2-0.3,0.2-0.4,0.2c-4.6-2.3-11.2-6-14.3-11.1c-0.1-0.1-0.2-0.3-0.3-0.5
	c-0.9-1.3-2.5-3.6-1.3-4.5l0,0c3.9-2.8,14.8,10,19.2,15.6c0,0,0,0,0,0c0.1,0.1,0.1,0.3-0.1,0.4l0,0
	C628.7,61.1,628.5,61.1,628.4,60.9z"/>
<path class="st1" d="M629.1,60.8C629.1,60.8,629.1,60.8,629.1,60.8c-0.2,0.1-0.3,0-0.4-0.1c-1.3-2.2-3.6-5.7-5.3-8.3
	c-0.6-0.9-1.4-1.9-2.1-2.8l-1-1.2c-1.1-1.4-6.2-6-8.3-5.4c-0.6,0.2-0.9,0.8-0.9,1.8c-0.1,1.8,3,6.2,7.5,10.4
	c3.6,3.5,6.9,5.6,8.3,5.5c0,0,0,0,0,0c0.2,0,0.3,0.1,0.3,0.3c0,0.2-0.1,0.3-0.3,0.3c-2.4,0.2-7.4-4.3-8.8-5.7
	c-3.8-3.6-7.8-8.6-7.7-10.9c0.1-1.3,0.5-2.1,1.4-2.3c2.5-0.8,8,4.2,9,5.6l0.9,1.2c0.7,0.9,1.5,1.8,2.1,2.8c1.7,2.6,4,6.2,5.4,8.3
	C629.2,60.6,629.2,60.7,629.1,60.8L629.1,60.8z"/>
<path class="st1" d="M627.8,61.6c-3.7-2.5-11.9-11.9-14.6-15.4l-0.3-0.3c-0.8-1-2.2-2.6-1.3-3.9c1-1.4,3.8-0.3,4.9,0.4
	c5.9,3.8,10.3,11.7,12.5,17.7c0,0.1,0,0.3-0.2,0.4c-0.2,0.1-0.4,0-0.4-0.1c-2.2-5.9-6.6-13.6-12.2-17.4c-0.9-0.6-3.4-1.6-4-0.6
	c-0.6,0.8,0.6,2.3,1.3,3.1l0.3,0.3c2.8,3.5,10.9,12.8,14.5,15.2c0,0,0,0,0,0c0.1,0.1,0.2,0.3,0.1,0.4c0,0,0,0.1-0.1,0.1
	C628.1,61.7,627.9,61.7,627.8,61.6z"/>
<path class="st1" d="M628,62.9c-4.5-2-9.6-5.5-14-8.6l-0.1-0.1c-0.6-0.4-1.6-1.2-1.7-2.2c0-0.4,0.1-0.8,0.4-1.1
	c0.6-0.6,1.8-0.4,2.4-0.3h0.1c4.5,0.7,11.2,8.9,13.2,11.5c0.1,0.2,0.1,0.4,0.1,0.6c0,0.1-0.1,0.1-0.1,0.1
	C628.2,62.9,628.1,62.9,628,62.9z M613,51.4c-0.1,0.1-0.2,0.4-0.2,0.6c0,0.7,0.9,1.3,1.4,1.7l0.1,0.1c4.1,3,8.3,5.6,12.8,8
	c-2.4-3-8.2-9.8-12.2-10.4h-0.1C614.3,51.1,613.6,51.2,613,51.4L613,51.4z"/>
<path class="st1" d="M627.3,63c-0.7-0.4-1.9-0.9-3.4-1.5c-5.7-2.3-15.3-6.3-14.8-11.5c0.1-1.4,1.3-2,3.5-1.8
	c5.5,0.5,11.6,6.9,15.1,12.3c0,0,0,0,0,0c0.1,0.1,0,0.3-0.1,0.4c-0.1,0.1-0.3,0.1-0.4-0.1c-3.5-5.2-9.4-11.5-14.6-12
	c-1.2-0.1-2.7,0-2.8,1.3c-0.5,4.8,8.9,8.6,14.4,10.9c1.5,0.6,2.7,1.1,3.5,1.5c0.1,0.1,0.2,0.3,0.1,0.4c0,0-0.1,0.1-0.1,0.1
	C627.6,63.1,627.4,63.1,627.3,63z"/>
<path class="st1" d="M627.6,63.5c-0.6-0.4-1.9-1-3.5-1.8c-5.7-2.8-14.4-7-14-11c0-0.5,0.3-0.9,0.6-1.1c0.7-0.4,1.6-0.5,2.4-0.3
	c5.2,1,12.1,7.9,15.3,12.4c0,0,0,0,0,0c0.1,0.1,0.1,0.3-0.1,0.4c-0.1,0.1-0.3,0.1-0.4-0.1c-3.2-4.4-9.9-11.2-14.9-12.2
	c-0.6-0.2-1.3-0.1-1.9,0.2c-0.2,0.2-0.4,0.4-0.4,0.7c-0.3,3.6,8.5,7.8,13.7,10.4c1.6,0.8,3,1.4,3.6,1.8c0.1,0.1,0.2,0.3,0.1,0.4
	l-0.1,0.1C627.9,63.6,627.7,63.6,627.6,63.5z"/>
<path class="st1" d="M627.9,62.4c-1.1-0.9-2.3-1.8-3.6-2.6c-5.5-3.7-13.8-9.3-12.5-13.1c0.1-0.3,0.3-0.5,0.6-0.7
	c0.8-0.3,2,0.2,3,0.7l0.2,0.1c4,1.9,9,8.7,12.3,13.2l0.9,1.1c0.1,0.1,0.1,0.3-0.1,0.5c0,0,0,0,0,0c-0.1,0.1-0.3,0.1-0.4-0.1
	c-0.3-0.3-0.6-0.7-0.8-1.1c-3.3-4.5-8.3-11.2-12.1-13l-0.2-0.1c-0.6-0.3-1.9-0.9-2.4-0.6c-0.1,0-0.2,0.2-0.2,0.3
	c-1.1,3.3,7.3,9,12.3,12.4c1.3,0.8,2.5,1.7,3.6,2.6c0,0,0,0,0,0c0.1,0.1,0.1,0.3,0,0.4h0C628.3,62.4,628.1,62.5,627.9,62.4z"/>
<path class="st1" d="M628.9,61.2C628.9,61.2,628.9,61.2,628.9,61.2c-0.1,0.1-0.3,0.1-0.4-0.1c-5.1-7.9-11.6-16.4-14.4-16.7
	c-0.2,0-0.5,0-0.7,0.2c-0.3,0.3,0.1,1.6,1.4,3.7l0.3,0.5c2.7,5.2,7.9,9.2,11.6,11.7c0,0,0.1,0,0.1,0.1c0.1,0.1,0.1,0.3,0,0.5
	c-0.1,0.1-0.3,0.1-0.5,0c-3.8-2.6-9-6.6-11.8-11.9l-0.3-0.5c-1-1.8-2.1-3.8-1.2-4.5c0.3-0.3,0.8-0.4,1.2-0.3
	c3.7,0.5,11.6,12,14.8,17C629.1,60.9,629.1,61.1,628.9,61.2L628.9,61.2z"/>
<path class="st1" d="M629.1,61C629.1,61,629.1,61,629.1,61c-0.2,0.1-0.3,0-0.4-0.1c-1.1-2.2-3.2-5.9-4.7-8.6c-0.5-1-1.2-1.9-1.8-2.9
	c-0.3-0.4-0.5-0.8-0.8-1.3c-1-1.6-5.2-6.3-6.7-5.8c-0.5,0.1-0.6,1-0.6,1.7c0.1,2.7,5.9,10.9,10.1,14.8c2,1.8,2.8,2,3.1,2
	c0.2,0,0.3,0.1,0.3,0.3c0,0,0,0,0,0c0,0.2-0.1,0.3-0.3,0.3c-0.8,0-2-0.7-3.5-2.2c-3.9-3.7-10.2-12.1-10.3-15.2c0-1.3,0.3-2.1,1-2.3
	c2.1-0.6,6.8,5.1,7.4,6.1c0.3,0.4,0.5,0.8,0.8,1.2c0.6,0.9,1.3,1.9,1.8,2.9c1.5,2.7,3.5,6.4,4.7,8.6C629.3,60.7,629.2,60.9,629.1,61
	L629.1,61z"/>
<path class="st1" d="M628,61.7c-3-2.7-9.9-12.5-12.3-16.2l-0.2-0.3c-0.7-1-1.8-2.7-1.2-3.9c0.2-0.3,0.5-0.6,0.8-0.6
	c1.1-0.2,2.7,0.9,3.2,1.3c4.8,4.2,8.7,12.2,10.8,18.3c0,0,0,0,0,0c0.1,0.2,0,0.3-0.2,0.4c-0.2,0.1-0.3,0-0.4-0.2
	c-2-6-5.9-13.9-10.6-18c-0.7-0.6-1.6-1-2.6-1.1c-0.2,0-0.3,0.1-0.4,0.3c-0.4,0.8,0.6,2.4,1.2,3.2l0.2,0.3c2.4,3.6,9.2,13.4,12.2,16
	c0.1,0.1,0.1,0.3,0,0.5h-0.1C628.3,61.8,628.2,61.8,628,61.7z"/>
<path class="st1" d="M649.8,84.8c-1,0.3-2-0.8-2.5-1.5l-0.1-0.1c-4-4.7-8.4-10.1-11.4-15.2c0-0.1,0-0.3,0.1-0.4
	c0.1-0.1,0.2-0.1,0.3,0c0.1,0,0.2,0,0.2,0c2.9,1.7,12.3,7.7,14,13.2v0.1c0.2,0.8,0.7,2.3,0.2,3.2c-0.1,0.2-0.2,0.3-0.4,0.4
	C650.2,84.7,650,84.8,649.8,84.8z M636.9,68.6c3.2,5,6.8,9.7,10.7,14.1l0.1,0.1c0.4,0.5,1.2,1.5,1.9,1.3c0.2,0,0.4-0.2,0.5-0.3
	c0.4-0.7,0-2.1-0.2-2.7V81C648.4,76.1,640.4,70.7,636.9,68.6L636.9,68.6z"/>
<path class="st1" d="M652.5,88.1c-5,2.3-10.9-8.7-14.5-15.3c-0.9-1.7-1.7-3.1-2.2-3.9c0,0,0,0,0,0c-0.1-0.1,0-0.3,0.1-0.4
	c0.1-0.1,0.3-0.1,0.4,0.1c0.5,0.8,1.3,2.2,2.2,4c3.4,6.4,9.2,17.2,13.6,15.1c1.3-0.6,1-2.8,0.6-4.1c-1.6-6.6-9-12.2-14.9-15
	c-0.2-0.1-0.2-0.3-0.2-0.4c0,0,0,0,0,0c0.1-0.2,0.3-0.3,0.4-0.2c6,2.8,13.5,8.6,15.2,15.4c0.6,2.3,0.3,3.9-0.7,4.7
	C652.7,88,652.6,88,652.5,88.1z"/>
<path class="st1" d="M651.6,87.1c-3.9,1.8-9.8-8-13.8-14.5c-1.1-1.9-2-3.3-2.6-4c-0.1-0.1-0.1-0.3,0.1-0.4s0.3-0.1,0.4,0.1
	c0.9,1.3,1.8,2.6,2.6,4c3.4,5.5,9.6,15.8,13,14.3c1.1-0.5,0.7-2.6,0.4-3.4c-2.1-6.1-10.1-12.6-15.1-15.3c0,0,0,0,0,0
	c-0.1-0.1-0.2-0.3-0.1-0.4c0,0,0,0,0,0c0.1-0.2,0.3-0.2,0.4-0.1c5.1,2.7,13.2,9.3,15.4,15.6c0.4,1.1,0.7,3.2-0.5,4
	C651.8,87,651.7,87.1,651.6,87.1z"/>
<path class="st1" d="M639.6,71.6c-1-1.3-2.1-2.6-3.3-3.8c-0.1-0.1-0.1-0.3,0-0.4c0.1-0.1,0.3-0.2,0.4-0.1c1.2,1.2,2.3,2.5,3.4,3.9
	c4.3,5.2,11.5,14,14.5,11.9l0.1-0.1c0.8-0.7-0.5-2.8-0.9-3.6l-0.1-0.2c-2.6-4.4-10.2-8.6-15.2-11.4l-1.3-0.7c0,0,0,0,0,0
	c-0.1-0.1-0.2-0.3-0.1-0.4c0.1-0.1,0.3-0.2,0.4-0.1l1.3,0.7c5.1,2.8,12.8,7.1,15.5,11.7l0.1,0.2c0.7,1.1,2,3.4,0.8,4.4l-0.1,0.1
	C651.6,86,644.4,77.3,639.6,71.6z"/>
<path class="st1" d="M652.7,81.1l-0.5-0.2c-5.8-1.8-10.9-7.3-14.2-11.3c0,0,0,0,0,0c-0.1-0.1-0.1-0.3,0-0.4c0.1-0.1,0.3-0.1,0.4,0
	c3.3,3.9,8.3,9.3,13.9,11.1l0.5,0.2c0.9,0.3,3.5,1.3,3.9,0.5c1.3-3.3-9.6-9.7-19.4-14.3c0,0,0,0,0,0c-0.2-0.1-0.2-0.3-0.1-0.4
	c0.1-0.2,0.3-0.2,0.4-0.2c6.5,3.1,21.5,10.6,19.7,15.1c-0.1,0.2-0.2,0.3-0.3,0.4C656.1,82.3,653.9,81.5,652.7,81.1z"/>
<path class="st1" d="M657.3,80.5c-2.2,0.7-8-2.1-12.4-4.9c-1.7-1.1-7.2-4.8-7.6-7.2c0-0.2,0.1-0.3,0.3-0.4c0.2,0,0.3,0.1,0.4,0.3
	c0.2,1.4,3,4.1,7.3,6.8c5.2,3.3,10.2,5.3,11.9,4.8c1-0.3,1.5-0.7,1.5-1.3c0.2-2.2-5.6-6.1-7.2-6.8l-1.4-0.7c-1-0.5-2.1-1-3.2-1.4
	c-2.9-1.1-6.9-2.5-9.3-3.3c0,0,0,0,0,0c-0.2-0.1-0.3-0.2-0.2-0.4c0.1-0.2,0.2-0.3,0.4-0.2c2.4,0.8,6.4,2.2,9.4,3.3
	c1.1,0.4,2.2,0.9,3.2,1.4l1.4,0.7c1.5,0.7,7.7,4.8,7.5,7.5c0,0.6-0.3,1.1-0.8,1.3C658.1,80.2,657.7,80.4,657.3,80.5z"/>
<path class="st1" d="M655.6,78.3l-0.4-0.2c-4.1-1.9-15.1-7.7-18.4-10.7c-0.1-0.1-0.1-0.3,0-0.4c0.1-0.1,0.3-0.1,0.5,0
	c3.2,3,14.2,8.7,18.2,10.6l0.4,0.2c1,0.5,2.6,1.3,3.3,0.5c0.8-0.9-0.7-3.1-1.5-3.8c-5-4.7-13.5-7.1-19.8-7.8c-0.1,0-0.2-0.2-0.2-0.3
	c0-0.2,0.1-0.3,0.3-0.3c6.4,0.7,15,3.2,20.1,8c1,0.9,2.7,3.4,1.5,4.7c-0.1,0.1-0.2,0.2-0.3,0.2C658.4,79.7,656.7,78.8,655.6,78.3z"
	/>
<path class="st1" d="M649.9,80.4c-1,0.2-2-0.7-2.5-1.2l-0.1-0.1c-4-3.6-8.6-7.7-11.6-11.6c0,0,0,0,0,0c-0.1-0.1-0.1-0.3,0-0.4
	c0.1-0.1,0.3-0.1,0.4,0c0.1,0,0.1,0,0.2,0c2.9,1.3,12.5,5.9,14.2,10.1v0.1c0.3,0.6,0.7,1.7,0.3,2.4c-0.1,0.2-0.2,0.3-0.3,0.4
	C650.3,80.3,650.1,80.4,649.9,80.4z M636.9,68.2c3.3,3.8,6.9,7.3,10.8,10.6l0.1,0.1c0.4,0.4,1.2,1.1,1.9,1c0.2,0,0.4-0.1,0.5-0.3
	c0.3-0.5-0.1-1.4-0.3-1.9v-0.1C648.4,73.9,640.5,69.8,636.9,68.2L636.9,68.2z"/>
<path class="st1" d="M652.6,83c-5,1.7-11-6.7-14.6-11.7c-0.9-1.3-1.7-2.4-2.2-3c-0.1-0.1-0.1-0.3,0-0.4c0.1-0.1,0.3-0.1,0.5,0
	c0.6,0.6,1.3,1.7,2.3,3c3.5,4.9,9.4,13.1,13.9,11.5c1.2-0.4,1-1.9,0.6-3c-1.7-5-9.2-9.3-15.1-11.4c-0.1-0.1-0.2-0.2-0.2-0.4
	c0-0.2,0.2-0.3,0.4-0.2c6,2.2,13.7,6.6,15.5,11.8c0.6,1.7,0.4,2.9-0.4,3.5C652.9,82.8,652.8,82.9,652.6,83z"/>
<path class="st1" d="M651.6,82.1c-3.9,1.3-10-6.2-14-11.1c-1.1-1.4-2.1-2.5-2.6-3c-0.1-0.1-0.1-0.3,0-0.4c0.1-0.1,0.3-0.1,0.5,0
	c0.6,0.5,1.5,1.7,2.6,3.1c3.7,4.5,9.9,12.1,13.3,10.9c0.3-0.1,0.5-0.3,0.6-0.5c0.2-0.6,0.1-1.3-0.2-1.9c-2.2-4.6-10.2-9.6-15.3-11.6
	c0,0,0,0,0,0c-0.2-0.1-0.2-0.2-0.2-0.4c0.1-0.2,0.2-0.2,0.4-0.2c5.1,2.1,13.4,7.2,15.6,12c0.4,0.8,0.5,1.6,0.2,2.4
	c-0.1,0.3-0.3,0.5-0.5,0.6C651.9,82,651.8,82.1,651.6,82.1z"/>
<path class="st1" d="M655.2,79.5c-3.4,2.1-10.8-4.6-15.7-9.1c-1.1-1-2.2-2-3.3-2.9c-0.1-0.1-0.2-0.3-0.1-0.4c0,0,0,0,0,0
	c0.1-0.1,0.3-0.2,0.4-0.1c1.2,0.9,2.3,1.9,3.4,2.9c4.5,4,11.9,10.8,14.9,9c0.1-0.1,0.2-0.2,0.2-0.3c0.1-0.6-0.8-1.8-1.2-2.2
	l-0.1-0.1c-2.6-3.3-10.3-6.6-15.4-8.8l-1.3-0.6c0,0,0,0,0,0c-0.1-0.1-0.2-0.2-0.1-0.4c0,0,0,0,0,0c0.1-0.2,0.3-0.2,0.4-0.2l1.3,0.6
	c5.1,2.2,12.9,5.5,15.7,8.9l0.1,0.1c0.7,0.9,1.5,1.9,1.3,2.7C655.7,79,655.5,79.2,655.2,79.5L655.2,79.5z"/>
<path class="st1" d="M652.7,77.5l-0.5-0.2c-5.8-1.4-11-5.7-14.4-8.7c-0.1-0.1-0.1-0.3,0-0.4c0,0,0,0,0,0c0.1-0.1,0.3-0.1,0.4,0
	c3.3,3,8.4,7.1,14.1,8.5l0.5,0.2c2.4,0.7,3.7,0.9,3.9,0.5c0.1-0.2,0.1-0.5,0-0.7c-1-2.6-10.8-6.9-19.6-10.1
	c-0.2-0.1-0.3-0.2-0.2-0.4c0,0,0,0,0,0c0.1-0.2,0.2-0.2,0.4-0.2c5.6,2,18.7,7,20,10.4c0.2,0.4,0.2,0.9,0,1.2
	c-0.1,0.1-0.2,0.2-0.3,0.3C656.4,78.6,654.5,78.1,652.7,77.5z"/>
<path class="st1" d="M657.4,77.3c-3,0.7-12.7-3.4-17.2-6.4c-1.9-1.2-2.9-2.2-3-2.9c0,0,0,0,0,0c0-0.2,0.1-0.3,0.3-0.4
	c0.2,0,0.3,0.1,0.4,0.2c0,0.2,0.4,1,2.6,2.5c4.7,3.2,14.1,6.9,16.7,6.4c0.7-0.2,1.5-0.4,1.5-0.9c0.1-1.5-5.4-4.5-7.2-5.1l-1.4-0.5
	c-1.1-0.4-2.2-0.8-3.2-1.1c-2.8-0.8-7-1.9-9.4-2.6c-0.2,0-0.3-0.2-0.2-0.4s0.2-0.3,0.4-0.2c2.5,0.6,6.6,1.7,9.5,2.5
	c1.1,0.3,2.2,0.7,3.3,1.1l1.4,0.5c1.2,0.4,7.8,3.6,7.7,5.8c0,0.4-0.2,0.8-0.6,1C658.4,77,657.9,77.2,657.4,77.3z"/>
<path class="st1" d="M655.7,75.6l-0.4-0.1c-4.1-1.5-15.3-5.9-18.6-8.2c0,0,0,0,0,0c-0.1-0.1-0.2-0.3-0.1-0.4
	c0.1-0.1,0.3-0.2,0.4-0.1c3.3,2.3,14.4,6.7,18.4,8.1l0.4,0.2c1,0.3,2.7,1,3.4,0.4c0.1-0.1,0.2-0.3,0.2-0.4c0-0.7-1-1.8-1.8-2.3
	c-5.1-3.6-13.6-5.5-20-6.1c-0.2,0-0.3-0.2-0.3-0.3c0,0,0,0,0,0c0-0.2,0.2-0.3,0.3-0.3c6.4,0.6,15.2,2.5,20.3,6.2
	c0.5,0.4,2,1.6,2,2.8c0,0.4-0.1,0.7-0.4,0.9l-0.1,0.1C658.7,76.7,656.8,76,655.7,75.6z"/>
<path class="st2" d="M636.1,69.5c-0.9,0-10-6.4-10-6.4c1.2-0.6,2.5-3.7,2.5-3.7c0.4-0.1,10.1,6.9,10.1,6.9
	C639,67.2,636.9,69.5,636.1,69.5z"/>
<path class="st3" d="M637.4,66.7c-2.9-2.1-7.7-5.4-8.2-5.6c-0.1,0-0.2-0.2-0.2-0.3c0,0,0,0,0,0c0-0.2,0.1-0.3,0.3-0.3
	c0.1,0,0.4,0,8.5,5.7c0.1,0.1,0.2,0.3,0.1,0.4c0,0,0,0.1-0.1,0.1C637.6,66.8,637.5,66.8,637.4,66.7z"/>
<path class="st3" d="M635.2,67.3c-2.1-1.5-5.5-3.9-5.9-4.1c-0.1,0-0.2-0.2-0.2-0.3c0,0,0,0,0,0c0-0.2,0.1-0.3,0.3-0.3
	c0.1,0,0.3,0,6.2,4.2c0,0,0,0,0,0c0.1,0.1,0.2,0.3,0.1,0.4c0,0,0,0.1-0.1,0.1C635.5,67.4,635.4,67.4,635.2,67.3z"/>
<path class="st4" d="M546.7,94c-0.4-0.1-0.7-0.3-0.9-0.6c-0.5-0.9-0.1-2.4,0.1-3.2V90c1.5-5.6,10.9-11.8,13.7-13.5
	c0.1,0,0.1,0,0.2,0c0.1-0.1,0.2-0.1,0.3,0c0.2,0.1,0.2,0.3,0.1,0.4c-2.8,5.1-7.2,10.7-11.1,15.4l-0.1,0.1c-0.3,0.5-0.7,0.9-1.2,1.2
	C547.6,94,547.2,94.1,546.7,94z M546.6,90.3L546.6,90.3c-0.2,0.8-0.6,2.2-0.2,2.8c0.1,0.2,0.3,0.3,0.5,0.3c0.6,0.2,1.4-0.8,1.8-1.3
	l0.1-0.1c3.8-4.6,7.3-9.4,10.4-14.4C555.8,79.8,548,85.3,546.6,90.3z"/>
<path class="st4" d="M544.1,97.3c-1.3-0.6-1.7-2.2-1.1-4.8c1.5-6.9,9-12.8,14.9-15.8c0.2-0.1,0.3,0,0.4,0.1c0,0,0,0,0,0
	c0.1,0.2,0,0.3-0.1,0.4c-5.8,2.9-13.1,8.7-14.5,15.3c-0.3,1.3-0.6,3.5,0.7,4.1c4.5,2,10-8.9,13.3-15.4c0.9-1.8,1.6-3.2,2.1-4
	c0.1-0.1,0.3-0.2,0.4-0.1s0.2,0.3,0.1,0.4c-0.5,0.8-1.2,2.3-2.1,4c-2.5,4.9-6.2,12.2-10,14.9C547.1,97.6,545.6,97.9,544.1,97.3z"/>
<path class="st4" d="M545.1,96.4c-1.5-0.7-1.2-2.9-0.8-4.1c2-6.4,10-13.2,15-16c0,0,0,0,0,0c0.2-0.1,0.3,0,0.4,0.1
	c0.1,0.2,0,0.3-0.1,0.4c-4.9,2.8-12.7,9.4-14.7,15.6c-0.2,0.8-0.6,2.9,0.5,3.4c3.4,1.4,9.4-8.9,12.7-14.6c1.1-1.9,2-3.4,2.5-4.1
	c0,0,0,0,0,0c0.1-0.1,0.3-0.2,0.4-0.1c0,0,0,0,0,0c0.1,0.1,0.1,0.3,0,0.4c-0.5,0.6-1.4,2.1-2.4,4c-2.8,4.9-6.8,11.7-10.2,14.1
	C547.5,96.4,546.2,96.7,545.1,96.4z"/>
<path class="st4" d="M541.4,92.8c-1.2-1,0.1-3.3,0.7-4.4l0.1-0.2c2.6-4.6,10.2-9,15.2-12l1.3-0.8c0.2-0.1,0.3,0,0.4,0.1
	s0,0.3-0.1,0.4l-1.3,0.8c-5,2.9-12.5,7.3-15,11.8l-0.1,0.2c-0.5,0.8-1.7,2.9-0.9,3.6c3,2.4,10.1-6.7,14.4-12.1
	c1-1.4,2.1-2.7,3.3-3.9c0,0,0,0,0,0c0.1-0.1,0.3-0.1,0.4,0c0.1,0.1,0.1,0.3,0,0.4c-1.1,1.2-2.2,2.5-3.2,3.9c-3,3.8-7,8.9-10.4,11.3
	C544.3,93.3,542.6,93.8,541.4,92.8z"/>
<path class="st4" d="M544.3,90.1l-0.5,0.2c-1.4,0.6-4.1,1.7-4.7,0.3c-1.9-4.4,12.9-12.3,19.3-15.5c0.2-0.1,0.3,0,0.4,0.1
	c0,0,0,0,0,0c0.1,0.2,0,0.3-0.2,0.4c-9.6,4.8-20.4,11.5-19,14.7c0.3,0.8,3-0.3,3.8-0.6l0.5-0.2c5.6-1.9,10.4-7.4,13.6-11.4
	c0,0,0-0.1,0.1-0.1c0.1-0.1,0.3-0.1,0.5,0c0.1,0.1,0.1,0.3,0,0.5c-2.6,3.4-5.6,6.4-9,9C547.7,88.6,546,89.5,544.3,90.1z"/>
<path class="st4" d="M551.5,84.8c-4.3,2.9-10,5.8-12.3,5.2c-1.2-0.3-1.9-1-2-1.8c-0.2-2.6,5.8-6.9,7.4-7.6l1.4-0.7
	c1-0.5,2.1-1.1,3.2-1.5c2.9-1.1,6.9-2.7,9.3-3.5c0.2,0,0.3,0,0.4,0.2c0,0,0,0,0,0c0.1,0.2,0,0.3-0.2,0.4c-2.4,0.8-6.4,2.3-9.2,3.5
	c-1.1,0.4-2.2,1-3.2,1.5l-1.4,0.7c-1.6,0.7-7.2,4.8-7,7c0.1,0.6,0.5,1,1.5,1.3c1.8,0.5,6.7-1.7,11.8-5.1c4.2-2.9,7-5.6,7.1-7
	c0-0.2,0.2-0.3,0.4-0.3c0,0,0,0,0,0c0.2,0,0.3,0.2,0.3,0.3c-0.2,2.1-4.3,5.2-6.5,6.8L551.5,84.8z"/>
<path class="st4" d="M541.1,87.5l-0.4,0.2c-1.1,0.6-3.1,1.6-4.1,0.5c-1.2-1.3,0.5-3.8,1.5-4.7c5-4.9,13.6-7.6,19.9-8.5
	c0,0,0,0,0.1,0c0.2,0,0.3,0.1,0.3,0.3s-0.1,0.3-0.3,0.3c-6.3,0.8-14.7,3.5-19.6,8.3c-0.8,0.8-2.3,2.9-1.4,3.8
	c0.7,0.8,2.3-0.1,3.3-0.6l0.4-0.2c4-2,14.9-8,18-11c0,0,0,0,0,0c0.1-0.1,0.3-0.1,0.4,0c0.1,0.1,0.1,0.3,0,0.4
	c-0.8,0.7-1.6,1.4-2.4,2C551.8,81.7,546.5,84.8,541.1,87.5z"/>
<path class="st4" d="M546.6,89.7c-0.4,0-0.8-0.3-1-0.6c-0.3-0.8-0.2-1.7,0.2-2.4v-0.1c1.7-4.3,11.1-9.1,14-10.4c0.1,0,0.1,0,0.2,0
	c0.1-0.1,0.3-0.1,0.4,0c0.1,0.1,0.2,0.3,0.1,0.4c-3,3.9-7.4,8.2-11.4,11.8l-0.1,0.1c-0.3,0.3-0.5,0.5-0.8,0.7
	C547.8,89.5,547.2,89.7,546.6,89.7z M559.3,77.1c-3.5,1.7-11.4,6-12.8,9.7v0.1c-0.2,0.5-0.5,1.4-0.3,1.9c0.1,0.2,0.3,0.3,0.5,0.3
	c0.7,0.2,1.5-0.6,1.9-1l0.1-0.1C552.4,84.6,556,81,559.3,77.1L559.3,77.1z"/>
<path class="st4" d="M544,92.2c-1.3-0.4-1.7-1.8-1.1-3.8c1.6-5.3,9.2-9.8,15.2-12.2c0,0,0,0,0,0c0.2-0.1,0.3,0,0.4,0.2
	c0.1,0.2,0,0.3-0.2,0.4c-5.8,2.3-13.2,6.7-14.8,11.8c-0.3,1.2-0.5,2.6,0.7,3c4.6,1.5,10.3-6.8,13.7-11.8c0.9-1.4,1.7-2.4,2.2-3.1
	c0,0,0-0.1,0.1-0.1c0.1-0.1,0.3-0.1,0.5,0c0.1,0.1,0.1,0.3,0,0.5c-0.5,0.6-1.3,1.7-2.2,3c-2.3,3.4-5.7,8.3-9.1,10.7
	C547.4,92.1,545.7,92.8,544,92.2z"/>
<path class="st4" d="M544.9,91.4c-0.4-0.1-0.8-0.4-1-0.8c-0.2-0.8-0.2-1.7,0.2-2.4c2.1-4.9,10.3-10.1,15.4-12.3c0,0,0,0,0,0
	c0.2-0.1,0.3,0,0.4,0.2c0,0,0,0,0,0.1c0.1,0.2,0,0.3-0.2,0.4c-5,2.2-13,7.3-15,12c-0.3,0.6-0.4,1.3-0.2,1.9c0.1,0.2,0.3,0.4,0.6,0.5
	c3.4,1.1,9.4-6.6,13-11.2c0.8-1.1,1.7-2.1,2.6-3.1c0.1-0.1,0.3-0.1,0.4,0s0.1,0.3,0,0.4c-0.9,1-1.7,2-2.5,3
	c-2.6,3.3-6.1,7.8-9.3,10.1C547.7,91.3,546.2,91.8,544.9,91.4z"/>
<path class="st4" d="M541.2,88.8c-0.3-0.2-0.5-0.4-0.5-0.7c-0.2-0.8,0.6-1.9,1.3-2.8l0.1-0.1c2.7-3.5,10.4-7,15.5-9.3l1.3-0.6
	c0.1,0,0.3,0,0.3,0.1c0.1,0.1,0.1,0.3-0.1,0.4l-1.3,0.6c-5,2.3-12.7,5.7-15.2,9.1l-0.1,0.1c-0.4,0.5-1.3,1.6-1.2,2.3
	c0,0.1,0.1,0.2,0.2,0.3c3,1.7,10.3-5.2,14.7-9.4c1.1-1.1,2.2-2.1,3.4-3c0.1-0.1,0.3-0.1,0.4,0.1c0.1,0.1,0.1,0.3-0.1,0.4
	c-1.1,0.9-2.2,1.9-3.3,3c-2.6,2.6-5.4,5.1-8.4,7.3C545.5,88.6,542.9,89.8,541.2,88.8z"/>
<path class="st4" d="M544.2,86.8l-0.5,0.2c-2,0.6-4.1,1.2-4.7,0.2c-0.2-0.4-0.2-0.8-0.1-1.2c1.3-3.6,15.5-9.2,19.8-10.9c0,0,0,0,0,0
	c0.2-0.1,0.3,0,0.4,0.2c0,0,0,0,0,0c0.1,0.2,0,0.3-0.2,0.4c-8.8,3.4-18.5,7.9-19.4,10.5c-0.1,0.2-0.1,0.5,0,0.7
	c0.2,0.4,1.5,0.2,3.9-0.6l0.5-0.2c5.6-1.5,10.6-5.8,13.9-8.8c0,0,0,0,0,0c0.1-0.1,0.3-0.1,0.4,0c0.1,0.1,0.1,0.3,0,0.4
	c-1.8,1.7-3.7,3.3-5.7,4.8C550,84.4,547.2,85.8,544.2,86.8z"/>
<path class="st4" d="M556.1,79.9c-4.4,3.1-14.1,7.4-17.1,6.8c-1.3-0.2-1.9-0.8-2-1.5c-0.2-2.2,6.4-5.5,7.5-5.9l1.4-0.5
	c1.1-0.4,2.2-0.8,3.2-1.2c2.8-0.9,6.9-2.1,9.4-2.8c0,0,0,0,0,0c0.2,0,0.3,0.1,0.4,0.2c0,0.2-0.1,0.3-0.2,0.4
	c-2.5,0.7-6.6,1.9-9.4,2.7c-1.1,0.3-2.2,0.8-3.2,1.2l-1.4,0.5c-1.8,0.7-7.2,3.8-7.1,5.3c0,0.5,0.8,0.8,1.5,0.9
	c2.7,0.5,11.9-3.5,16.6-6.7c2.2-1.6,2.6-2.3,2.6-2.6c0-0.2,0.2-0.3,0.4-0.3c0.2,0,0.3,0.2,0.2,0.4c-0.1,0.7-1,1.7-2.7,2.8
	L556.1,79.9z"/>
<path class="st4" d="M540.9,84.8l-0.4,0.1c-1.1,0.4-3,1.2-4,0.4c-0.3-0.2-0.4-0.6-0.4-0.9c0.1-1.1,1.5-2.4,2-2.8
	c5.1-3.8,13.8-5.9,20.2-6.7c0.2,0,0.3,0.1,0.4,0.3c0,0.2-0.1,0.3-0.3,0.3c-6.3,0.7-14.9,2.8-19.9,6.5c-0.7,0.5-1.7,1.6-1.7,2.3
	c0,0.2,0.1,0.3,0.2,0.4c0.7,0.6,2.5-0.1,3.4-0.5l0.4-0.2c4-1.5,15-6.2,18.2-8.5c0,0,0,0,0.1,0c0.2-0.1,0.3,0,0.4,0.1
	c0.1,0.2,0,0.3-0.1,0.4l-0.1,0.1C555.9,78.7,545,83.2,540.9,84.8z"/>
<path class="st4" d="M584.6,61.9l-0.1,0.1c-5.4,2.9-11.6,6.1-17.3,7.9c-0.2,0-0.3,0-0.4-0.2c0-0.1,0-0.3,0.1-0.3
	c0-0.1,0-0.2,0.1-0.2c2.3-2.4,10.1-10.4,15.9-10.9h0.2c0.8-0.1,2.4-0.2,3.2,0.5c0.3,0.3,0.4,0.6,0.4,1c0,0.6-0.4,1.2-1,1.5
	C585.3,61.5,585,61.7,584.6,61.9z M575.8,62.2c-2.8,2-5.3,4.3-7.7,6.8c5.5-2.1,10.9-4.7,16.1-7.6l0.1-0.1c0.6-0.3,1.7-0.9,1.7-1.5
	c0-0.2-0.1-0.4-0.2-0.5c-0.6-0.5-2-0.3-2.7-0.3h-0.1C580.8,59.1,578.2,60.5,575.8,62.2L575.8,62.2z"/>
<path class="st4" d="M572.2,68.8c-1.8,0.5-3.4,1-4.3,1.3c0,0-0.1,0-0.1,0c-0.2,0-0.3-0.1-0.4-0.2c0-0.2,0.1-0.3,0.2-0.4
	c0.9-0.3,2.4-0.8,4.3-1.3c7-2,18.7-5.3,17.6-10.1c-0.3-1.4-2.6-1.5-3.9-1.5c-6.8,0.2-13.9,6.2-17.8,11.4c-0.1,0.1-0.3,0.1-0.5,0
	c0,0,0,0,0,0c-0.1-0.1-0.1-0.3,0-0.4c4-5.2,11.2-11.4,18.3-11.6c2.7-0.1,4.2,0.6,4.5,2c0.4,1.9-0.8,3.5-2.8,4.9
	C583.8,65.5,577,67.4,572.2,68.8z"/>
<path class="st4" d="M572.1,69c-2.1,0.7-3.7,1.3-4.4,1.6c-0.2,0.1-0.3,0-0.4-0.1c-0.1-0.2,0-0.3,0.2-0.4c1.5-0.6,3-1.2,4.5-1.7
	c6.1-2.1,17.5-6.1,16.7-9.7c-0.3-1.2-2.4-1.2-3.2-1.1c-6.5,0.8-14.5,7.2-18.1,11.5c-0.1,0.1-0.3,0.2-0.4,0c-0.1-0.1-0.2-0.3,0-0.4
	c3.7-4.4,11.9-11,18.5-11.7c1.3-0.1,3.5,0,3.9,1.6c0.3,1.4-0.7,2.8-2.6,4.1C583.1,65.2,576.8,67.3,572.1,69z"/>
<path class="st4" d="M571.5,67c-1.5,0.7-3,1.5-4.4,2.4c-0.1,0.1-0.3,0.1-0.4-0.1c-0.1-0.1-0.1-0.3,0-0.5c1.4-0.9,2.9-1.7,4.5-2.5
	c6.1-3.1,16.4-8.4,14.6-11.8c-0.5-0.9-2.8-0.1-3.7,0.2l-0.2,0.1c-4.8,1.6-10.6,8.1-14.4,12.5c-0.4,0.4-0.7,0.8-1,1.1
	c-0.1,0.1-0.3,0.1-0.4,0c-0.1-0.1-0.2-0.3-0.1-0.4l1-1.1c3.9-4.4,9.7-11,14.7-12.6l0.2-0.1c1.2-0.4,3.7-1.3,4.4,0.1
	c1,2-1.1,4.3-4.2,6.6C578.8,63.1,575.2,65.2,571.5,67z"/>
<path class="st4" d="M569.1,68.1c-0.2,0.1-0.3,0-0.4-0.1c-0.1-0.2,0-0.3,0.1-0.4c4.5-2.4,10.9-6.1,13.8-11.2
	c0.1-0.1,0.2-0.3,0.3-0.5c0.5-0.8,2.1-3.2,1.3-3.7c-2.8-2-11.5,7.3-18,15.9c-0.1,0.1-0.3,0.2-0.5,0.1c-0.1-0.1-0.2-0.3-0.1-0.4
	c4.4-5.7,14.9-18.7,18.9-16c1.2,0.9-0.3,3.2-1.2,4.5l-0.3,0.5c-1.8,2.9-4.3,5.4-7.2,7.3C573.8,65.5,571.5,66.9,569.1,68.1z"/>
<path class="st4" d="M567.9,68.5c-0.2,0-0.3-0.2-0.3-0.3c0,0,0,0,0,0c0-0.2,0.2-0.3,0.3-0.3c1.4,0.1,4.6-2.1,8.2-5.7
	c4.3-4.3,7.4-8.8,7.2-10.6c-0.1-1-0.4-1.6-1-1.8c-2.2-0.6-7.2,4.1-8.2,5.5c-0.3,0.4-0.6,0.8-0.9,1.2c-0.7,0.9-1.4,1.9-2,2.8
	c-1.7,2.6-3.9,6.2-5.2,8.4c-0.1,0.1-0.2,0.1-0.4,0.1c-0.2-0.1-0.3-0.2-0.2-0.4c1.3-2.2,3.5-5.8,5.2-8.5c0.6-1,1.4-1.9,2.1-2.9
	c0.3-0.4,0.6-0.8,0.9-1.2c0.8-1,6.1-6.6,8.9-5.8c0.8,0.2,1.3,1,1.4,2.3c0.2,2.3-3.7,7.4-7.4,11.1c-1.5,1.5-3.1,2.9-4.8,4.2
	C570.4,67.9,569,68.6,567.9,68.5z"/>
<path class="st4" d="M566.9,68.8C566.9,68.8,566.9,68.8,566.9,68.8c-0.2,0.1-0.4,0.1-0.5-0.1s0-0.3,0.1-0.4h0.1
	c3.6-2.6,11.4-12,14.1-15.5l0.3-0.3c0.7-0.9,1.8-2.3,1.2-3.1c-0.7-1-3.1,0.1-4,0.7c-5.7,3.9-9.9,11.7-11.9,17.7
	c-0.1,0.2-0.2,0.3-0.4,0.2c0,0,0,0,0,0c-0.2-0.1-0.2-0.2-0.2-0.4c2.1-6.1,6.3-14,12.1-18c1.1-0.8,3.9-1.9,4.9-0.5
	c0.9,1.2-0.5,2.9-1.2,3.9l-0.3,0.3c-2.7,3.6-10.6,13-14.2,15.7L566.9,68.8z"/>
<path class="st4" d="M566.8,70C566.8,70,566.8,70,566.8,70c-0.2,0.1-0.4,0-0.4-0.2c-0.1-0.1,0-0.3,0.1-0.4c0-0.1,0-0.1,0.1-0.2
	c1.9-2.6,8.4-10.9,12.9-11.7h0.1c0.6-0.1,1.8-0.3,2.4,0.2c0.3,0.3,0.4,0.7,0.4,1.1c0,1-1.1,1.8-1.6,2.2l-0.1,0.1
	c-1.1,0.8-2.3,1.7-3.5,2.5C573.8,66,570.4,68.1,566.8,70z M567.6,68.9c4.4-2.5,8.6-5.2,12.6-8.3l0.1-0.1c0.5-0.3,1.4-1,1.4-1.7
	c0-0.2,0-0.4-0.2-0.6c-0.4-0.4-1.4-0.2-1.9-0.1h-0.1c-1.2,0.3-2.2,0.8-3.2,1.5C573,62.1,569.4,66.6,567.6,68.9z"/>
<path class="st4" d="M570.8,68.6c-1.4,0.6-2.7,1.2-3.4,1.6c0,0-0.1,0-0.1,0.1c-0.2,0.1-0.3,0-0.4-0.2s0-0.3,0.2-0.4
	c0.7-0.4,1.9-0.9,3.4-1.6c5.5-2.4,14.7-6.4,14.2-11.2c-0.1-1.2-1.6-1.3-2.8-1.2c-5.3,0.6-11,7-14.4,12.3c-0.1,0.1-0.3,0.2-0.4,0.1
	c-0.1-0.1-0.2-0.3-0.1-0.4c3.4-5.4,9.4-12,14.8-12.6c2.1-0.2,3.3,0.4,3.5,1.8c0.3,2.4-1.6,4.6-4.3,6.5
	C577.8,65.3,574.4,67.1,570.8,68.6z"/>
<path class="st4" d="M570.6,68.8c-1.6,0.8-2.9,1.5-3.5,1.9c0,0,0,0,0,0c-0.1,0.1-0.3,0.1-0.4-0.1c-0.1-0.1-0.1-0.3,0.1-0.4
	c1.2-0.7,2.3-1.4,3.6-1.9c5.2-2.7,13.9-7.1,13.5-10.7c0-0.3-0.2-0.5-0.4-0.7c-0.6-0.3-1.3-0.4-1.9-0.2c-5,1.1-11.6,8-14.6,12.5
	c0,0,0,0.1-0.1,0.1c-0.1,0.1-0.3,0.1-0.5,0c-0.1-0.1-0.1-0.3,0-0.5c3.1-4.6,9.8-11.6,15-12.7c0.8-0.2,1.7-0.1,2.4,0.3
	c0.4,0.3,0.6,0.7,0.6,1.1c0.2,2-1.7,4.1-4.4,6C577,65.4,573.8,67.2,570.6,68.8z"/>
<path class="st4" d="M566.3,69.4c-0.1-0.1-0.1-0.3,0-0.4c1.1-1,2.4-1.9,3.6-2.7c4.9-3.5,13.2-9.4,12-12.7c0-0.1-0.1-0.2-0.2-0.3
	c-0.6-0.2-1.9,0.4-2.4,0.7l-0.2,0.1c-3.8,1.9-8.6,8.7-11.8,13.2l-0.8,1.2c-0.1,0.1-0.3,0.2-0.4,0.1c0,0,0,0,0,0
	c-0.1-0.1-0.2-0.3-0.1-0.4l0.8-1.2c3.2-4.6,8.1-11.4,12-13.4l0.1-0.1c1.1-0.5,2.2-1,3-0.7c0.3,0.1,0.5,0.4,0.6,0.7
	c1.3,3.8-6.8,9.6-12.2,13.4c-1.2,0.8-2.4,1.7-3.5,2.7l0,0C566.6,69.6,566.4,69.6,566.3,69.4z"/>
<path class="st4" d="M568.4,68.2C568.4,68.2,568.4,68.2,568.4,68.2c-0.2,0.1-0.4,0.1-0.5-0.1s0-0.4,0.1-0.4c3.6-2.7,8.7-6.8,11.3-12
	c0-0.1,0.2-0.3,0.3-0.5c1.2-2.2,1.6-3.5,1.3-3.8c-0.2-0.2-0.5-0.2-0.7-0.2c-2.8,0.4-9.1,9-14,17c-0.1,0.1-0.3,0.2-0.4,0.1
	c-0.1-0.1-0.2-0.3-0.1-0.4c2.4-3.9,10.7-16.8,14.4-17.3c0.4-0.1,0.9,0,1.2,0.3c0.9,0.7-0.1,2.7-1.1,4.5c-0.1,0.2-0.2,0.4-0.2,0.5
	C577.3,61.3,572.1,65.4,568.4,68.2L568.4,68.2z"/>
<path class="st4" d="M567.5,68.6c-0.2,0-0.3-0.1-0.3-0.3c0-0.2,0.1-0.3,0.3-0.3c0.2,0,1-0.2,3-2.1c4.1-4,9.8-12.3,9.8-15
	c0-0.7-0.1-1.5-0.6-1.7c-1.5-0.4-5.6,4.3-6.6,6l-0.8,1.3c-0.6,0.9-1.2,1.9-1.7,2.9c-1.4,2.6-3.4,6.4-4.5,8.7c0,0,0,0,0,0
	c-0.1,0.2-0.3,0.2-0.4,0.1c-0.2-0.1-0.2-0.3-0.1-0.4c1.1-2.3,3.1-6.1,4.5-8.7c0.5-1,1.2-2,1.8-3c0.3-0.4,0.5-0.8,0.8-1.3
	c0.6-1,5.1-6.9,7.3-6.3c0.7,0.2,1,1,1,2.3c0,3.1-6.2,11.7-10,15.5c-0.6,0.6-1.1,1.1-1.8,1.5C568.7,68.2,568.1,68.5,567.5,68.6z"/>
<path class="st4" d="M566.2,68.9c-0.1-0.1-0.1-0.3,0-0.4c2.9-2.7,9.6-12.6,11.8-16.3c0.1-0.1,0.1-0.2,0.2-0.3
	c0.5-0.9,1.6-2.4,1.2-3.2c-0.1-0.2-0.2-0.3-0.4-0.3c-1,0.1-1.9,0.5-2.6,1.2c-4.6,4.2-8.3,12.2-10.2,18.3c0,0,0,0,0,0
	c-0.1,0.2-0.2,0.3-0.4,0.2c-0.2-0.1-0.3-0.2-0.2-0.4c1.9-6.2,5.7-14.3,10.4-18.5c0.5-0.4,2-1.6,3.1-1.4c0.4,0.1,0.7,0.3,0.8,0.6
	c0.6,1.1-0.5,2.9-1.2,3.9l-0.2,0.3c-2.3,3.7-9,13.7-12,16.4l0,0C566.5,69,566.4,69,566.2,68.9z"/>
<path class="st2" d="M568.7,70c-0.2,0.9-8.4,8.4-8.4,8.4c-0.4-1.3-3.1-3.2-3.1-3.2c-0.1-0.4,8.9-8.4,8.9-8.4
	C567.1,66.6,568.9,69.1,568.7,70z"/>
<path class="st3" d="M558.7,75.2C558.7,75.2,558.7,75.2,558.7,75.2c-0.2,0-0.3-0.2-0.2-0.4c0-0.1,0.1-0.4,7.4-7.1
	c0.1-0.1,0.3-0.1,0.5,0c0.1,0.1,0.1,0.3,0,0.4c-2.6,2.4-6.9,6.4-7.2,6.8c0,0-0.1,0.1-0.1,0.1C558.9,75.1,558.8,75.2,558.7,75.2z"/>
<path class="st3" d="M560.8,75.4c-0.2,0-0.3-0.2-0.2-0.4c0-0.2,0.1-0.3,5.4-5.2c0.1-0.1,0.3-0.1,0.5,0c0,0,0,0,0,0
	c0.1,0.1,0.1,0.3,0,0.4c-1.9,1.7-5,4.6-5.2,4.9c0,0-0.1,0.1-0.1,0.1C561,75.4,560.9,75.5,560.8,75.4z"/>
<path class="st5" d="M518.4,173.9c1.7-2.8,4.8-6.4,5.8-9.6c0.5-1.6-0.9-4.1,0.1-5.7c3-5,26.3,1.8,31.6-1.6c1.3-0.8-0.6-3.2,0.3-4
	c0.4-0.3,4,0.1,4.9-0.1c3.6-0.9,8.3-3.9,11.1-6.4c2.4-2,11.3-14.4,12.2-14.8c9.8-4,27.8,7.3,37.9,8l12.5,2.4
	c13.6,4.8,52.2,10.1,59.8,22.1c1.2,1.8,0.8,4.7,1.8,6.5c1.7,3.2-10.1,37.6-7.4,35.2c6.9-6.4,80.5,8.4,80.7,13.8
	c0,0.8-30.3,36.6-31.1,37.9l-9,10.4c-4.8,4.2-9.4,8.6-13.7,13.2c-3.4,3.5-5.4,8.1-8.8,11.6c-11.7,12.1-23.8,23.1-34.4,36
	c-5.4,6.6-8.7,19.9-10,21.2c-10.5,10.5-39,18.1-53.5,17.8c-10.2-0.2-21-7.6-30.2-11.2c-5.3-2.1-11.3-1.1-16.7-1.9
	c-3.6-0.5-5.9-3-9.1-4c-9.6-2.9-18.7-15.7-29.7-19.7l-4.2-3.1c-14.6-5.2-11.1-14.9-14.8-19.2c-5.1-6-9-12.4-13.3-19.2
	c-2.7-4.3-12.6-13.5-13.5-17.3c-0.6-2.2,5-5.3,6.1-6.6c13.9-17.1,20.4-25.1,15.9-47.1L518.4,173.9z"/>
<path class="st6" d="M552.6,333.5c-47.5-28.6-62.8-90.4-34.2-137.9c28.6-47.6,90.4-62.9,137.9-34.3c47.6,28.6,62.9,90.4,34.3,137.9
	C661.9,346.8,600.2,362.1,552.6,333.5z M555.5,328.8C555.5,328.8,555.5,328.8,555.5,328.8c45,27.1,103.4,12.6,130.4-32.4
	s12.6-103.3-32.4-130.4s-103.3-12.6-130.4,32.4C496.2,243.3,510.6,301.7,555.5,328.8z"/>
<path class="st7" d="M615,447.7c9.4,0.3,36.7,10,45,0c-0.4-5.2-11.4-45.5-13.4-53.3c-4.1-16.6-4.4-30.1-10.3-46.1
	c-2.2-5.8-8.7-14.8-12.9-19.1c-5.1-5.3-8.1-13-11.1-18.8c-4.3-8.1-7.1-17-8.2-26.1c-0.2-2.1,0.3-4.7-0.4-6.7c-0.5-1.1-1.4-2-2.5-2.5
	c-4.6-1.4-7.6,4.2-9,6.5l-0.2-1.8c0.3-2.2-1.3-5.9-3.8-6.4c-5.5-0.9-5.3,5-7.3,9.4l-0.9,2.2c-5.3,2.7-13.9,4.8-17.4,6.7
	c-2.6,1.4-18.9,14.3-19.8,16.8c-2,5.7,3.3,25.8,4.2,32.4c0.8,5.9,0.6,16.3,4.1,21.1c3.1,4.3,10.7,7,14.9,10.3l4.9,2.7
	c12.8,8.2,28.4,17.1,35.1,31.2C609.6,413.8,613.2,441.7,615,447.7z M587.9,333.4c-10.7-2.1,1.9-20.9,2.7-32c0.5,7,6.1,18.2,5.5,25.3
	C596,329.3,589.8,332.4,587.9,333.4L587.9,333.4z M572.5,302.6c0,0-8.4,19.9-9.8,21.7c-1.2-3.6-2.9-9.8-4-13.4
	C562.6,309.7,568.8,302.5,572.5,302.6L572.5,302.6z"/>
<path class="st7" d="M764.3,193c7-6.3,33.2-4.2,34.3-6.7c5.8-9.7-0.7-32-9.6-40.8c-44.8,11.8-74.3,4.2-99.5-1.4
	c-4.2-0.9-9.4-1.1-13.5-2.2c-12.3-3.4-24.9-4.6-37.5-6c-8.3-0.9-32.8-3.7-32.4,4.5s27.6,9.4,37,13.2c14.9,5.9,27.2,5.7,40.2,15.9
	c3.9,4.2,10.9,17.1,7.2,23.4c-2.8,9.6-34.8,28.5-32.9,36.2c3.5,14.1,32-11.1,37.4-14.1c3.6-2,7.8-2.9,11.6-4.5
	C717.6,209.3,743.8,211.3,764.3,193z"/>
<path class="st8" d="M678.3,165.7C678.3,165.7,678.3,165.7,678.3,165.7c-0.3,0.1-0.7,0-0.8-0.4c-0.9-1.9-1.2-4.1-1-6.2
	c0-0.3,0.4-0.6,0.7-0.5c0.3,0,0.6,0.3,0.5,0.7c-0.2,1.9,0.1,3.8,0.9,5.6c0.1,0.2,0.1,0.4,0,0.5C678.5,165.5,678.4,165.6,678.3,165.7
	z"/>
<path class="st8" d="M643.3,153.2c-0.1,0.1-0.2,0.2-0.4,0.3c-0.3,0.1-0.7-0.1-0.7-0.5l-0.1-0.2c-0.2-0.6-0.2-1.2-0.2-1.8
	c0-0.3,0.3-0.5,0.6-0.5c0.3,0,0.6,0.2,0.7,0.6c0,0.5,0,1,0.1,1.4l0,0.2C643.4,152.9,643.4,153.1,643.3,153.2L643.3,153.2z"/>
<path class="st8" d="M691,193C691,193,691,193,691,193c-0.3-0.2-0.4-0.6-0.2-0.8c2.2-3.6,2.9-7,3.6-10.9c0.1-0.3,0.4-0.5,0.7-0.5
	c0,0,0,0,0,0c0.3,0.1,0.5,0.4,0.5,0.7c-0.8,4.1-1.5,7.5-3.8,11.3C691.7,193.1,691.3,193.2,691,193z"/>
<path class="st8" d="M683,215.6C683,215.6,683,215.6,683,215.6c-0.3,0.2-0.6,0.2-0.9-0.1c-0.3-0.4-0.6-0.7-0.9-1.1l-0.5-0.6
	c0,0,0,0,0,0c-0.2-0.3-0.2-0.6,0.1-0.9c0,0,0,0,0,0c0.3-0.2,0.7-0.2,0.9,0.1l0.5,0.6c0.3,0.4,0.6,0.7,0.9,1.1
	c0.2,0.2,0.2,0.5,0.1,0.7C683.1,215.5,683.1,215.6,683,215.6z"/>
<path class="st8" d="M680.5,216.7c-0.2,0.2-0.6,0.2-0.9,0c-0.4-0.4-0.9-0.9-1.2-1.2s-0.6-0.7-0.9-1c0,0,0,0,0,0
	c-0.2-0.2-0.2-0.6,0-0.8c0,0,0,0,0,0c0.2-0.2,0.6-0.2,0.8,0c0.4,0.3,0.6,0.6,1,1s0.7,0.8,1.1,1.2c0.2,0.2,0.2,0.5,0.1,0.7
	C680.6,216.6,680.6,216.6,680.5,216.7z"/>
<path class="st8" d="M664.5,233.2c4.5-2.7,11.3-6.5,3.1-13.1l-0.5-0.3c-1.5-1-6.2,3.4-8.8,5.8c-1.5,1.4-1.5,2.7-1.1,3.7
	C659.1,233.6,661.4,234.8,664.5,233.2z"/>
<path class="st4" d="M614.6,488.4c-0.2,0.3-0.5,0.5-0.8,0.4c-0.5,0-0.9-0.5-0.9-1c0.4-8.3-2.1-14.8-6.6-23.2
	c-9.5-17.8-37.7-47.2-54.5-61.5l-1.1-1c-4.5-3.8-9.1-7.7-12.2-12.7c-4-6.3-7-13.4-9.9-20.2c-0.6-1.3-1.1-2.6-1.7-3.9
	c-1.7-3.8-3.2-6.9-4.7-10c-4.8-9.9-8.6-17.8-8.9-32.7c-0.1-6.6,3.1-13,9.3-18.5c10.9-9.8,30.2-15.8,44.8-14c0.5,0.1,0.9,0.5,0.8,1
	c-0.1,0.5-0.5,0.9-1,0.8c-14.1-1.8-32.8,4-43.4,13.5c-5.8,5.1-8.8,11.1-8.6,17.1c0.2,14.6,3.8,21.9,8.7,32c1.5,3.1,3.1,6.3,4.7,10.1
	c0.6,1.3,1.1,2.6,1.7,3.9c2.9,6.8,5.9,13.8,9.8,20c3,4.7,7.5,8.5,11.8,12.2l1.1,1c16.9,14.4,45.4,44,54.9,62
	c3.8,7.2,7.3,14.5,6.8,24.1C614.7,488.2,614.6,488.3,614.6,488.4L614.6,488.4z"/>
<path class="st4" d="M662.3,292.7C662.3,292.7,662.2,292.7,662.3,292.7c-0.3-0.2-0.4-0.5-0.3-0.8c2.4-4.7,2.1-9.8-1-14.8
	c-0.1-0.2,0-0.5,0.1-0.6c0.2-0.2,0.6-0.2,0.9,0c3.3,5.4,3.6,10.9,1,16l0,0C662.8,292.7,662.5,292.8,662.3,292.7z"/>
<path class="st4" d="M662,293.1c-0.3,0.2-0.7,0.1-0.8-0.2c-3.3-5.2-2.3-11.9-0.3-16.4c0.1-0.3,0.5-0.5,0.8-0.3
	c0.3,0.1,0.4,0.5,0.3,0.8c-2.4,5.3-2.3,11.3,0.2,15.2c0.1,0.2,0.1,0.5,0,0.6C662.2,293,662.1,293,662,293.1z"/>
<path class="st4" d="M663,292.5c-0.1,0.1-0.2,0.2-0.4,0.3c-0.3,0.1-0.7-0.1-0.7-0.5c-0.4-2.4-0.6-4.9-0.7-7.4
	c-0.1-2.4-0.3-4.9-0.7-7.3c-0.1-0.3,0.1-0.7,0.5-0.7c0.3-0.1,0.7,0.1,0.7,0.5c0.4,2.5,0.7,5,0.7,7.5c0.1,2.4,0.3,4.8,0.7,7.2
	C663.1,292.2,663.1,292.3,663,292.5L663,292.5z"/>
<path class="st4" d="M668,289.2c-0.2,0.2-0.6,0.2-0.9,0c0,0,0,0,0,0c-0.2-0.2-0.2-0.6,0-0.8c3.6-3.9,4.6-8.9,2.9-14.5l0,0
	c-0.1-0.3,0.1-0.7,0.4-0.8c0.3-0.1,0.7,0.1,0.8,0.4c1.5,4.9,1,9.3-1.3,13.1C669.4,287.6,668.7,288.4,668,289.2z"/>
<path class="st4" d="M666.9,289.6C666.9,289.6,666.9,289.6,666.9,289.6c-0.3,0.1-0.7-0.1-0.8-0.4c-1.8-5.9,0.9-12.1,4-15.9
	c0.2-0.3,0.6-0.3,0.9-0.1s0.3,0.6,0.1,0.9c-3.7,4.5-5.2,10.3-3.8,14.8c0.1,0.2,0,0.3-0.1,0.5C667.2,289.5,667.1,289.6,666.9,289.6z"
	/>
<path class="st4" d="M667.5,289.4C667.5,289.4,667.5,289.4,667.5,289.4c-0.3,0-0.6-0.3-0.6-0.6c0.2-2.5,0.7-4.9,1.3-7.3
	c0.6-2.4,1-4.8,1.2-7.2c0,0,0,0,0,0c0-0.3,0.3-0.6,0.6-0.6c0,0,0,0,0,0c0.3,0,0.6,0.3,0.6,0.6c-0.2,2.5-0.7,5-1.3,7.4
	c-0.6,2.3-1,4.7-1.2,7.1c0,0.1,0,0.2-0.1,0.3C668,289.3,667.8,289.4,667.5,289.4z"/>
<path class="st4" d="M656,299.4c-3.3,4.7-8.3,7-14.6,6.6c0,0,0,0,0,0c-0.3,0-0.6-0.3-0.6-0.6c0-0.3,0.3-0.6,0.7-0.6
	c5.8,0.4,10.5-1.7,13.5-6c0,0,0,0,0,0c0.2-0.3,0.6-0.3,0.8-0.1C656.1,298.7,656.2,299.1,656,299.4L656,299.4z"/>
<path class="st4" d="M655.5,298.7c-4.7-0.3-10,2.4-13.6,7c-0.2,0.3-0.6,0.3-0.9,0.1c-0.3-0.2-0.3-0.6-0.1-0.9
	c3-3.9,8.5-7.9,14.6-7.4c0.3,0,0.6,0.3,0.6,0.7c0,0.1,0,0.2-0.1,0.3C655.9,298.6,655.7,298.7,655.5,298.7z"/>
<path class="st4" d="M655.7,299.6c-2.3,0.8-4.5,1.7-6.7,2.8c-2.2,1.1-4.6,2.1-6.9,2.9c-0.3,0-0.6-0.1-0.7-0.4
	c-0.1-0.3,0-0.7,0.3-0.8c2.3-0.8,4.6-1.7,6.8-2.8c2.2-1.1,4.5-2.1,6.8-2.8c0,0,0,0,0,0c0.3-0.1,0.7,0.1,0.8,0.4c0,0.2,0,0.3-0.1,0.5
	C655.9,299.5,655.8,299.6,655.7,299.6z"/>
<path class="st4" d="M643.1,315.5c-0.3,0.1-0.7-0.1-0.7-0.5c-0.1-0.3,0.1-0.7,0.5-0.7c5.7-1.1,9.7-4.4,11.5-9.4
	c0.1-0.3,0.4-0.4,0.7-0.3c0.3,0.1,0.5,0.4,0.5,0.7c-0.4,1-0.8,2-1.4,2.9C651.8,312,648.1,314.5,643.1,315.5z"/>
<path class="st4" d="M654.9,304.9c-4.6,0.9-9,4.9-11.3,10.3l0,0c-0.1,0.3-0.5,0.5-0.8,0.3c-0.3-0.1-0.5-0.5-0.3-0.8
	c1.9-4.6,6.1-9.9,12.2-11c0,0,0,0,0,0c0.3-0.1,0.6,0.2,0.7,0.5c0,0.1,0,0.3-0.1,0.4C655.2,304.7,655,304.8,654.9,304.9z"/>
<path class="st4" d="M655.3,305.6c-2,1.3-3.9,2.8-5.7,4.4c-1.9,1.7-3.9,3.2-6,4.6c0,0,0,0,0,0c-0.3,0.2-0.7,0.1-0.8-0.2
	c-0.2-0.3-0.1-0.7,0.2-0.9c2-1.3,4-2.8,5.8-4.5c1.8-1.6,3.8-3.1,5.8-4.5c0.3-0.2,0.7-0.1,0.9,0.2c0.1,0.2,0.1,0.4,0,0.6
	C655.4,305.5,655.4,305.6,655.3,305.6z"/>
<path class="st4" d="M657.5,296.5c-0.1,0.2-0.3,0.3-0.4,0.3c-0.3,0.1-0.6-0.2-0.7-0.5c-0.2-0.9-0.3-1.8-0.5-2.7
	c-0.1-0.3,0.1-0.7,0.5-0.7c0.3-0.1,0.7,0.1,0.7,0.5c0.2,0.9,0.4,1.9,0.5,2.7C657.6,296.2,657.6,296.4,657.5,296.5L657.5,296.5z"/>
<path class="st4" d="M656.2,292.3C656.2,292.3,656.2,292.3,656.2,292.3c-0.3,0.1-0.7-0.1-0.7-0.5c-0.4-1.7-0.9-3.5-1.5-5.4
	c-0.1-0.3,0.1-0.7,0.4-0.8c0.3-0.1,0.7,0.1,0.8,0.4c0.6,1.9,1.1,3.7,1.5,5.4c0,0.2,0,0.3-0.1,0.5
	C656.5,292.1,656.4,292.2,656.2,292.3z M654.2,285.1c-0.3,0.1-0.7-0.1-0.8-0.4c-0.5-1.7-1.1-3.4-1.8-5.3c-0.1-0.3,0.1-0.7,0.4-0.8
	c0,0,0,0,0,0c0.3-0.1,0.7,0.1,0.8,0.4c0.7,1.8,1.2,3.6,1.8,5.3c0.1,0.2,0,0.4-0.1,0.5C654.5,285,654.4,285.1,654.2,285.1z
	 M652.1,277.8c-0.1,0.1-0.2,0.2-0.3,0.3c-0.3,0.1-0.7,0-0.8-0.4c-0.6-1.6-1.2-3.3-1.9-5l-0.1-0.2c0,0,0,0,0,0
	c-0.1-0.3,0-0.7,0.3-0.8c0.3-0.1,0.7,0,0.8,0.4l0.1,0.3c0.7,1.7,1.3,3.4,1.9,5C652.3,277.4,652.3,277.6,652.1,277.8L652.1,277.8z
	 M649.5,270.8c-0.1,0.1-0.2,0.2-0.3,0.3c-0.3,0.1-0.7,0-0.8-0.3c-0.7-1.7-1.6-3.3-2.5-4.9l0,0c-0.2-0.3-0.1-0.7,0.2-0.8
	c0.3-0.2,0.7-0.1,0.8,0.2c0.9,1.6,1.8,3.3,2.5,5C649.6,270.4,649.6,270.7,649.5,270.8L649.5,270.8z M646,264.2
	c-0.1,0.1-0.1,0.2-0.2,0.2c0,0,0,0,0,0c-0.3,0.2-0.7,0.1-0.8-0.2c-1-1.6-2.1-3-3.2-4.5c-0.2-0.3-0.2-0.7,0.1-0.9
	c0.3-0.2,0.7-0.2,0.9,0.1c1.2,1.5,2.3,3,3.3,4.6C646.1,263.8,646.1,264.1,646,264.2L646,264.2z M641.5,258.2c0,0.1-0.1,0.1-0.2,0.2
	c-0.3,0.2-0.6,0.2-0.9,0c-1.2-1.4-2.5-2.7-3.9-4c-0.2-0.2-0.2-0.6,0-0.8c0.2-0.3,0.6-0.3,0.9-0.1c1.4,1.3,2.7,2.6,4,4
	C641.7,257.7,641.7,258,641.5,258.2L641.5,258.2z M636.2,253.1C636.2,253.1,636.2,253.1,636.2,253.1c-0.2,0.3-0.6,0.3-0.9,0.1
	c-1.4-1.1-2.8-2.3-4.4-3.4c0,0,0,0,0,0c-0.3-0.2-0.3-0.6-0.1-0.9c0,0,0,0,0,0c0.2-0.3,0.6-0.3,0.8-0.1c1.6,1.1,3.1,2.3,4.5,3.5
	C636.4,252.4,636.4,252.8,636.2,253.1L636.2,253.1z M630.3,248.6C630.3,248.6,630.3,248.6,630.3,248.6c-0.2,0.3-0.6,0.4-0.9,0.2
	c-1.3-0.9-2.6-1.7-4.1-2.6l-0.6-0.3c-0.3-0.2-0.4-0.6-0.2-0.8c0.2-0.3,0.6-0.4,0.8-0.2l0.6,0.3c1.5,0.9,2.9,1.8,4.2,2.7
	C630.4,247.9,630.5,248.2,630.3,248.6L630.3,248.6z M624,244.6c-0.2,0.3-0.5,0.4-0.8,0.2c-1.4-0.8-3-1.7-4.9-2.7c0,0,0,0,0,0
	c-0.3-0.2-0.4-0.5-0.2-0.8c0.2-0.3,0.5-0.4,0.8-0.3c1.9,1,3.5,1.9,4.9,2.7c0,0,0,0,0,0C624.1,243.9,624.2,244.3,624,244.6L624,244.6
	z M617.5,241C617.5,241,617.5,241,617.5,241c-0.2,0.3-0.5,0.4-0.8,0.3l-2.5-1.3l-2.4-1.3c-0.3-0.2-0.4-0.5-0.3-0.8
	c0.2-0.3,0.5-0.4,0.8-0.3l2.4,1.3c0.8,0.4,1.7,0.9,2.5,1.3C617.5,240.3,617.6,240.7,617.5,241L617.5,241L617.5,241z M610.8,237.5
	c-0.2,0.3-0.5,0.4-0.8,0.3c-1.9-1-3.5-1.9-4.9-2.7c-0.3-0.2-0.4-0.5-0.2-0.8c0,0,0,0,0,0c0.2-0.3,0.5-0.4,0.8-0.2
	c1.4,0.8,3,1.7,4.9,2.7c0,0,0,0,0,0C610.9,236.9,611,237.2,610.8,237.5L610.8,237.5L610.8,237.5z M604.4,233.9
	c-0.2,0.3-0.6,0.4-0.8,0.2l-0.6-0.4c-1.5-0.9-2.8-1.8-4.1-2.6c0,0-0.1,0-0.1-0.1c-0.3-0.2-0.3-0.6-0.1-0.9c0.2-0.3,0.6-0.3,0.9-0.1
	c1.3,0.9,2.6,1.7,4.1,2.6l0.6,0.4C604.4,233.2,604.5,233.6,604.4,233.9L604.4,233.9z M598.1,229.9c-0.2,0.3-0.6,0.3-0.9,0.1
	c-1.6-1.1-3.1-2.3-4.4-3.5c-0.2-0.2-0.3-0.6-0.1-0.8c0.2-0.3,0.6-0.3,0.9-0.1c1.3,1.2,2.8,2.3,4.3,3.4
	C598.2,229.3,598.3,229.6,598.1,229.9L598.1,229.9z M592.3,225.2c0,0.1,0,0.1-0.1,0.2c0,0,0,0,0,0c-0.2,0.2-0.6,0.2-0.8,0
	c-1.4-1.3-2.7-2.6-3.9-4.1c-0.2-0.3-0.2-0.6,0.1-0.9c0,0,0,0,0,0c0.3-0.2,0.6-0.2,0.9,0.1c1.2,1.4,2.5,2.7,3.8,4
	C592.4,224.6,592.5,225,592.3,225.2L592.3,225.2z M587.3,219.7c0,0.1,0,0.1,0,0.2c0,0,0,0,0,0c-0.3,0.2-0.6,0.2-0.9-0.1
	c-1.2-1.5-2.2-3-3.2-4.7l0,0c-0.2-0.3-0.1-0.7,0.2-0.8c0.3-0.2,0.7-0.1,0.8,0.2c0.9,1.6,2,3.1,3.1,4.5
	C587.5,219.3,587.5,219.5,587.3,219.7L587.3,219.7z"/>
<path class="st4" d="M583.2,213.4c-0.1,0.1-0.1,0.2-0.2,0.2c-0.3,0.2-0.7,0.1-0.8-0.2c-0.5-0.8-0.9-1.7-1.3-2.5
	c-0.1-0.3,0-0.7,0.3-0.8c0,0,0,0,0,0c0.3-0.1,0.7,0,0.8,0.3c0.4,0.8,0.8,1.6,1.2,2.4C583.3,213,583.3,213.3,583.2,213.4L583.2,213.4
	z"/>
<path class="st4" d="M639.6,257.7l-2.7,0.4l0,0c-0.3,0-0.6-0.2-0.7-0.5c0-0.3,0.2-0.6,0.5-0.7l2.7-0.4c0,0,0,0,0,0
	c0.3-0.1,0.6,0.2,0.7,0.5c0,0.1,0,0.3-0.1,0.4C639.9,257.6,639.8,257.7,639.6,257.7z"/>
<path class="st4" d="M635,258.4c-2,0.3-3.8,0.5-5.5,0.7c-0.3,0-0.6-0.2-0.7-0.5c0,0,0,0,0,0c0-0.3,0.2-0.6,0.6-0.7
	c1.7-0.2,3.4-0.4,5.4-0.7c0.1,0,0.3,0,0.4,0.1c0.3,0.2,0.4,0.6,0.2,0.8C635.4,258.2,635.2,258.4,635,258.4z M627.7,259.2
	c-1.9,0.2-3.8,0.3-5.5,0.4c0,0,0,0,0,0c-0.3,0-0.6-0.3-0.6-0.6c0,0,0,0,0,0c0-0.3,0.3-0.6,0.6-0.6c1.7-0.1,3.5-0.2,5.4-0.4
	c0.3,0,0.6,0.2,0.7,0.6c0,0.1,0,0.3-0.1,0.4C628.1,259.1,627.9,259.2,627.7,259.2z M620.4,259.6c-1.9,0-3.8,0-5.5-0.2c0,0,0,0,0,0
	c-0.3,0-0.6-0.3-0.6-0.6c0-0.3,0.3-0.6,0.7-0.6c1.7,0.1,3.5,0.1,5.4,0.1c0.3,0,0.6,0.3,0.6,0.6c0,0.1,0,0.2-0.1,0.3
	C620.8,259.5,620.6,259.6,620.4,259.6z M613.6,259c-0.1,0.2-0.3,0.3-0.6,0.3c-1.8-0.2-3.7-0.5-5.5-1c-0.3-0.1-0.5-0.4-0.4-0.7
	c0.1-0.3,0.4-0.5,0.7-0.5c1.7,0.4,3.5,0.8,5.3,0.9c0,0,0,0,0,0c0.3,0,0.6,0.3,0.5,0.7C613.7,258.8,613.7,258.9,613.6,259L613.6,259z
	"/>
<path class="st4" d="M605.8,257.8c-0.9-0.3-1.8-0.6-2.6-1c-0.3-0.1-0.4-0.5-0.3-0.8c0.1-0.3,0.5-0.4,0.8-0.3
	c0.8,0.4,1.7,0.7,2.5,0.9c0,0,0,0,0,0c0.3,0.1,0.5,0.4,0.4,0.8c0,0,0,0.1-0.1,0.1C606.3,257.8,606.1,257.9,605.8,257.8z"/>
<path class="st4" d="M616.9,209.5c-0.3,0.2-0.7,0.1-0.9-0.2c-0.5-0.8-1-1.5-1.5-2.2l0,0c-0.2-0.3-0.1-0.7,0.1-0.9
	c0.3-0.2,0.7-0.1,0.9,0.1c0.6,0.8,1.1,1.5,1.6,2.3c0.1,0.2,0.1,0.5,0,0.6C617.1,209.4,617,209.5,616.9,209.5z"/>
<path class="st4" d="M623.2,239.3c-0.3,0-0.6-0.4-0.5-0.7c0.2-1.9,0.2-3.8,0.2-5.7c0-0.3,0.3-0.6,0.6-0.6c0.3,0,0.6,0.3,0.6,0.6
	c0,2,0,3.9-0.2,5.9c0,0.1,0,0.2-0.1,0.3C623.7,239.2,623.5,239.3,623.2,239.3z M624,231.3c-0.1,0.2-0.3,0.3-0.5,0.3
	c-0.3,0-0.6-0.2-0.6-0.6c-0.1-1.9-0.3-3.8-0.6-5.7c-0.1-0.3,0.2-0.7,0.5-0.7c0.3-0.1,0.7,0.2,0.7,0.5c0.3,1.9,0.6,3.9,0.7,5.8
	C624.1,231,624,231.2,624,231.3L624,231.3z M622.9,223.6c-0.1,0.2-0.2,0.3-0.4,0.3c-0.3,0.1-0.7-0.1-0.7-0.5
	c-0.4-1.9-0.9-3.7-1.5-5.5c0,0,0,0,0,0c-0.1-0.3,0.1-0.7,0.4-0.8c0.3-0.1,0.7,0.1,0.8,0.4c0.6,1.8,1.2,3.7,1.6,5.6
	C623.1,223.3,623.1,223.5,622.9,223.6L622.9,223.6z M620.7,216.2c-0.1,0.1-0.2,0.2-0.3,0.3c0,0,0,0,0,0c-0.3,0.1-0.7,0-0.8-0.3
	c-0.7-1.8-1.5-3.5-2.5-5.1c0,0,0,0,0,0c-0.2-0.3-0.1-0.7,0.2-0.8c0,0,0,0,0,0c0.3-0.2,0.7-0.1,0.8,0.2c1,1.7,1.8,3.5,2.6,5.3
	C620.8,215.8,620.8,216,620.7,216.2L620.7,216.2z"/>
<path class="st4" d="M622.5,243.9c-0.3-0.1-0.5-0.4-0.5-0.7c0.2-0.8,0.3-1.8,0.4-2.7c0.1-0.3,0.3-0.5,0.6-0.5c0.3,0,0.6,0.3,0.6,0.6
	c-0.1,0.9-0.3,1.9-0.5,2.8c0,0.1,0,0.1-0.1,0.2C623,243.8,622.8,243.9,622.5,243.9z"/>
<path class="st4" d="M593.6,227.9c-4.6-2.7-9.7-2.6-14.8,0.2c0,0,0,0,0,0c-0.3,0.2-0.7,0-0.8-0.3c-0.2-0.3-0.1-0.7,0.2-0.8
	c5.5-3,11-3.1,16-0.2c0,0,0,0,0,0c0.3,0.2,0.4,0.6,0.2,0.8C594.2,227.9,593.9,228,593.6,227.9z"/>
<path class="st4" d="M594.6,228.6c-5.4,3-12,1.6-16.4-0.6l0,0c-0.3-0.2-0.4-0.5-0.3-0.8c0.2-0.3,0.5-0.4,0.8-0.3
	c5.2,2.6,11.1,2.9,15.2,0.6c0.2-0.1,0.4-0.1,0.6,0c0.3,0.2,0.4,0.6,0.2,0.8C594.8,228.5,594.7,228.6,594.6,228.6z"/>
<path class="st4" d="M594,227.9c-2.4,0.3-4.9,0.4-7.4,0.3c-2.4-0.1-4.9,0-7.3,0.3c-0.3,0-0.6-0.2-0.7-0.5s0.2-0.6,0.5-0.7
	c2.5-0.3,5-0.4,7.5-0.3c2.4,0.1,4.8,0,7.2-0.3c0.3,0,0.6,0.2,0.7,0.5c0,0.1,0,0.3-0.1,0.4C594.3,227.8,594.2,227.9,594,227.9z"/>
<path class="st4" d="M610.4,237.9c-5.2-1.1-10,0.7-13.9,5c-0.2,0.2-0.6,0.2-0.9,0c0,0,0,0,0,0c-0.2-0.2-0.2-0.6,0-0.8
	c4.2-4.6,9.4-6.5,15.1-5.4c0.3,0.1,0.5,0.4,0.5,0.7c0,0.1,0,0.1-0.1,0.2C610.9,237.9,610.7,238,610.4,237.9z"/>
<path class="st4" d="M611.6,238.3c-4.1,4.6-10.8,5.5-15.7,4.8c0,0-0.1,0-0.1,0c-0.3-0.1-0.5-0.4-0.4-0.8c0.1-0.3,0.4-0.5,0.8-0.4
	c5.8,0.8,11.5-0.9,14.6-4.4c0.2-0.3,0.6-0.3,0.9-0.1S611.9,237.9,611.6,238.3L611.6,238.3z"/>
<path class="st4" d="M610.8,237.8c-2.2,1.1-4.5,2-6.9,2.7c-2.3,0.7-4.6,1.6-6.8,2.7l0,0c-0.3,0.2-0.7,0-0.8-0.3
	c-0.2-0.3,0-0.7,0.3-0.8c2.3-1.1,4.6-2,7-2.8c2.3-0.7,4.5-1.6,6.7-2.6c0,0,0,0,0,0c0.3-0.1,0.7,0,0.8,0.3c0.1,0.2,0.1,0.4,0,0.6
	C611,237.7,610.9,237.8,610.8,237.8z"/>
<path class="st4" d="M622.5,258.8c-0.3,0.1-0.7,0-0.8-0.3c-2.2-4.8-6.4-7.7-12.2-8.4c-0.3-0.1-0.5-0.3-0.5-0.6
	c0-0.3,0.3-0.6,0.6-0.6c6.2,0.7,10.8,3.8,13.2,9.1c0.1,0.2,0.1,0.4,0,0.6C622.8,258.7,622.6,258.8,622.5,258.8z"/>
<path class="st4" d="M622.1,259.8c-6.1-0.6-10.8-5.5-13.1-9.9c-0.1-0.3,0-0.6,0.2-0.7c0.3-0.2,0.7-0.1,0.9,0.2
	c2.7,5.1,7.5,8.8,12.1,9.2c0.3,0,0.6,0.3,0.5,0.7c0,0.1,0,0.2-0.1,0.3C622.6,259.7,622.3,259.8,622.1,259.8z"/>
<path class="st4" d="M622.8,258.6c-0.1,0.3-0.5,0.5-0.8,0.3c-2.2-1.2-4.2-2.5-6.2-4c-2-1.5-4-2.8-6.2-4c-0.3-0.2-0.4-0.5-0.3-0.8
	c0.2-0.3,0.5-0.4,0.8-0.3c2.2,1.2,4.3,2.5,6.3,4.1c1.9,1.4,3.9,2.7,6.1,3.9c0,0,0,0,0,0C622.9,257.9,623,258.3,622.8,258.6
	L622.8,258.6C622.8,258.6,622.8,258.6,622.8,258.6z"/>
<path class="st4" d="M622.8,273.7c-0.3,0-0.6-0.2-0.7-0.5c-0.9-6.2,1-11.4,5.4-15.1c0.3-0.2,0.7-0.2,0.9,0.1
	c0.2,0.3,0.2,0.7-0.1,0.9c-4.1,3.4-5.8,8.2-5,13.9c0,0.1,0,0.3-0.1,0.4C623.2,273.6,623,273.7,622.8,273.7z"/>
<path class="st4" d="M623.2,273.5c-0.2,0.2-0.6,0.2-0.9,0c0,0,0,0,0,0c-0.2-0.2-0.2-0.6,0-0.8c4.3-3.9,6.6-9.4,5.9-14.1
	c-0.1-0.3,0.2-0.6,0.5-0.7c0.3-0.1,0.6,0.2,0.7,0.5c0.5,3.6-0.4,7.3-2.3,10.4C626,270.6,624.7,272.2,623.2,273.5z"/>
<path class="st4" d="M623.3,273.2c-0.3-0.1-0.5-0.4-0.5-0.7c0.6-2.4,1.4-4.8,2.3-7.1c0.9-2.2,1.7-4.5,2.2-6.8c0,0,0,0,0-0.1
	c0.1-0.3,0.4-0.5,0.8-0.4c0.3,0.1,0.5,0.4,0.4,0.8c-0.6,2.4-1.3,4.7-2.3,7c-0.9,2.3-1.7,4.6-2.3,7c0,0.1,0,0.1-0.1,0.2
	C623.8,273.1,623.5,273.2,623.3,273.2z"/>
<path class="st4" d="M624.4,232.6c-0.3,0.1-0.7,0-0.8-0.3c0,0,0,0,0,0c-0.1-0.3,0-0.7,0.3-0.8c4.9-2,8-6.1,8.8-11.9
	c0.1-0.3,0.4-0.6,0.7-0.5c0.3,0.1,0.6,0.4,0.5,0.7c-0.3,2.3-1.1,4.6-2.3,6.7C630,229.2,627.5,231.4,624.4,232.6z"/>
<path class="st4" d="M633.7,220.2c-5.3,2.5-9.1,7.1-9.8,11.7c-0.1,0.3-0.4,0.6-0.7,0.5c0,0,0,0,0,0c-0.3-0.1-0.6-0.4-0.5-0.7
	c0.9-6.1,6-10.5,10.4-12.6c0.2-0.1,0.4-0.1,0.6,0c0.3,0.2,0.4,0.6,0.2,0.8C633.9,220.1,633.8,220.2,633.7,220.2z"/>
<path class="st4" d="M628.9,226.4c-1.5,1.9-2.9,3.8-4.1,5.9c0,0,0,0,0,0c-0.2,0.3-0.5,0.4-0.8,0.2c0,0,0,0,0,0
	c-0.3-0.2-0.4-0.5-0.2-0.8c1.3-2.1,2.7-4.1,4.2-6c1.6-1.9,3-3.9,4.2-6c0.2-0.3,0.5-0.4,0.8-0.2c0.3,0.2,0.4,0.5,0.2,0.8
	c-0.1,0.2-0.3,0.5-0.4,0.7C631.6,222.9,630.3,224.7,628.9,226.4z"/>
<path class="st4" d="M623.2,237.8C623.2,237.8,623.2,237.8,623.2,237.8c-0.3,0.2-0.7,0.1-0.8-0.2c-2.9-4.4-7.5-6.7-13.3-6.5
	c0,0,0,0,0,0c-0.3,0-0.6-0.3-0.6-0.6c0,0,0,0,0,0c0-0.3,0.3-0.6,0.6-0.6c6.3-0.2,11.2,2.2,14.4,7.1c0.1,0.2,0.1,0.5,0,0.6
	C623.3,237.6,623.3,237.7,623.2,237.8z"/>
<path class="st4" d="M622.9,238.7c-6.2,0.3-11.5-3.9-14.3-7.9c0,0,0,0,0,0c-0.2-0.3-0.1-0.7,0.1-0.9c0,0,0,0,0,0
	c0.3-0.2,0.6-0.1,0.8,0.2c3.4,4.7,8.6,7.6,13.3,7.4c0,0,0,0,0,0c0.3,0,0.6,0.3,0.6,0.6c0,0.1,0,0.2-0.1,0.3
	C623.3,238.6,623.1,238.7,622.9,238.7z"/>
<path class="st4" d="M622.6,237.8c-2.3-0.9-4.6-1.9-6.7-3.1c-2.1-1.2-4.4-2.2-6.7-3c-0.3-0.1-0.5-0.5-0.4-0.8
	c0.1-0.3,0.5-0.5,0.8-0.4c2.4,0.9,4.6,1.9,6.8,3.1c2.1,1.2,4.3,2.2,6.5,3c0.3,0.1,0.5,0.5,0.4,0.8l-0.1,0.1
	C623.2,237.8,622.9,237.9,622.6,237.8z"/>
<path class="st8" d="M558.8,311.4c-0.2,0.2-0.6,0.2-0.9,0c-0.3-0.3-0.7-0.5-1.1-0.7c-0.3-0.1-0.4-0.4-0.3-0.7
	c0.1-0.3,0.4-0.6,0.7-0.5c0.6,0.2,1.1,0.6,1.6,1c0.2,0.2,0.2,0.5,0.1,0.8L558.8,311.4z"/>
<path class="st8" d="M555,342.8c-0.2,0.3-0.5,0.4-0.8,0.2c0,0,0,0,0,0c-0.3-0.1-0.4-0.5-0.3-0.8c2.5-5.7,5.4-11.7,8.2-17.5
	c6-12.3,12.1-24.9,16-37.5c0.1-0.3,0.4-0.5,0.8-0.4c0.3,0.1,0.5,0.4,0.4,0.8c-3.9,12.6-10.1,25.3-16.1,37.6
	C560.4,331,557.5,337,555,342.8C555,342.7,555,342.8,555,342.8C555,342.8,555,342.8,555,342.8z"/>
<path class="st8" d="M591,302.4c-0.1,0.2-0.3,0.3-0.4,0.3c-0.3,0.1-0.7-0.2-0.7-0.5c-0.7-4.4-1.5-12.5,0.8-18.2c0,0,0,0,0,0
	c0.1-0.3,0.5-0.5,0.8-0.3c0.3,0.1,0.5,0.5,0.4,0.8c-2.2,5.5-1.2,14.1-0.7,17.5C591.1,302.1,591.1,302.2,591,302.4L591,302.4z"/>
<path class="st8" d="M586.7,273c-2.4-1.3-4.7,6-5.7,9.8C585.5,284.7,586.9,277.4,586.7,273z"/>
<path class="st8" d="M604.6,286.7c-0.1-0.9-0.2-1.9-0.2-2.8c-0.1-2.2,0-5.6-0.7-7.7c-0.2-1-0.8-1.8-1.8-2.1c-1-0.3-2-0.3-2.3,0.3
	C599,280.7,598.1,289.2,604.6,286.7z"/>
<path class="st8" d="M605.4,297.5c-0.8,0-1.6,0.1-2.3,0.4c0,0,0,0,0,0c-0.3,0.1-0.7,0-0.8-0.4c0,0,0,0,0,0c-0.1-0.3,0-0.7,0.3-0.8
	c0.9-0.4,1.8-0.6,2.8-0.5c0,0,0,0,0,0c0.3,0,0.6,0.3,0.6,0.6c0,0.1,0,0.2-0.1,0.3C605.9,297.4,605.7,297.5,605.4,297.5z"/>
<path class="st8" d="M606.2,300.3c-0.4,0.1-0.7,0.1-1.1,0.1h-0.5c-0.3,0-0.6-0.2-0.7-0.5c0,0,0,0,0,0c0-0.3,0.2-0.6,0.6-0.7h0.5
	c0.3,0,0.6-0.1,0.9-0.1c0.3-0.1,0.6,0.2,0.7,0.5c0,0.2,0,0.3-0.1,0.4C606.5,300.1,606.4,300.3,606.2,300.3z"/>
<path class="st8" d="M587.2,309.9l-3.3-2c-0.3-0.2-0.4-0.6-0.2-0.8c0.2-0.3,0.6-0.4,0.8-0.2l3.3,2c0,0,0,0,0,0
	c0.3,0.2,0.4,0.5,0.2,0.8C587.9,310,587.5,310.1,587.2,309.9z"/>
<path class="st8" d="M582.1,326.9c-0.5,0-0.9,0-1.4,0h-0.5c-0.3,0-0.6-0.3-0.6-0.6c0-0.3,0.3-0.6,0.6-0.6h0.5c0.4,0,0.8,0,1.2,0
	c0.3,0,0.6,0.2,0.6,0.6c0,0.1,0,0.2-0.1,0.4C582.5,326.8,582.4,326.9,582.1,326.9z"/>
<path class="st8" d="M587.9,338.1C587.9,338.1,587.9,338.1,587.9,338.1c-0.3,0-0.6-0.2-0.7-0.5v-0.1c-0.2-1.3-0.1-2.6,0.3-3.8
	c0.1-0.3,0.5-0.4,0.8-0.3s0.4,0.5,0.3,0.8c-0.4,1-0.4,2.1-0.2,3.2v0.1c0,0.1,0,0.3-0.1,0.4C588.2,338,588.1,338.1,587.9,338.1z"/>
<path class="st8" d="M569,366C569,366,569,366,569,366c-0.2,0.3-0.6,0.3-0.9,0.1c-1.5-1.3-3.3-2.5-5-3.6c-7-4.8-14.2-9.7-9.2-20.3
	c0,0,0,0,0,0c0.1-0.3,0.5-0.4,0.8-0.3c0,0,0,0,0,0c0.3,0.1,0.4,0.5,0.3,0.8c-4.6,9.6,1.9,14,8.8,18.7c1.7,1.2,3.5,2.4,5.1,3.7
	C569.2,365.3,569.2,365.7,569,366L569,366z"/>
<path class="st8" d="M545.2,308.7c-0.2,0-0.3,0.1-0.5,0.2c-0.1,0.1-0.3,0.2-0.5,0.3c-0.3,0.1-0.7,0-0.8-0.3c0,0,0,0,0,0
	c-0.1-0.3,0-0.7,0.3-0.8l0.3-0.2c0.3-0.3,0.7-0.4,1.2-0.4c0.1,0,0.2,0,0.3,0.1c0.3,0.2,0.4,0.6,0.2,0.8
	C545.6,308.6,545.4,308.7,545.2,308.7z"/>
<path class="st8" d="M544.5,311c-0.2,0-0.4,0.1-0.6,0.2c-0.2,0.1-0.4,0.2-0.6,0.3c-0.3,0.1-0.7-0.1-0.8-0.4c0,0,0,0,0,0
	c-0.1-0.3,0.1-0.7,0.4-0.8c0.2-0.1,0.3-0.1,0.5-0.2c0.3-0.2,0.7-0.3,1-0.3c0.1,0,0.3,0,0.4,0.1c0.3,0.2,0.4,0.6,0.2,0.8
	C544.9,310.8,544.7,310.9,544.5,311z"/>
<path class="st4" d="M638,491c-0.5,0.2-1-0.1-1.2-0.6c-3.4-10.2-11.3-34.1-23.2-42.2c-3.4-2.1-6.9-3.8-10.7-5.2
	c-5.6-2.3-11.3-4.6-15.2-8.8c-3.5-3.9-4.8-9-6-13.9c-1.3-5.1-2.5-10-6-13.5c-3.7-3.7-8.8-6.7-13.7-9.5c-3-1.8-6.1-3.6-8.8-5.5
	c-13.3-9.6-28.4-35.3-27-52.7c0.7-9.4,10.2-16.5,20.2-24c8.9-6.7,18.1-13.6,20.5-22.1c0.1-0.5,0.7-0.8,1.1-0.6s0.8,0.7,0.6,1.1
	c-2.6,9.1-12.1,16.2-21.2,23.1c-9.7,7.3-18.8,14.1-19.4,22.6c-1.3,16.4,13.3,41.8,26.2,51.1c2.6,1.9,5.5,3.6,8.6,5.4
	c5,2.9,10.1,5.9,14,9.8c3.9,3.9,5.2,9.2,6.5,14.4c1.2,4.9,2.4,9.6,5.6,13.1c3.6,3.9,9.1,6.2,14.5,8.4c3.8,1.4,7.5,3.2,11,5.4
	c12.4,8.5,20.4,32.8,23.9,43.2c0.1,0.3,0.1,0.5-0.1,0.8C638.4,490.7,638.2,490.9,638,491z"/>
<path class="st9" d="M591.8,283.3c0.6-1.8,1.5-3.5,2.6-4.9c0.2-0.2,0.3-0.4,0.5-0.6c-13.3,5.8-31.6,14.4-30.9,17.5
	C564.8,298.1,579.7,290.2,591.8,283.3z M565.2,294.6c-0.2-0.4,1.2-1.6,3.2-2.8s3.8-1.8,4-1.4s-1.2,1.6-3.2,2.8
	C567.2,294.3,565.5,294.9,565.2,294.6z"/>
<path class="st9" d="M603.7,276.3c2-1.2,3.3-2,3.3-2s4.9-3.1,1.2-2c-0.1,0-2.2,0.9-5.5,2.2c0.5,0.4,0.9,1,1,1.6
	C603.7,276.2,603.7,276.3,603.7,276.3z"/>
<rect x="488.9" y="190.1" transform="matrix(0.5159 -0.8566 0.8566 0.5159 82.0583 527.6176)" class="st10" width="38" height="2.2"/>
<path class="st6" d="M522.3,190.6c-5.7-2.9-3.2-3.7-2.5-6.4s-6.2-5-9.4-6.1s7.9-18.7,9.7-19s21.2,12,21.2,12
	C531.6,179,522.3,190.6,522.3,190.6z"/>
<path class="st6" d="M515.9,201.3c-5.2-3.7-4.7-1.1-6.9,0.7s-7.3-3.1-9.8-5.4s-12.9,15.8-12.3,17.4s20.3,12.7,20.3,12.7
	C509.7,214.5,515.8,201.3,515.9,201.3z"/>
<path class="st6" d="M517,186.8c1.3-3.1-3.1-4.8-5.6-6.3c0,0,0,0,0,0c-1.2-0.9-3-0.7-3.9,0.5l-6.7,11.1c0,0,0,0,0,0
	c-0.6,1.4,0,3.1,1.4,3.7c2.5,1.5,6.1,4.6,8.2,2.1L517,186.8z"/>
<path class="st1" d="M579,208C579,208,579,208,579,208c-0.2,0.3-0.6,0.3-0.9,0.1c-6.2-4.3-14.7-5.3-20.7-2.3c-0.3,0.1-0.7,0-0.8-0.3
	c-0.1-0.3,0-0.7,0.3-0.8c6.4-3.1,15.4-2.2,21.9,2.4C579.1,207.4,579.2,207.7,579,208C579,208,579,208,579,208z"/>
<path class="st1" d="M579,208.1c-2,2.6-5,4-8.3,4c-5.4,0-10.5-2.4-14-6.4l0,0c-0.2-0.3-0.2-0.6,0.1-0.9c0.3-0.2,0.6-0.2,0.9,0.1
	c3.3,3.7,8,5.9,13,5.9c2.9,0,5.6-1.3,7.3-3.5c0.2-0.3,0.6-0.3,0.9-0.1C579.1,207.4,579.2,207.7,579,208.1L579,208.1z"/>
<path class="st1" d="M578.3,208.3c-4.7-1.4-11.6-1.8-17.1-2.1c-1.4-0.1-2.8-0.2-4-0.2c-0.3-0.1-0.5-0.3-0.5-0.6
	c0-0.3,0.2-0.6,0.6-0.6c1.2,0.1,2.6,0.2,4,0.3c5.6,0.3,12.6,0.8,17.4,2.1c0,0,0,0,0,0c0.3,0.1,0.5,0.4,0.4,0.8c0,0.1,0,0.1-0.1,0.1
	C578.8,208.2,578.6,208.4,578.3,208.3z"/>
<path class="st1" d="M577,209.8c-5.8,0.7-12.6-0.6-19.2-3.6c0,0,0,0,0,0c-0.3-0.1-0.4-0.5-0.3-0.8c0.1-0.3,0.5-0.4,0.8-0.3
	c6.3,2.9,12.9,4.2,18.5,3.5c0.3,0,0.6,0.2,0.7,0.5c0,0.1,0,0.3-0.1,0.4C577.4,209.7,577.2,209.8,577,209.8z"/>
<path class="st1" d="M579.6,208.6C579.6,208.6,579.6,208.6,579.6,208.6c-0.3-0.1-0.5-0.4-0.5-0.7c1.7-7.3-0.5-15.5-5.5-20
	c-0.3-0.2-0.3-0.6,0-0.9s0.6-0.3,0.9,0c5.3,4.7,7.7,13.5,5.9,21.2c0,0.1,0,0.1-0.1,0.2C580.1,208.6,579.8,208.7,579.6,208.6z"/>
<path class="st1" d="M579.6,208.7c-3.1-0.9-5.7-3.2-6.8-6.2c-2-5-1.7-10.6,0.7-15.3c0.2-0.3,0.5-0.4,0.8-0.2
	c0.3,0.2,0.4,0.5,0.2,0.8c-2.2,4.4-2.5,9.6-0.7,14.3c1,2.7,3.3,4.7,6,5.5c0,0,0,0,0,0c0.3,0.1,0.5,0.4,0.4,0.7c0,0.1,0,0.1-0.1,0.2
	C580.1,208.6,579.8,208.7,579.6,208.7z"/>
<path class="st1" d="M579.8,208.7C579.8,208.7,579.8,208.7,579.8,208.7c-0.3,0-0.6-0.2-0.7-0.5c-0.5-4.9-2.7-11.4-4.5-16.7
	c-0.4-1.4-0.9-2.6-1.3-3.8c-0.1-0.3,0.1-0.7,0.4-0.8c0,0,0,0,0,0c0.3-0.1,0.7,0.1,0.7,0.4c0.4,1.2,0.8,2.4,1.2,3.8
	c1.8,5.4,4,12,4.5,17c0,0.1,0,0.3-0.1,0.4C580.1,208.6,580,208.7,579.8,208.7z"/>
<path class="st1" d="M578,207.8c-0.3,0.2-0.7,0.1-0.8-0.2c-2.8-5.1-4.2-12-3.8-19.1c0-0.3,0.3-0.5,0.6-0.5c0.3,0,0.6,0.2,0.7,0.6
	c-0.3,7,0.9,13.5,3.7,18.5c0.1,0.2,0.1,0.4,0,0.6C578.2,207.7,578.1,207.8,578,207.8z"/>
<path class="st1" d="M580.5,208.8C580.5,208.8,580.5,208.8,580.5,208.8c-0.3,0.1-0.7-0.1-0.8-0.4c-0.1-0.3,0-0.7,0.4-0.8
	c7.1-2.5,12.8-8.9,13.8-15.5c0.1-0.3,0.4-0.6,0.7-0.5c0.3,0.1,0.6,0.4,0.5,0.7c-0.4,2.3-1.2,4.6-2.5,6.6
	C589.8,203.4,585.6,206.9,580.5,208.8z"/>
<path class="st1" d="M594.6,192.8c-5,0.5-9.4,3.2-12.4,7.2c-1.7,2.3-2.1,5.3-1.3,8c0.1,0.3-0.1,0.7-0.4,0.8c0,0,0,0,0,0
	c-0.3,0.1-0.7-0.1-0.8-0.4c-1-3.1-0.4-6.5,1.5-9.1c3.1-4.4,7.9-7.2,13.3-7.7c0.3,0,0.6,0.2,0.7,0.6c0,0.1,0,0.3-0.1,0.4
	C594.9,192.7,594.8,192.8,594.6,192.8z"/>
<path class="st1" d="M595,192.6c-0.8,0.9-1.6,2-2.5,3.1c-3.5,4.4-7.9,9.9-11.8,13c-0.3,0.2-0.7,0.2-0.9-0.1
	c-0.2-0.3-0.2-0.7,0.1-0.9c3.8-3.1,8.1-8.5,11.6-12.8l2.5-3.1c0.2-0.3,0.6-0.3,0.9-0.1c0.3,0.2,0.3,0.6,0.1,0.9L595,192.6z"/>
<path class="st1" d="M593.9,193.3c-6,3.5-10.8,8.1-13.5,13.1c-0.2,0.3-0.5,0.4-0.8,0.2c-0.3-0.2-0.4-0.5-0.2-0.8
	c2.8-5.2,7.8-10,14-13.6c0.2-0.1,0.4-0.1,0.6,0c0.3,0.2,0.4,0.5,0.2,0.8C594.1,193.2,594,193.2,593.9,193.3z"/>
<path class="st1" d="M600.3,213.9c-6.7,2.4-15.5,0.3-21.5-5c0,0,0,0,0,0c-0.2-0.2-0.2-0.6,0-0.8c0,0,0,0,0,0c0.2-0.2,0.6-0.2,0.8,0
	c5.6,5,13.9,7,20.2,4.8c0,0,0,0,0,0c0.3-0.1,0.7,0.1,0.8,0.4c0.1,0.2,0.1,0.4,0,0.5C600.6,213.9,600.5,213.9,600.3,213.9z"/>
<path class="st1" d="M600.5,214C600.5,214,600.5,214,600.5,214c-0.3,0.2-0.7,0.1-0.8-0.2c-2.8-4.1-7.3-6.8-12.2-7.4
	c-2.8-0.4-5.7,0.6-7.7,2.6c-0.2,0.2-0.6,0.2-0.9,0c-0.2-0.2-0.2-0.6,0-0.9c2.3-2.3,5.5-3.4,8.7-3c5.3,0.7,10.1,3.6,13.1,8
	c0.1,0.2,0.1,0.5,0,0.6C600.7,213.8,600.6,213.9,600.5,214z"/>
<path class="st1" d="M600,214l-3.9-0.7c-5.5-1-12.4-2.2-17-4.2l0,0c-0.3-0.1-0.5-0.5-0.3-0.8s0.5-0.5,0.8-0.3
	c4.5,1.9,11.3,3.1,16.8,4.1c1.5,0.2,2.8,0.5,4,0.7c0,0,0,0,0,0c0.3,0.1,0.5,0.4,0.5,0.7c0,0.1,0,0.1-0.1,0.2
	C600.6,214,600.3,214.1,600,214z"/>
<path class="st1" d="M599,213.5c-6-3.7-12.3-5.7-18-5.7c0,0,0,0,0,0c-0.3,0-0.6-0.3-0.6-0.6c0-0.3,0.3-0.6,0.6-0.6
	c5.9,0,12.5,2.1,18.6,5.9c0.3,0.2,0.4,0.6,0.2,0.8C599.6,213.6,599.3,213.6,599,213.5z"/>
<path class="st1" d="M573.4,229c-0.3,0.1-0.7-0.1-0.8-0.4c-2.1-6.8,0.3-15.5,5.8-21.3c0.2-0.2,0.5-0.2,0.8,0
	c0.3,0.2,0.3,0.6,0.1,0.9c-5.2,5.4-7.5,13.7-5.5,20.1c0.1,0.2,0,0.3-0.1,0.5C573.6,228.9,573.5,229,573.4,229z"/>
<path class="st1" d="M573.5,229C573.5,229,573.5,229,573.5,229c-0.3,0.2-0.7,0.1-0.8-0.2c-0.2-0.3-0.1-0.7,0.2-0.8
	c4.2-2.7,7.1-7,7.9-11.9c0.5-2.8-0.4-5.7-2.4-7.8c-0.2-0.2-0.2-0.6,0-0.9c0,0,0,0,0,0c0.2-0.2,0.6-0.2,0.8,0
	c2.2,2.3,3.2,5.6,2.7,8.8c-0.3,2.3-1.2,4.6-2.4,6.6C578.1,225.3,576,227.4,573.5,229z"/>
<path class="st1" d="M573,229.1c-0.3-0.1-0.5-0.4-0.5-0.7c0.3-1.2,0.6-2.5,0.9-3.9c1.2-5.5,2.7-12.3,4.8-16.9
	c0.1-0.3,0.5-0.4,0.8-0.3s0.4,0.5,0.3,0.8c-2.1,4.4-3.5,11.2-4.7,16.6c-0.3,1.4-0.6,2.7-0.9,3.9c0,0.1,0,0.1-0.1,0.2
	C573.6,229,573.3,229.1,573,229.1z"/>
<path class="st1" d="M574.2,228c-0.2,0.2-0.5,0.3-0.7,0.1c-0.3-0.2-0.4-0.5-0.3-0.8c3.9-5.8,6.1-12.1,6.3-17.7
	c0-0.3,0.3-0.6,0.6-0.6s0.6,0.3,0.6,0.6c-0.4,5.9-2.2,11.6-5.4,16.6C575,226.7,574.6,227.3,574.2,228z"/>
<path class="st1" d="M614.3,206.7C614.3,206.7,614.3,206.7,614.3,206.7c-0.2,0.2-0.6,0.2-0.9,0c-5.5-5.2-13.7-7.4-20.1-5.4
	c-0.3,0.1-0.6-0.1-0.7-0.3c-0.1-0.3,0-0.7,0.3-0.8c6.8-2.1,15.5,0.2,21.3,5.7c0.2,0.2,0.3,0.5,0.1,0.8
	C614.4,206.6,614.4,206.6,614.3,206.7z"/>
<path class="st1" d="M614.3,206.7c-2.3,2.3-5.6,3.3-8.8,2.8c-5.3-0.8-10-3.9-12.9-8.4c-0.1-0.1-0.1-0.1-0.2-0.2
	c-0.1-0.3,0.1-0.7,0.4-0.8c0.3-0.1,0.7,0.1,0.8,0.4c2.7,4.2,7.1,7,12,7.8c2.8,0.5,5.7-0.4,7.8-2.4c0.2-0.3,0.6-0.3,0.9-0.1
	c0.3,0.2,0.3,0.6,0.1,0.9L614.3,206.7z"/>
<path class="st1" d="M613.6,206.8c-4.4-2.1-11.2-3.5-16.6-4.6l-3.9-0.9c-0.3-0.1-0.5-0.4-0.5-0.7c0.1-0.3,0.4-0.5,0.7-0.5l3.9,0.9
	c5.5,1.2,12.3,2.6,16.9,4.7c0.3,0.1,0.4,0.5,0.3,0.8v0.1C614.3,206.8,613.9,206.9,613.6,206.8z"/>
<path class="st1" d="M612.2,208.1c-5.9-0.2-12.4-2.4-18.4-6.4c-0.3-0.2-0.4-0.6-0.2-0.9c0.2-0.3,0.6-0.4,0.9-0.2
	c5.8,3.9,12.1,6.1,17.8,6.2c0.1,0,0.2,0,0.3,0.1c0.3,0.2,0.4,0.6,0.2,0.8C612.6,208,612.4,208.1,612.2,208.1z"/>
<path class="st1" d="M615.5,207.1c-0.2,0.2-0.4,0.3-0.7,0.2c-0.3-0.1-0.5-0.4-0.4-0.8c2.8-7,1.8-15.5-2.5-20.6
	c-0.2-0.3-0.2-0.7,0.1-0.9c0,0,0,0,0,0c0.3-0.2,0.6-0.2,0.9,0.1C617.4,190.7,618.5,199.7,615.5,207.1
	C615.6,207.1,615.6,207.1,615.5,207.1L615.5,207.1z"/>
<path class="st1" d="M614.8,207.4c-3-1.3-5.2-3.9-5.9-7.1c-1.2-5.2-0.1-10.7,3-15.1c0.2-0.2,0.6-0.3,0.8-0.1
	c0.3,0.2,0.4,0.6,0.2,0.9c-2.9,4.1-3.9,9.1-2.8,14c0.6,2.8,2.5,5.1,5.1,6.3c0.3,0.1,0.5,0.5,0.3,0.8v0.1
	C615.4,207.4,615.1,207.5,614.8,207.4z"/>
<path class="st1" d="M615,207.5c-0.3,0-0.6-0.3-0.6-0.6c0.2-4.9-0.9-11.7-1.9-17.2c-0.2-1.4-0.5-2.8-0.7-4c-0.1-0.3,0.2-0.6,0.5-0.7
	c0.3-0.1,0.6,0.2,0.7,0.5c0.2,1.2,0.4,2.5,0.7,3.9c0.9,5.5,2.2,12.4,1.9,17.4c0,0.1,0,0.2-0.1,0.3
	C615.5,207.4,615.3,207.5,615,207.5z"/>
<path class="st1" d="M613.4,206.3c-0.3,0.1-0.7-0.1-0.8-0.4c-2-5.5-2.4-12.4-0.9-19.5c0.1-0.3,0.4-0.5,0.7-0.5
	c0.3,0.1,0.5,0.4,0.5,0.7c-1.4,6.8-1.1,13.5,0.9,18.8c0.1,0.2,0,0.4,0,0.5C613.7,206.2,613.6,206.3,613.4,206.3z"/>
<path class="st1" d="M615.7,207.7c-0.3,0.1-0.6-0.2-0.7-0.5c0,0,0,0,0,0c-0.1-0.3,0.2-0.7,0.5-0.7c7.4-1.5,14-7,16-13.3
	c0.1-0.3,0.4-0.5,0.8-0.4c0,0,0,0,0,0c0.3,0.1,0.5,0.4,0.4,0.8c-0.4,1.3-1,2.5-1.7,3.7C627.5,202.6,622,206.4,615.7,207.7z"/>
<path class="st1" d="M632,193.9c-5-0.2-9.8,1.7-13.3,5.3c-2,2-2.9,4.9-2.5,7.7c0,0,0,0,0,0c0.1,0.3-0.2,0.6-0.5,0.7c0,0,0,0,0,0
	c-0.3,0-0.6-0.2-0.7-0.5c-0.5-3.2,0.5-6.5,2.8-8.8c3.7-3.8,8.9-5.9,14.3-5.7c0,0,0,0,0,0c0.3,0,0.6,0.3,0.6,0.6c0,0.1,0,0.2-0.1,0.3
	C632.5,193.8,632.3,194,632,193.9z"/>
<path class="st1" d="M632.5,193.8c-1,0.8-2,1.7-3,2.7c-4.1,3.8-9.2,8.6-13.6,11.1c0,0,0,0,0,0c-0.3,0.2-0.7,0.1-0.8-0.2c0,0,0,0,0,0
	c-0.2-0.3-0.1-0.7,0.2-0.8c4.2-2.4,9.3-7.1,13.4-10.9c1.1-1,2.1-1.9,3-2.7c0,0,0,0,0,0c0.2-0.2,0.6-0.2,0.8,0
	c0.2,0.2,0.2,0.5,0.1,0.7C632.6,193.7,632.5,193.8,632.5,193.8z"/>
<path class="st1" d="M631.4,194.3c-6.5,2.5-11.9,6.4-15.3,10.9c-0.2,0.2-0.6,0.3-0.8,0.1c-0.3-0.2-0.4-0.6-0.2-0.9
	c3.5-4.7,9.2-8.7,15.9-11.4c0.2-0.1,0.4-0.1,0.5,0c0.3,0.2,0.4,0.5,0.2,0.8C631.6,194.2,631.5,194.3,631.4,194.3z"/>
<path class="st1" d="M634.6,215.8c-7,1.3-15.4-2-20.5-8.2c-0.2-0.3-0.2-0.6,0.1-0.9c0.3-0.2,0.6-0.2,0.9,0.1
	c4.8,5.8,12.7,9,19.3,7.7l0,0c0.3-0.1,0.6,0.2,0.7,0.5c0,0.1,0,0.3-0.1,0.4C635,215.6,634.8,215.8,634.6,215.8z"/>
<path class="st1" d="M634.7,215.8C634.7,215.8,634.7,215.8,634.7,215.8c-0.3,0.1-0.7,0-0.8-0.3c-2.2-4.5-6.2-7.8-10.9-9.2
	c-2.7-0.8-5.7-0.3-8,1.5l0,0c-0.3,0.2-0.7,0.2-0.9-0.1s-0.2-0.7,0.1-0.9c2.6-2,5.9-2.6,9-1.7c5.2,1.5,9.4,5,11.8,9.9
	c0.1,0.2,0.1,0.4,0,0.6C635,215.6,634.9,215.7,634.7,215.8z"/>
<path class="st1" d="M634.3,215.7l-3.8-1.3c-5.3-1.8-11.9-4.1-16.2-6.7c-0.1-0.2-0.2-0.4-0.1-0.6c0.1-0.3,0.4-0.5,0.8-0.4
	c4.2,2.6,10.7,4.8,16,6.6c1.4,0.5,2.6,0.9,3.8,1.3c0,0,0,0,0,0c0.3,0.1,0.5,0.5,0.4,0.8c0,0,0,0.1,0,0.1
	C634.9,215.8,634.6,215.8,634.3,215.7z"/>
<path class="st1" d="M634.2,215c-0.2,0.3-0.6,0.3-0.9,0.1c-5.3-4.5-11.3-7.4-16.9-8.3c-0.3-0.1-0.5-0.3-0.5-0.6
	c0-0.3,0.3-0.6,0.6-0.6c5.8,0.9,12,3.9,17.5,8.6C634.3,214.3,634.4,214.6,634.2,215L634.2,215z"/>
<path class="st1" d="M606.1,226.3c-0.1,0.2-0.2,0.3-0.4,0.3c-0.3,0.1-0.7-0.2-0.7-0.5c-1.1-7,2.6-15.3,8.9-20.2c0,0,0,0,0,0
	c0.3-0.2,0.7-0.2,0.9,0.1c0.2,0.3,0.1,0.6-0.1,0.9c-6,4.6-9.4,12.4-8.4,19C606.2,226.1,606.2,226.2,606.1,226.3L606.1,226.3z"/>
<path class="st1" d="M605.8,226.6c-0.3,0.1-0.7,0-0.8-0.3s0-0.7,0.3-0.8c4.6-2,8-5.9,9.6-10.6c0.9-2.7,0.5-5.7-1.2-8.1
	c-0.2-0.3-0.1-0.7,0.1-0.9c0,0,0,0,0,0c0.3-0.2,0.7-0.1,0.8,0.1c1.9,2.6,2.4,6,1.4,9.1c-0.4,1.3-1,2.6-1.7,3.8
	C612.4,222.4,609.4,225,605.8,226.6z"/>
<path class="st1" d="M606.1,226.4c-0.1,0.3-0.5,0.4-0.8,0.3c-0.3-0.1-0.4-0.5-0.3-0.8c0.4-1.1,0.9-2.4,1.4-3.7
	c2-5.3,4.5-11.8,7.3-16c0.2-0.3,0.6-0.4,0.9-0.2c0.3,0.2,0.4,0.6,0.2,0.9c-2.7,4.1-5.1,10.5-7.1,15.7c-0.5,1.3-1,2.6-1.5,3.7
	L606.1,226.4L606.1,226.4z"/>
<path class="st1" d="M606.6,225.6L606.6,225.6c-0.2,0.2-0.6,0.3-0.9,0c-0.2-0.2-0.3-0.6,0-0.9c4.7-5.2,7.9-11.1,8.9-16.6v0
	c0.1-0.3,0.4-0.6,0.7-0.5c0,0,0,0,0,0c0.3,0.1,0.5,0.4,0.5,0.7c-0.7,3.7-2.1,7.3-4.1,10.5C610.2,221.3,608.6,223.6,606.6,225.6z"/>
<path class="st11" d="M611.2,211.2c-1.9-1-3.5-3.3-2-6.8c1.1-2.6,4-4,6.7-3.1c1.9,0.6,3.8,2.5,3.4,5.9c-0.1,0.8-0.3,1.5-0.7,2.1
	C617.1,212,613.6,212.3,611.2,211.2z M610.7,204.3c-0.1,0.2-0.2,0.4-0.3,0.6c-1.4,3.3,0.5,4.7,1.4,5.2c1.8,0.9,4.6,0.7,5.8-1.3
	c0.3-0.5,0.5-1.1,0.5-1.6c0.3-2.3-0.7-4-2.6-4.6C613.7,201.8,611.6,202.6,610.7,204.3L610.7,204.3z"/>
<path class="st11" d="M612,208.8c-1.4-0.7-2.4-2.3-1.4-4.7c0.1-0.2,0.2-0.4,0.3-0.5c0.9-1.5,2.7-2.2,4.4-1.6
	c0.1,0.1,0.2,0.1,0.3,0.2c1.9,1.1,2.6,3.5,1.5,5.4C616,209.2,613.8,209.7,612,208.8z M611.8,204.6c-0.6,1.4-0.3,2.6,0.8,3.1
	c1.2,0.7,2.7,0.3,3.5-0.8c0.2-0.3,0.3-0.6,0.3-1c0.3-1.2-0.4-2.4-1.5-2.8c-1.1-0.4-2.4,0.1-3,1.1
	C611.9,204.3,611.8,204.4,611.8,204.6z"/>
<path class="st11" d="M613.1,208.2C613.1,208.2,613.1,208.2,613.1,208.2c-0.9-0.5-1.3-1.6-0.8-2.5c0.1-0.2,0.1-0.3,0.3-0.5
	c0.6-0.9,1.9-1.1,2.8-0.5s1.1,1.9,0.5,2.8C615.2,208.4,614.1,208.7,613.1,208.2z M613.4,206.1c-0.2,0.5-0.1,0.8,0.2,1
	c0.1,0,0.1,0.1,0.2,0.1c0.4,0.1,0.9-0.2,1-0.6c0.1-0.4-0.1-0.8-0.5-0.9C614.1,205.6,613.7,205.7,613.4,206.1L613.4,206.1z"/>
<path class="st11" d="M576.2,212.8c-2.4-1-3.4-3.3-2.6-6.2c0.1-0.5,0.4-1.1,0.6-1.5c1.2-2,3.6-3,5.9-2.4c2.3,0.6,3.7,2.6,3.8,5.3
	c0.1,1-0.2,2-0.7,2.8C581.7,213,578.8,213.9,576.2,212.8z M575.3,205.6c-0.2,0.4-0.4,0.8-0.5,1.2c-0.6,2.3,0.1,4.1,1.9,4.8
	c2,0.8,4.3,0.2,5.6-1.6c0.4-0.7,0.6-1.4,0.5-2.2c0.1-1.9-1.1-3.6-2.9-4.1C578.1,203.3,576.3,204.1,575.3,205.6L575.3,205.6z"/>
<path class="st11" d="M612.1,210.3c-1.4-0.7-2.4-2.3-1.4-4.7c0.1-0.2,0.2-0.3,0.3-0.5c0.9-1.5,2.7-2.2,4.4-1.6
	c1.7,0.6,2.7,2.3,2.4,4.1c-0.1,0.5-0.2,1-0.5,1.5C616.1,210.7,613.9,211.3,612.1,210.3z M611.8,206.1c-0.6,1.4-0.3,2.6,0.8,3.1
	c1.2,0.6,2.7,0.3,3.5-0.8c0,0,0-0.1,0.1-0.1c0.7-1.4,0.1-3-1.3-3.7c-1.1-0.4-2.4,0.1-3,1.1C611.9,205.8,611.9,206,611.8,206.1z"/>
<path class="st11" d="M577,211.9c-1.3-0.5-2.5-2-1.8-4.4c0.1-0.4,0.2-0.7,0.5-1.1c0.9-1.4,2.5-2.1,4.1-1.7c1.6,0.4,2.7,2,2.7,3.7
	c0,0.7-0.1,1.4-0.5,2C580.9,212,578.8,212.6,577,211.9z M576.4,207.9c-0.4,1.4,0,2.5,1.1,2.9c1.2,0.5,2.6,0.1,3.4-1
	c0.2-0.4,0.3-0.9,0.3-1.3c0.1-1.1-0.7-2.2-1.8-2.5c-1.1-0.3-2.2,0.2-2.8,1.1C576.5,207.3,576.4,207.6,576.4,207.9z"/>
<path class="st11" d="M576.8,210.4c-1.3-0.5-2.5-2-1.8-4.4c0.1-0.4,0.2-0.7,0.4-1.1c0.9-1.4,2.5-2.1,4.1-1.7c1.6,0.4,2.8,2,2.7,3.7
	c0,0.7-0.1,1.4-0.5,2C580.6,210.5,578.5,211.1,576.8,210.4z M576.1,206.4c-0.4,1.4,0,2.5,1.1,2.9c1.2,0.5,2.6,0.1,3.4-1
	c0.2-0.4,0.3-0.9,0.3-1.3c0.1-1.2-0.7-2.2-1.8-2.5c-1.1-0.3-2.2,0.2-2.8,1.1C576.3,205.8,576.2,206.1,576.1,206.4z"/>
<path class="st11" d="M577.8,209.7c-0.9-0.4-1.3-1.4-1-2.3c0,0,0,0,0,0c0.3-1.1,1.4-1.7,2.4-1.4c0.9,0.2,1.4,1,1.4,1.9
	c0,0.4-0.1,0.7-0.3,1.1C579.9,209.7,578.8,210.1,577.8,209.7z M578,207.7c-0.1,0.5-0.2,0.7,0.3,0.9s1.2,0,1.2-0.7
	c0.1-0.3-0.1-0.6-0.4-0.8c-0.4-0.2-0.8,0-1,0.3C578.1,207.5,578,207.6,578,207.7z"/>
<polygon class="st12" points="175.6,226.3 212.7,155.6 264,206.5 264,411.3 175.6,411.3 "/>
<polygon class="st13" points="259,211 284.6,236.6 284.6,389.8 264,410.8 "/>
<path class="st1" d="M226.9,342.1l-8.4,5.8l1.7,7.4l7.4,2.7c11,2.6,8.6,13,16.2,16.8c10.5,5.2,13.6-26.9-5-27.6L226.9,342.1z"/>
<path class="st1" d="M213.2,350.3l-7.8-5.7l-4.6,1.6c-0.6,0.3-0.9-0.3-1.6,0c-10.7,4.3-22.3,31-5.5,30.7c4.8-0.1,3.8-16.2,11.8-19.6
	L213.2,350.3z"/>
<path class="st14" d="M231.4,344.1c0,0-5.8-8.2-3.4-11.5s15.7-2.5,15.7-2.5c11.1,1,3.8,5.5,2.7,7.3c-1,1.6,7.2,8.9-3.5,8.9
	c-1.4,0-3.5-0.2-4.5-1L231.4,344.1z"/>
<path class="st14" d="M224.8,339.5l-3-9.2l1.7-6.8c0.8-4.5,7.6-19.3,14.3-13.1c2.5,2.3-0.1,5.9,1.6,7.9s4.7,0.7,6.2,2.4
	c4,4.4-3.4,11.5-7.8,11.4L224.8,339.5z"/>
<path class="st14" d="M194,346.2l10.2-5.6c0,0,5.6-8.9,5.5-9.3s-5.5-8.5-5.5-8.5c-3.1-15.1-9.1-4.6-11.7-5.4c-1.9-0.6-6.1-3.6-7.9-2
	c-6.5,5.6,8.5,13.6,12.4,14.5l-0.7,0.3c-3.5-1.2-14.6-5.1-16.6,0.2c-1.1,3,2.1,4.6,1.8,7.1c-0.4,3-4.9,2.7-5,5.9
	c-0.4,10.2,12.5,6.4,17.2,2.7L194,346.2z"/>
<path class="st11" d="M235.8,339.9c0,2.3,1.9,3.3,2.7,5.3c2.8,7.7-9.2,6.3-12.7,4.3c1.7,3,2.9,14.5-2.8,14.1c-3.5-0.2-3.8-4.2-6.3-5
	c-3.8-1.3-14.6,3.3-10.4-10.5c-3.6,1.7-14-0.3-13.8-5.8c0.1-2.5,3.9-3.2,4.7-5.6c1.5-4.1-4.7-8.8,8.2-6.5c-1.7-2.8-2.5-5.1-1.5-8.3
	c2.2-6.5,8.3-1,11.8-0.2c1.1,0.3,10.2-7.2,9,8.6C242.1,321.2,235.8,337.8,235.8,339.9z"/>
<path class="st14" d="M219.1,336.9c-0.3-0.2-0.4-0.7-0.2-1c0.7-1,2.2-2.7,3.8-4.5s3.2-3.6,3.9-4.6c0,0,0,0,0,0
	c0.2-0.3,0.7-0.4,1-0.1c0.3,0.2,0.4,0.7,0.2,1c-0.8,1-2.5,3-4,4.7s-3,3.4-3.7,4.4c-0.1,0.2-0.4,0.3-0.6,0.3
	C219.4,337,219.3,336.9,219.1,336.9z"/>
<path class="st14" d="M213,338.9l-0.4-0.3c-2.7-2.5-8.9-8.4-10.9-10.9c0,0-0.1-0.1-0.1-0.1c-0.2-0.3-0.1-0.8,0.2-1
	c0.3-0.2,0.8-0.1,1,0.2c1.9,2.4,8.1,8.2,10.8,10.7l0.4,0.3c0.3,0.3,0.3,0.7,0,1c-0.1,0.1-0.3,0.2-0.5,0.2
	C213.3,339.1,213.1,339,213,338.9z"/>
<path class="st14" d="M225.7,350.1c-0.9-0.6-1.8-1.1-2.7-1.6c-1.7-0.8-3.2-1.9-4.5-3.2c-0.2-0.2-0.2-0.6,0-0.8
	c0.2-0.3,0.7-0.4,1-0.2c1.2,1.2,2.6,2.2,4.2,2.9c1,0.5,1.9,1.1,2.8,1.7c0.2,0.1,0.3,0.4,0.3,0.6c0,0.4-0.3,0.7-0.7,0.7
	C225.9,350.2,225.8,350.1,225.7,350.1z"/>
<path class="st14" d="M205.9,349C205.9,349,205.9,349,205.9,349c-0.3-0.2-0.4-0.7-0.2-1c1.1-1.8,3-2.8,4.9-3.8
	c0.7-0.3,1.3-0.6,1.8-1c0.3-0.2,0.8-0.1,1,0.2c0,0,0,0,0,0c0.2,0.3,0.1,0.8-0.2,1c-0.6,0.4-1.3,0.7-1.9,1.1
	c-1.7,0.9-3.5,1.9-4.4,3.3c-0.1,0.2-0.4,0.3-0.6,0.3C206.1,349.1,206,349.1,205.9,349z"/>
<path class="st1" d="M218.1,345.5c-4,2-8-4.2-5.3-7.4c2.6-3,8.7-2.9,8.1,2.6c-0.2,1.6-0.8,3.7-2.3,4.5L218.1,345.5z"/>
<path class="st15" d="M248.1,369.4c-0.4,0-0.7-0.4-0.7-0.8c-0.1-10.3-3.3-15.2-10.8-16.5c0,0,0,0,0,0c-0.4-0.1-0.7-0.4-0.6-0.8
	c0,0,0,0,0,0c0.1-0.4,0.4-0.6,0.8-0.6c10.5,1.9,11.9,10.6,12,18c0,0,0,0,0,0C248.9,369.1,248.6,369.4,248.1,369.4
	C248.2,369.4,248.2,369.4,248.1,369.4z"/>
<path class="st15" d="M190.3,366.7c-0.4-4.8,1-10.8,6.2-13.5l0,0c0.4-0.2,0.8,0,1,0.3c0.2,0.4,0,0.8-0.3,1c-4.6,2.3-5.8,7.8-5.4,12
	c0,0,0,0,0,0c0,0.4-0.3,0.7-0.7,0.8H191C190.6,367.3,190.3,367.1,190.3,366.7z"/>
<path class="st1" d="M237.8,299.4c-0.5-49.6-4.8-89.1-24.2-89.1s-23.7,39.6-24.2,89.1H237.8z"/>
<path class="st16" d="M191.5,255h20.9v44.4h4.8V255h18.5c-0.2-1.6-0.4-3.2-0.6-4.8h-18v-39.4c-1.2-0.3-2.4-0.5-3.6-0.5
	c-0.4,0-0.8,0.1-1.2,0.1v39.8H192C191.8,251.8,191.7,253.4,191.5,255z"/>
<path class="st1" d="M251.9,163.3c-3.5-5.3-37.5-13.4-39-13.4c-5.5,0-47.8,94.1-47.8,94.1l9.6-0.4c0,0,36.2-78.5,37.9-79.2
	s47.5,81.6,47.5,81.6l38.9-6.2C299.1,239.9,272.1,194.5,251.9,163.3z"/>
<path class="st17" d="M264,410.8l20.7-21V374c-0.7-0.4-1.5-0.5-2.2-0.4c-3.9,0.8-4.5,6.7-3.8,10.5c-0.8-1.7-2.2-3.1-3.8-1.5
	c-1.2,1.2-1.3,3.4-1.1,5.4c-1.6-0.1-2.2,1-2.9,2.5c0-2.7-0.6-7.2-3.3-8.5c-1.8-0.9-3.2-0.1-4.3,1.2L264,410.8z"/>
<path class="st15" d="M239.8,411.3H264v-28c-5.3-2.1-12.4,2.2-12.1,8.3c-2.6-3.9-7,0.2-8.7,2.7C240.1,399,238,405.8,239.8,411.3z"/>
<path class="st15" d="M175.6,411.3h22.5c1.2-3.5,1.5-7.3,0.7-11l-3.6-4.1c0.1-3.3-0.4-7.3-3.3-9s-4.8-0.2-6.5,2.2
	c0.1-4.2-0.6-8.6-4.4-11.3c-1.5-1.2-3.4-1.8-5.4-1.7L175.6,411.3z"/>
<path class="st18" d="M252.3,411.2c-0.4-19-14.8-34.2-32.5-34.2s-32.1,15.3-32.5,34.3L252.3,411.2z"/>
<path class="st13" d="M261.1,239.6c-1.4-2.4-42-73.3-48-83.8l-40,83.1c-0.2,0.4-0.6,0.5-1,0.3c-0.4-0.2-0.5-0.6-0.3-1l40.6-84.4
	c0.1-0.1,0.2-0.2,0.3-0.3c0.3-0.2,0.8-0.1,1,0.3c0.5,0.9,47.2,82.5,48.7,85c1.4,1.2,17-1,31.3-3.9c0.4-0.1,0.7,0.2,0.8,0.5
	c0.1,0.4-0.2,0.8-0.5,0.9c-0.1,0-7.7,1.6-15.5,2.8c-4.5,0.8-9.1,1.3-13.7,1.5C261.7,240.5,261.4,240,261.1,239.6z"/>
<path class="st19" d="M275.1,309.7c-1.7-2.2-3.7-6.7-7.1-6c-4.4,0.9-4.2,6-3.6,9.4c1.4,8.4,18.5,42.1,23.5,50.9
	c-10.6-4.1-32.2-24.5-42.4-26.2c-4.8-0.8-5,6-3.1,8.8c10.2,16.2,41.2,32.9,53.5,46.3c2.2,4.2,2.4,20.9-1.6,23.4
	c-5.2-3.4-53.2-14.8-43.6,1.9c3.6,3.8,22.1,5.2,31.2,14.1c1.8,1.7,3.9,4.3,6,5.5c14,8.4,31.3,14.1,46.9,18.2
	c7,2.1,17.2,10,24.6,14.3l21.3-35.2c-10.4-7-20-15-28.9-23.8c-15.2-15.2-41.8-50.8-53.4-73c-0.9-1.7-19.2-36-22.7-28L275.1,309.7z"
	/>
<path class="st7" d="M275.1,309.8c-1.7-2.2-3.7-6.7-7.1-6c-4.4,0.9-4.2,6-3.6,9.4c1.4,8.4,18.5,42.1,23.5,50.9
	c-10.6-4.1-32.2-24.5-42.4-26.2c-4.8-0.8-5,6-3.1,8.8c10.2,16.2,41.2,32.9,53.5,46.3c2.2,4.2,2.4,20.9-1.6,23.4
	c-5.2-3.4-53.2-14.8-43.6,1.9c3.8,3.6,22.1,5.2,31.2,14.1c1.8,1.7,3.9,4.3,6,5.5c14,8.4,31.3,14.1,46.9,18.2
	c7,2.1,17.2,10,24.6,14.3l38.5-26.6c-10.1-6.8-37.2-23.6-46.1-32.5c-15.2-15.2-41.8-50.8-53.4-73c-0.9-1.7-19.2-36-22.7-28
	L275.1,309.8z"/>
<path class="st20" d="M193.2,348.5c-4.6-1.1-13.4,0.2-18.7,0.8s-19.7,0.6-19.7,0.6v12c0,0,14.4,0,19.7,0.6s14.1,1.9,18.7,0.8
	L193.2,348.5z"/>
<path class="st21" d="M126.6,384.4c4.6-2.1,24.2-7.6,26.8-2.8c4.3,8-19.6,14.5-23.4,15.5L126.6,384.4z"/>
<path class="st21" d="M131.7,374c5.1-2.4,27-8.5,29.8-3.1c4.8,8.9-21.8,16.1-26,17.2L131.7,374z"/>
<path d="M150.7,366.6l-0.5-0.8l-1-1.8c0,0,0,0,0,0c-0.2-0.3-0.1-0.8,0.3-1c0,0,0,0,0,0c0.3-0.2,0.8-0.1,1,0.3l1,1.8l0.5,0.8
	c0.1,0.1,0.1,0.3,0.1,0.4c0,0.4-0.3,0.7-0.7,0.7C151.1,366.9,150.8,366.8,150.7,366.6z"/>
<path d="M147.7,366.5l-0.5-0.8c-0.4-0.3-0.7-0.7-1-1.1c-0.2-0.3-0.2-0.8,0.1-1c0.3-0.2,0.8-0.2,1,0.1v0c0.2,0,0.4,0.1,0.5,0.3
	c0.1,0.2,0.3,0.4,0.3,0.6c0.2,0.3,0.4,0.6,0.7,1.2c0.2,0.3,0.1,0.8-0.2,1c-0.1,0.1-0.2,0.1-0.4,0.1
	C148,366.9,147.8,366.7,147.7,366.5z"/>
<path class="st7" d="M64.3,474.6L50,455.2c11.5-20.7,21.9-64.6,25.1-96.9l13.5-10.4c3.8-3.9,70.4-11.4,68.7,1.4l5.9,3.2
	c10.3,11.5-21.8,22.4-27.7,37.1c-6,14.9-1.2,16.7-21.2,34.2c1,18.3-22.2,21-26.3,56.1L64.3,474.6z"/>
<path class="st8" d="M0,350.8c-0.1,2.7,2.4,5.7,5.1,5.8l133.4,3.8c1.3-1.5,13.5-6.9,18.9-9.3c0.1-0.4,0.3-0.8,0.5-1.2L6.1,344
	C3.4,343.9,0.2,345.6,0,350.8z"/>
<path class="st8" d="M288.9,338.5C288.9,338.5,288.9,338.5,288.9,338.5c-0.2-0.4,0-0.8,0.4-1c0.7-0.3,1.5-0.6,2.3-0.8c0,0,0,0,0,0
	c0.4-0.1,0.8,0.2,0.8,0.6c0.1,0.4-0.2,0.8-0.6,0.8c-0.7,0.2-1.3,0.4-1.9,0.7c-0.1,0-0.2,0.1-0.3,0.1
	C289.2,338.9,289,338.8,288.9,338.5z"/>
<path class="st8" d="M272.9,359.6C272.9,359.6,272.9,359.6,272.9,359.6c-0.4-0.2-0.5-0.6-0.4-0.9c0.3-0.6,0.6-1.3,1-1.9l0.2-0.3
	c0,0,0,0,0,0c0.2-0.3,0.7-0.4,1-0.2c0.3,0.2,0.4,0.7,0.2,1l-0.2,0.3c-0.3,0.5-0.6,1.1-0.9,1.7c-0.1,0.3-0.4,0.4-0.7,0.4
	C273.1,359.7,273,359.6,272.9,359.6z"/>
<path class="st8" d="M305.8,372.9c-4-0.6-9.9-3.3-18.2-8.3c-0.3-0.2-0.5-0.7-0.2-1c0,0,0,0,0,0c0.2-0.3,0.7-0.4,1-0.2
	c8,4.8,13.9,7.5,17.6,8.1c0.4,0,0.7,0.4,0.7,0.8c0,0.4-0.4,0.7-0.8,0.7H305.8z"/>
<path class="st8" d="M289.2,340.9c-0.2-0.3-0.6-1.9,0.2-1c0.2,0.2,0.8-0.4,1.2-0.6s1.2-0.6,1.4-0.7c0.3-0.2,0.8-0.2,1,0.1
	c0.2,0.3,0.2,0.8-0.1,1c-0.5,0.3-1.1,0.6-1.7,0.9c-0.4,0.2-0.9,0.4-1,0.5c-0.1,0.1-0.3,0.1-0.4,0.1
	C289.6,341.2,289.4,341.1,289.2,340.9z"/>
<path class="st8" d="M277.7,322.5C277.7,322.5,277.7,322.4,277.7,322.5c-0.2-0.4-0.1-0.8,0.3-1c0.9-0.5,1.8-0.7,2.8-0.6
	c0.4,0.1,0.6,0.5,0.5,0.9c0,0,0,0,0,0c-0.1,0.4-0.5,0.6-0.9,0.5c-0.6,0-1.2,0.2-1.7,0.4c-0.1,0.1-0.2,0.1-0.3,0.1
	C278.1,322.8,277.8,322.7,277.7,322.5z"/>
<path class="st8" d="M301.8,419.8L301.8,419.8c-2.2-1.3-4.9-2.9-7.3-2.9c-0.4,0-0.7-0.3-0.7-0.7s0.3-0.7,0.7-0.7c2.9,0,5.7,1.7,8,3
	l0.1,0c0,0,0,0,0,0c0.3,0.2,0.4,0.7,0.2,1c-0.1,0.2-0.4,0.4-0.6,0.4C302,420,301.9,419.9,301.8,419.8z"/>
<path class="st8" d="M271,424.8v-0.3c-0.1-1.2,0.1-2.4,0.8-3.5c0,0,0,0,0,0c0.2-0.3,0.7-0.4,1-0.2c0.3,0.2,0.4,0.7,0.2,1
	c-0.4,0.8-0.6,1.7-0.5,2.6v0.3c0,0.4-0.3,0.7-0.7,0.7C271.3,425.5,271,425.2,271,424.8z"/>
<path class="st8" d="M268.2,424.2c-0.5-2.1-0.7-4.3,0.9-6.3c0.3-0.3,0.7-0.3,1-0.1c0.3,0.3,0.3,0.7,0.1,1c-1.2,1.3-1.1,2.9-0.6,5
	c0,0,0,0,0,0c0.1,0.4-0.2,0.8-0.6,0.9h-0.2C268.6,424.7,268.3,424.5,268.2,424.2z"/>
<path class="st8" d="M296.7,414.5c-0.3,0-0.5-0.2-0.7-0.4c-0.2-0.4,0-0.8,0.4-0.9c1.2-0.6,2.3-1.3,3.4-2.1c0.5-0.4,1.1-0.8,1.7-1.2
	c0,0,0,0,0,0c0.3-0.2,0.8-0.1,1,0.2c0,0,0,0,0,0c0.2,0.3,0.1,0.8-0.2,1c-0.6,0.4-1.1,0.8-1.6,1.1c-1.1,0.9-2.4,1.6-3.7,2.2
	C296.9,414.5,296.8,414.5,296.7,414.5L296.7,414.5z"/>
<path class="st8" d="M274.2,362.5C274.2,362.5,274.2,362.5,274.2,362.5c-0.4-0.2-0.6-0.6-0.4-1c0.5-1,1-2,1.6-3l0.3-0.5
	c0.2-0.3,0.7-0.5,1-0.2c0,0,0,0,0,0c0.3,0.2,0.4,0.7,0.2,1l-0.3,0.5c-0.6,0.9-1.1,1.8-1.5,2.8c-0.1,0.3-0.4,0.4-0.7,0.4
	C274.4,362.6,274.3,362.6,274.2,362.5z"/>
<path class="st8" d="M260.1,348.9C260,348.8,260,348.8,260.1,348.9c-0.4-0.2-0.5-0.7-0.3-1l0.5-1c0,0,0,0,0,0c0.2-0.4,0.6-0.5,1-0.3
	c0,0,0,0,0,0c0.4,0.2,0.5,0.6,0.3,1l-0.5,0.9c-0.1,0.2-0.4,0.4-0.7,0.4C260.3,348.9,260.2,348.9,260.1,348.9z"/>
<path class="st8" d="M250.1,416.6c0.2,0.5,0.5,1.1,0.8,1.6c1.5,1.5,5.3,2.6,10,4C262.1,416.3,255,415.2,250.1,416.6z"/>
<path class="st8" d="M254.8,341.9c-3.5-2.1-6.7-3.7-9.2-4.1c-0.9-0.2-1.9,0-2.7,0.5C246.2,341.4,250.9,344,254.8,341.9z"/>
<path class="st8" d="M277.1,309.2c1.6,3.8,4,7.8,7.9,6.8C281.8,311.7,278.8,308.7,277.1,309.2z"/>
<path class="st8" d="M277,312.3c-0.3-0.7-0.7-1.4-1.1-2c0,0-4.3-7.7-7.8-6.6l-0.3,0.1C269.4,308.4,273.2,314.8,277,312.3z"/>
<path class="st8" d="M313.1,366.7c-11.7-12.2-19.9-25.9-28.6-40.5c-2.5-4.2-5.1-8.6-7.8-12.8l0,0c-0.2-0.3-0.1-0.8,0.2-1
	c0.3-0.2,0.8-0.1,1,0.2c2.7,4.3,5.3,8.6,7.8,12.9c8.7,14.5,16.8,28.1,28.4,40.2c0.3,0.3,0.3,0.7,0,1c-0.1,0.1-0.3,0.2-0.5,0.2
	C313.4,366.9,313.2,366.9,313.1,366.7z"/>
<path class="st8" d="M160,350.7c0,0-6.9,3-7.5,6.1s2.9,5.9,5,6.3s7.6-5.8,7.6-5.8C165.2,354.2,163.1,351.4,160,350.7z"/>
<path class="st8" d="M114.6,370.3c-0.2-0.2-6.2-4-8.7-8.8c-0.2-0.4,0-0.8,0.3-1c0.4-0.2,0.8,0,1,0.3c2.3,4.4,8.1,8.2,8.1,8.2
	c0.3,0.2,0.4,0.7,0.2,1c-0.1,0.2-0.4,0.3-0.6,0.3C114.8,370.4,114.7,370.4,114.6,370.3z"/>
<path class="st8" d="M114.9,370.8c-0.6-0.1-13.9-3.2-17.4-10.5c-0.2-0.4,0-0.8,0.3-1c0.4-0.2,0.8,0,1,0.3c3.1,6.3,15,9.3,16.3,9.6
	c10.9-1.4,21.5-7.7,30.9-13.3c3.8-2.4,7.7-4.5,11.7-6.5c0,0,0.1,0,0.1-0.1c0.4-0.1,0.8,0.1,0.9,0.5c0.1,0.4-0.1,0.8-0.5,0.9
	c-4,1.9-7.8,4.1-11.5,6.4c-9.5,5.7-20.4,12.1-31.5,13.5h-0.1L114.9,370.8z"/>
<path class="st8" d="M148.5,367c-0.4-1.2-1.1-2.3-2.1-3c-0.3-0.3-0.3-0.7,0-1c0.3-0.3,0.7-0.3,1,0c1.2,1,2.1,2.3,2.5,3.8
	c0.1,0.4-0.2,0.8-0.6,0.9h-0.2C148.9,367.7,148.6,367.4,148.5,367z"/>
<path class="st8" d="M146.5,367.3c-0.2-0.4-0.5-0.9-0.6-1.4c-0.1-0.4,0.1-0.8,0.5-0.9c0.4-0.1,0.8,0.1,0.9,0.5
	c0.1,0.2,0.4,0.9,0.4,1c0.2,0.3,0.1,0.7-0.2,0.9c-0.1,0.1-0.3,0.2-0.5,0.2C146.8,367.5,146.6,367.4,146.5,367.3z"/>
<path class="st8" d="M104.8,435.9c-0.1,0-0.2,0-0.3-0.1c-0.4-0.2-0.5-0.6-0.3-1c2.5-4.5,5.8-8.4,9.7-11.6c0.3-0.3,0.8-0.2,1,0.1
	c0.3,0.3,0.2,0.8-0.1,1c-3.8,3.1-6.9,6.9-9.3,11.2C105.4,435.7,105.1,435.9,104.8,435.9L104.8,435.9z"/>
<path class="st3" d="M189.8,362.1c-3.1-6-0.6-12.5-0.5-12.8l0,0c0.1-0.2,0.3-0.3,0.5-0.2c0.2,0.1,0.3,0.3,0.2,0.5
	c0,0.1-2.5,6.4,0.5,12.2c0.1,0.2,0,0.4-0.2,0.5c-0.1,0-0.1,0-0.2,0C190,362.2,189.8,362.2,189.8,362.1z"/>
<path class="st22" d="M192.8,363.2l27.2,1.6v-5.9l-1.6-0.6l1.9-0.4v-5.1l-2.2-0.8l2.4-0.5v-5.2c0-1.1-27.5,2.2-27.5,2.2
	C189.4,355.1,192.8,363.2,192.8,363.2z"/>
<path class="st22" d="M195.5,352.6c-0.2,0-0.4-0.2-0.4-0.4c0-0.2,0.2-0.4,0.4-0.4l22.5-0.2c0.2,0,0.4,0.2,0.4,0.4
	c0,0.2-0.2,0.4-0.3,0.4L195.5,352.6L195.5,352.6z"/>
<path class="st22" d="M205.1,358.7c-0.2,0-0.4-0.2-0.4-0.4c0-0.2,0.2-0.4,0.4-0.4l13.3-0.1c0.2,0,0.4,0.2,0.4,0.4
	c0,0.2-0.2,0.4-0.4,0.4L205.1,358.7L205.1,358.7z"/>
<path class="st8" d="M418,347c4.2-2.1,7.1-2,9.6,1.9c3.6,5.6,4.9,12.1,7.9,18c3.9,7.8,9.5,13.9,13.9,21.2c3,5,4.3,9.8,3.1,15.6
	c-0.4,2.2-1.5,5.7-3.5,6.9l-3.2,1.6c-2.2,0.9-5.6-0.4-7.6-1.4c-5.3-2.6-8.4-6.5-10.5-11.9c-3.2-8-4.7-16.1-8.5-23.9
	c-3-5.9-7.3-11-9.6-17.2c-1.6-4.4,0.1-6.8,4.3-8.9L418,347z"/>
<path class="st20" d="M413.8,351.8c-1.8-3.1-9.6-19.8-9.9-24.8l-0.1-1c-1.3-19.5-2.2-23.3-2.6-24c-1-2.1-6.7-4.9-9.5-6.3l-0.8-0.4
	c-1-0.6-1.4-1.7-1-2.8c0.5-1.2,1.8-1.8,3-1.3l0.8,0.4c5.2,2.6,10,5.1,11.6,8.4c0.7,1.5,1.7,5.8,3,25.7l0.1,1
	c0.2,2.9,7.9,13.9,12.2,21.1c0.6,1.1-1.3,3-2.4,3.6C416.6,352.4,414.1,352.4,413.8,351.8z"/>
<path class="st23" d="M396.3,294.6c0,0-6.1-8.8-9.4-7.9s-25.9,11.8-26.2,16.1c0.3,2.6,0.9,5.2,1.8,7.7l0.3,0.6
	c1.4,2.6,3.1,5,5.1,7.1c3.5,2.5,26.4-7.8,29.2-9.7s0-12.2,0-12.2L396.3,294.6z"/>
<path class="st20" d="M361.5,301.6c1.5-0.7,4.4,2.6,6.4,7.2s2.5,8.9,1,9.5s-4.3-2.6-6.4-7.2C360.4,306.5,360,302.2,361.5,301.6z"/>
<path class="st3" d="M412.5,357.9C412.5,357.9,412.5,357.9,412.5,357.9c-0.3,0-0.5-0.3-0.5-0.6c0,0,0,0,0,0c0-0.3,0.3-0.5,0.6-0.5
	c9.1,0.5,13.3-7.9,13.3-7.9c0,0,0,0,0,0c0.1-0.3,0.4-0.4,0.7-0.2c0.3,0.1,0.4,0.5,0.2,0.7c0,0.1-4.1,8.2-12.8,8.5
	C413.5,358,413,358,412.5,357.9z"/>
</svg>
