<svg id="Layer_3" data-name="Layer 3" xmlns="http://www.w3.org/2000/svg" xmlns:xlink="http://www.w3.org/1999/xlink" viewBox="0 0 709.59 491"><defs><style>.cls-1{fill:none;}.cls-2{fill:#5ad4e0;opacity:0.31;}.cls-3{fill:#3a619b;}.cls-4{clip-path:url(#clip-path);}.cls-5{fill:#83abe5;}.cls-6{fill:#446eb2;}.cls-7{fill:#1b3c69;}.cls-8{fill:#576199;}.cls-9{fill:#191d37;}.cls-10{fill:#52c8d1;}.cls-11{fill:#3a949b;}.cls-12{fill:#fff;}.cls-13{fill:#44a9b8;}.cls-14{fill:#f7f7f7;}</style><clipPath id="clip-path"><rect class="cls-1" x="6.66" width="702.93" height="489.28" transform="translate(716.24 489.28) rotate(-180)"/></clipPath></defs><path class="cls-2" d="M116.53,491A292.22,292.22,0,0,1,89.7,368.28C89.7,206.3,221,75,383,75s293.3,131.31,293.3,293.29c0,40.5-8.21,84.63-23,119.72"/><path class="cls-3" d="M59.6,377.91s-17.36-20.36-29.14-26c-10.32-4.9-22.75-5.39-23.75.6s12,4.79,22.35,9.78c9.65,4.63,28.15,37.52,28.15,37.52Z"/><g class="cls-4"><path class="cls-5" d="M697.87,441.27s3.53,10.85,7.11,12.61,30.62-6.55,30.38-8.48-6.18-6.45-10-6.76-20.3,3.74-20.3,3.74Z"/><path class="cls-6" d="M703.64,450.41a2.19,2.19,0,0,1-.93-1,2.25,2.25,0,0,1,1-3l10.17-5.13a2.27,2.27,0,1,1,2,4.05l-10.17,5.12A2.22,2.22,0,0,1,703.64,450.41Z"/><path class="cls-7" d="M564.54,411.69l.51-7.82,76.84,5.05c.72.05,1.44.14,2.15.26L695,418.25,693.61,426l-51.8-9.22Z"/><path class="cls-3" d="M547,430.61c-2.46,6-39.06-3.43-81.75-21S390,372.94,392.42,367s39.06,3.43,81.75,21S549.49,424.63,547,430.61Z"/><polygon class="cls-3" points="382.57 323.49 392.42 366.96 547.02 430.61 584.62 406.66 382.57 323.49"/><ellipse class="cls-7" cx="483.6" cy="365.08" rx="17.35" ry="109.25" transform="translate(-38.08 673.3) rotate(-67.63)"/><path class="cls-8" d="M560.28,407.92c-20-3.7-50.33-13.24-83.29-26.79-32.37-13.31-60.18-27.58-77.1-39,20,3.74,50.39,13.26,83.4,26.85C515.56,382.3,543.32,396.54,560.28,407.92Z"/><path class="cls-6" d="M560.28,407.92c-20-3.7-50.33-13.24-83.29-26.79-32.37-13.31-60.18-27.58-77.1-39,20,3.74,50.39,13.26,83.4,26.85C515.56,382.3,543.32,396.54,560.28,407.92Z"/><path class="cls-9" d="M637.74,407.43,633,424l74.6,17.79s9.28-7.71,8.53-14.48-3.23-8.9-3.23-8.9Z"/><path class="cls-5" d="M738.42,434.66c-14.18,2.76-46.73-14.16-61.65-22.2,0,0-25.38,2.07-30.18,1.26-5-.84-15.6-5.14-12.31-8.14S672.92,392,675.9,392s30.29,2.33,34.18,3.39,32.58,12.76,32.58,12.76Z"/><path class="cls-5" d="M648.74,427.58s5.82,12.57,10.39,14.17,35.94-12.32,35.37-14.62-8.38-6.88-13-6.69-23.91,7.44-23.91,7.44Z"/><path class="cls-5" d="M666.53,436.28S673.89,448,678.62,449s34.11-16.76,33.26-19-9.18-5.77-13.76-5-22.78,10.4-22.78,10.4Z"/><path class="cls-6" d="M669.12,441.39a2,2,0,0,1-.57-.45,2.26,2.26,0,0,1,.12-3.2c.36-.33.7-.65,22.13-10a2.27,2.27,0,0,1,1.81,4.16c-7.53,3.29-19.82,8.7-21.16,9.41A2.27,2.27,0,0,1,669.12,441.39Z"/><ellipse class="cls-10" cx="544.36" cy="323.56" rx="34.9" ry="10.74" transform="translate(-7.05 12.16) rotate(-1.27)"/><path class="cls-11" d="M573.93,321.65c.12,5.54-14.38,10.36-32.39,10.76s-32.7-3.77-32.82-9.31,14.37-10.36,32.38-10.75S573.8,316.11,573.93,321.65Z"/><path class="cls-12" d="M548.63,317.53c0-.8,1.35-1.49,3.07-1.52s3.11.58,3.13,1.38-1.35,1.49-3.07,1.53S548.65,318.33,548.63,317.53Z"/><path class="cls-12" d="M540,322.28c0-.48.9-.88,2-.91s2.07.34,2.08.82-.9.87-2,.9S540.05,322.75,540,322.28Z"/><path class="cls-12" d="M553.41,328c0-.47.91-.88,2-.9s2.07.34,2.08.81-.9.88-2,.91S553.42,328.47,553.41,328Z"/><path class="cls-12" d="M523.54,317.82c0-.48.9-.88,2-.91s2.07.34,2.08.82-.9.88-2,.9S523.55,318.29,523.54,317.82Z"/><path class="cls-10" d="M582.23,380.52c-2.5,4-15,.59-27.83-7.53s-21.28-17.91-18.78-21.87,15-.59,27.83,7.53S584.73,376.56,582.23,380.52Z"/><path class="cls-11" d="M579.22,377.46c-2.33,3.7-14,.55-26-7S533.33,353.68,535.66,350s14-.55,26,7S581.55,373.76,579.22,377.46Z"/><path class="cls-12" d="M564.36,363.71c.34-.53,1.54-.38,2.69.34s1.8,1.74,1.46,2.28-1.54.38-2.69-.34S564,364.25,564.36,363.71Z"/><path class="cls-12" d="M556.64,363.09c.2-.31,1-.18,1.74.3s1.21,1.13,1,1.44-1,.19-1.73-.29S556.44,363.41,556.64,363.09Z"/><path class="cls-12" d="M563,372.69c.2-.32,1-.19,1.74.29s1.22,1.13,1,1.44-1,.19-1.74-.29S562.75,373,563,372.69Z"/><path class="cls-12" d="M547.72,353c.2-.32,1-.19,1.74.29s1.22,1.13,1,1.44-1,.19-1.74-.29S547.52,353.28,547.72,353Z"/><path class="cls-10" d="M501.52,349.13c-2.5,4-15,.59-27.83-7.53s-21.28-17.91-18.78-21.87,14.95-.59,27.82,7.53S504,345.17,501.52,349.13Z"/><path class="cls-11" d="M498.51,346.07c-2.34,3.7-14,.55-26-7S452.61,322.3,455,318.6s14-.56,26,7S500.84,342.37,498.51,346.07Z"/><path class="cls-12" d="M483.65,332.33c.34-.54,1.54-.39,2.69.33s1.79,1.74,1.46,2.28-1.55.39-2.69-.34S483.31,332.86,483.65,332.33Z"/><path class="cls-12" d="M475.93,331.71c.2-.32,1-.19,1.74.29s1.21,1.13,1,1.44-1,.19-1.74-.29S475.73,332,475.93,331.71Z"/><path class="cls-12" d="M482.24,341.3c.2-.32,1-.19,1.74.29s1.21,1.13,1,1.45-1,.18-1.74-.3S482,341.62,482.24,341.3Z"/><path class="cls-12" d="M467,321.58c.2-.32,1-.19,1.74.29s1.21,1.13,1,1.45-1,.18-1.74-.3S466.81,321.9,467,321.58Z"/><path class="cls-5" d="M253.17,0C227.4,30.35,173.24,103.39,173,104.88c0,0-43.66,21.16-50.39,33.56-5,9.29,35,57.07,35,57.07,13.83-8,21.22-13.25,27.29-20.51,16.7-19.95,16.63-29.25,19.17-38.1,2-7,102.16-87.19,144.53-133.92C341.44-1.43,270.12,3.09,253.17,0Z"/><path class="cls-7" d="M257.9,330.31c2.93-16.52-5.51-44.11-32-59.1-11-6.23-17.74-21.37-22.9-32.92-13.4-30-31.42-72.14-56.78-133.72a6.64,6.64,0,0,0-8.39-3.73h0a6.64,6.64,0,0,0-3.9,8.8l59.05,132.23c5.35,12.94,9.65,28.53,5.37,41.86-4.65,14.47-8.91,32.6,6.08,50.45C226.73,360.81,252.22,362.34,257.9,330.31Z"/><path class="cls-3" d="M245.75,309.82a1.46,1.46,0,0,0,.64-.15,1.4,1.4,0,0,0,.6-1.89c-.46-.91-11.61-22.3-26-24.68-5.29-.88-10.3.92-14.9,5.35a1.4,1.4,0,1,0,2,2c3.92-3.78,8.12-5.33,12.49-4.61,13,2.15,23.82,23,23.93,23.2A1.39,1.39,0,0,0,245.75,309.82Z"/><path class="cls-3" d="M236.94,338.09a1.4,1.4,0,0,0,.31-2.77c-.29-.06-23.47-5.49-30.61-25.58a1.41,1.41,0,0,0-2.65.94c7.69,21.59,31.63,27.15,32.65,27.38Z"/><path class="cls-5" d="M144.89,198.1c-3.32-3.16-2.77-6-2.77-6-6.76,2.8-11.7,2.7-14.1.52-2-1.81-3-4.89-1.21-9.23-5.23,2.61-9.63,2.56-12.94-.68-2.22-2.17-3.37-5.19-.69-9.38-5.59,1.25-8,0-10.61-2.21-3.36-2.85-1.53-7.86,1.43-11.6,7.63-9.66,20.36-16.62,27.85-19.36,12.05-4.41,10.64,5.9,7.83,10,5.09-2.37,13.69-3.12,15.18-.7,2.1,3.41-1.3,9.14-3.84,12.29,5.27-2.18,13.93-3.1,17.38-.93,2.48,2.68-.56,8.45-5.82,13.17,4.53-2.22,13.69-5,16.43-2.14,2.27,2.34-.34,9.45-3.72,12.55C175.29,184.42,151.59,204.46,144.89,198.1Z"/><path class="cls-6" d="M167.87,172.7a.76.76,0,0,1-.51.66c-10.72,3.54-24.51,18.69-24.65,18.84a.75.75,0,0,1-1.11-1c.57-.63,14.19-15.59,25.29-19.26a.74.74,0,0,1,.94.48A.57.57,0,0,1,167.87,172.7Z"/><path class="cls-6" d="M152.79,162.88a.76.76,0,0,1-.4.62c-10.87,5.69-24.13,20.52-24.27,20.66a.75.75,0,1,1-1.12-1c.55-.62,13.58-15.18,24.69-21a.76.76,0,0,1,1,.31A.82.82,0,0,1,152.79,162.88Z"/><path class="cls-6" d="M145.94,149.13a.75.75,0,0,1-.59.68c-10.6,2.38-31.42,23.82-31.63,24a.77.77,0,0,1-1.07,0,.75.75,0,0,1,0-1.06c.86-.9,21.34-22,32.38-24.45a.76.76,0,0,1,.92.78Z"/><path class="cls-5" d="M168.78,127.25c-3.06,7.67-10.4,16-33.51,12.9-7.66-1-24.62,7.83-31.15.56S120.12,128,133.2,115a39.41,39.41,0,0,1,40.29-10S172.93,116.85,168.78,127.25Z"/><path class="cls-6" d="M171.86,131a.74.74,0,0,1-.28.53c-10.73,8.56-28.72,6.62-29.48,6.53a.75.75,0,1,1,.17-1.49c.18,0,18.13,1.95,28.37-6.22a.77.77,0,0,1,1.06.12A.74.74,0,0,1,171.86,131Z"/><path class="cls-3" d="M302.15,377.91s17.37-20.36,29.14-26c10.33-4.9,22.76-5.39,23.76.6s-12,4.79-22.36,9.78c-9.64,4.63-28.14,37.52-28.14,37.52Z"/><path class="cls-3" d="M37.64,322.42l3,11.26c3.8,0,7.25,3.65,9.74,8.29s4,10.28,4,14.25v76c0,16.78,11.16,35.59,25.75,44.55l7.41,12.49H273.93L281,477.4c14.86-8.69,26.11-28,26.11-45.15v-76c0-7.94,6.16-22.54,13.77-22.54l3-11.26Z"/><path class="cls-13" d="M112.51,335.57c12.21,0,25.86-.63,39.06-1.23,17.67-.8,34.36-1.56,47.17-.9,19.08,1,51.14.9,71.62.31s49.84.89,50.13.91a1.78,1.78,0,0,0,.19-3.56c-.3,0-29.69-1.51-50.42-.91-20.41.59-52.35.69-71.34-.3-13-.68-29.75.09-47.51.9-13.16.6-26.77,1.22-38.9,1.22a133.62,133.62,0,0,1-22.12-1.94,141,141,0,0,0-23-2,124.19,124.19,0,0,0-26.48,3.39,1.78,1.78,0,1,0,.86,3.45c.13,0,13.26-3.28,25.62-3.28a138.08,138.08,0,0,1,22.48,2A139.1,139.1,0,0,0,112.51,335.57Z"/><path class="cls-13" d="M214.5,480.28a214.26,214.26,0,0,0,24.21-1.16c20.46-2.37,41.86,0,42.07.05a1.78,1.78,0,0,0,.41-3.54c-.22,0-22-2.46-42.89-.05-15.29,1.78-34.08,1.09-50.67.49-5.94-.21-11.54-.42-16.64-.5-6.74-.1-13-.42-19-.73-11-.57-20.6-1.06-28.27.15-11,1.73-35.11,2.48-43.07.09a1.78,1.78,0,0,0-1,3.41c8.81,2.64,33.16,1.83,44.64,0,7.31-1.15,16.68-.67,27.54-.11,6,.31,12.3.63,19.1.74,5.07.08,10.65.28,16.57.5C196.16,479.94,205.42,480.28,214.5,480.28Z"/><path class="cls-5" d="M613.89,209.63,630,157.8S857.44,351.09,875.57,368.21s21.54,34.67,8,52.11-35.86,21.06-56.07,7.11S613.89,209.63,613.89,209.63Z"/><path class="cls-5" d="M633.15,160.25c5.94,4.76-13.23,48.87-16.17,52.91s-18.31,4.77-22.5,4.67c-9.19-.21-57.59-3.14-59.84-6-2.78-3.53-4-6.3-2.4-10.09s3.88-7,4-10.49-1.48-7.84.25-10.76,4.05-6.12,4.18-8.66-1.81-6.33-.79-9.23c1.25-3.54,4.6-5.89,5.21-8.42s-.87-8.95.55-12.43c.89-2.19,6.66-7.42,8.24-8C557.73,132.35,627.21,155.48,633.15,160.25Z"/><path class="cls-11" d="M600.13,227.3H532.39l-.72-.73V111.16l.72-.72h67.74l.73.72V226.57Z"/><polygon class="cls-14" points="536.22 176.49 536.22 214.97 543.99 222.75 588.54 222.75 596.31 214.97 596.31 176.49 536.22 176.49"/><rect class="cls-10" x="538.14" y="85.37" width="56.24" height="25.34"/><path class="cls-5" d="M624.18,187.16c-13.81-6.16-25.88-15.26-33.73-31.54,0,0-27.36-10.72-30.2-15.18s-8.85-15.24-4.2-15.92,45.57,11.67,45.57,11.67,30.45,8.73,36,24.65S624.18,187.16,624.18,187.16Z"/><path class="cls-6" d="M618,190.93a2.62,2.62,0,0,1-1.21-.31c-8.81-4.74-18.64-16.44-26.31-31.3A2.56,2.56,0,0,1,595,157c7.21,14,16.26,24.87,24.18,29.14a2.56,2.56,0,0,1-1.21,4.82Z"/><path class="cls-6" d="M688.58,447a2,2,0,0,1-.57-.45,2.26,2.26,0,0,1,.12-3.2c.36-.33.7-.65,22.13-10a2.27,2.27,0,0,1,1.81,4.16c-7.53,3.29-19.82,8.7-21.16,9.41A2.27,2.27,0,0,1,688.58,447Z"/><path class="cls-5" d="M681.19,438.85s7.36,11.74,12.09,12.75,34.1-16.76,33.25-19-9.18-5.77-13.75-5S690,438,690,438Z"/></g></svg>