<svg xmlns="http://www.w3.org/2000/svg" xmlns:xlink="http://www.w3.org/1999/xlink" viewBox="0 0 328.11 369.75"><defs><style>.cls-1,.cls-10,.cls-8{fill:#44a9b8;}.cls-1,.cls-2,.cls-3{clip-rule:evenodd;}.cls-14,.cls-16,.cls-2{fill:#1b3c69;}.cls-18,.cls-20,.cls-3{fill:#446eb2;}.cls-4{isolation:isolate;}.cls-12,.cls-25,.cls-5{fill:#5ad4e0;}.cls-5{opacity:0.31;}.cls-6{fill:#005773;mix-blend-mode:multiply;opacity:0.15;}.cls-11,.cls-12,.cls-13,.cls-14,.cls-18,.cls-24,.cls-25,.cls-26,.cls-27,.cls-28,.cls-6,.cls-8{fill-rule:evenodd;}.cls-7{opacity:0.09;}.cls-9{clip-path:url(#clip-path);}.cls-11,.cls-23,.cls-24{fill:#191d37;}.cls-12{opacity:0.68;}.cls-13{fill:#fff;}.cls-15{clip-path:url(#clip-path-2);}.cls-17{clip-path:url(#clip-path-3);}.cls-19{clip-path:url(#clip-path-4);}.cls-21{clip-path:url(#clip-path-5);}.cls-22{clip-path:url(#clip-path-6);}.cls-24{opacity:0.59;}.cls-26{fill:#3662a3;}.cls-27{fill:#ececec;}.cls-28{fill:#cfcbcb;}</style><clipPath id="clip-path"><polygon class="cls-1" points="7.7 103.72 30.88 83.81 41.86 83.81 41.86 62.64 57.22 47.93 73.63 63.65 73.63 24.62 82.76 24.62 82.76 0 91.89 0 107.66 0 107.66 48.95 126.89 48.95 126.89 79.75 128.79 79.75 129.46 79.75 131.67 79.75 132.34 79.75 134.56 79.75 135.22 79.75 137.44 79.75 138.1 79.75 140.32 79.75 140.99 79.75 143.2 79.75 143.87 79.75 146.08 79.75 146.75 79.75 148.96 79.75 149.63 79.75 151.27 79.75 151.51 79.96 151.51 39.53 161.79 39.53 161.79 12.52 189.01 36.13 189.01 84.33 194 84.33 194 81.22 201.59 81.22 201.59 92.41 212 92.41 212 59.49 225.67 59.49 225.67 105 230.45 105 230.45 16.46 234.58 16.46 234.58 10.95 238.71 10.95 238.71 5.45 242.84 5.45 246.97 5.45 246.97 10.95 251.1 10.95 251.1 16.46 255.22 16.46 256.9 266.19 252.77 266.19 248.64 266.19 244.51 266.19 240.38 266.19 238.05 266.19 236.25 266.19 232.12 266.19 227.35 266.19 220.66 266.19 213.67 266.19 203.27 266.19 190.69 266.19 163.46 266.19 153.19 266.19 142.42 266.19 127.98 266.19 123.77 266.19 109.33 266.19 93.57 266.19 84.44 266.19 75.31 266.19 75.31 266.19 69.36 266.19 65.14 266.19 43.53 266.19 42.48 266.19 32.55 266.19 32.55 266.19 9.38 266.19 7.7 103.72"/></clipPath><clipPath id="clip-path-2"><path class="cls-2" d="M46.16,216.26a7.28,7.28,0,1,1-7.27,7.28,7.28,7.28,0,0,1,7.27-7.28m0-9.13a16.41,16.41,0,0,1,16.41,16.41v0c.2,11.2-13.53,23.71-16.41,26.34-2.88-2.63-16.63-15.16-16.41-26.36A16.41,16.41,0,0,1,46.16,207.13Z"/></clipPath><clipPath id="clip-path-3"><path class="cls-2" d="M261.25,260c1.3-19.24-15.07-29.49-18-31.08l2-1.56-.88-1.38c-31.39-6-77.67-3.41-86.38-2.37s-38,15.84-43.68,18.91c-20,1.12-34.45,5.57-36,6.69-4.41,3.81-10,13-9.79,19.2.43,7,6.46,13.57,13.07,15.3a.85.85,0,0,0,1.06-.82v-3.07a22,22,0,0,1,39.17-13.68c4.3,5.41,3.57,7.51,3.57,14.3a2.68,2.68,0,0,0,2.67,2.67h82.84a2.68,2.68,0,0,0,2.67-2.67c0-6.79-.73-8.89,3.58-14.3a22,22,0,0,1,39.17,13.68v2.54a.84.84,0,0,0,1.06.82,13.72,13.72,0,0,0,6.8-9.67V261.24A1.24,1.24,0,0,0,263,260Z"/></clipPath><clipPath id="clip-path-4"><path class="cls-3" d="M261.25,260c.23-3.39.54-6.75-.79-9.35-4.24-8.25-18.9-8.38-27.09-9-9.89-.77-20.7-.89-31.74-.72-42.65.63-88.52,6.72-95.87,7.41L93.17,245.1c-3.21.61-6,1.26-8.25,1.86-2.47,4.55-5.12,9.25-5.12,9.25l2.56,2.46c2.87-2.5,7.67-4.32,13.88-5.64,9.81-2.1,40.61-3.31,72.28-4.27,37.81-1.15,76.86-1.63,83,1.5,4.65,2.14,6.76,9.89,9.76,9.75"/></clipPath><clipPath id="clip-path-5"><path class="cls-3" d="M207.7,283.12h3.22a2.68,2.68,0,0,0,2.67-2.67c0-6.79-.73-8.89,3.58-14.3a22,22,0,0,1,39.17,13.68v2.54a.84.84,0,0,0,1.06.82,12,12,0,0,0,2.94-2.22c0-.38,0-.76,0-1.14a26.43,26.43,0,0,0-52.86,0,27.42,27.42,0,0,0,.2,3.29"/></clipPath><clipPath id="clip-path-6"><path class="cls-3" d="M77.27,281.85a16.24,16.24,0,0,0,4.34,1.87.85.85,0,0,0,1.06-.82v-3.07a22,22,0,0,1,39.17-13.68c4.3,5.41,3.57,7.51,3.57,14.3a2.68,2.68,0,0,0,2.67,2.67h3.81a29.67,29.67,0,0,0,.19-3.29,27.44,27.44,0,0,0-54.88,0c0,.68,0,1.36.07,2"/></clipPath></defs><g class="cls-4"><g id="Layer_2" data-name="Layer 2"><g id="Layer_3" data-name="Layer 3"><path class="cls-5" d="M328.1,351.73a184,184,0,0,1-77.08,18c-102.05,1.45-186-80.1-187.4-182.15S143.72,1.62,245.77.17c25.51-.36,60.1,6.17,82.34,15.2"/><path class="cls-6" d="M136,280c75.11,0,136,6.52,136,14.55s-60.88,14.55-136,14.55S0,302.54,0,294.51,60.89,280,136,280"/><g class="cls-7"><polygon class="cls-8" points="7.7 103.72 30.88 83.81 41.86 83.81 41.86 62.64 57.22 47.93 73.63 63.65 73.63 24.62 82.76 24.62 82.76 0 91.89 0 107.66 0 107.66 48.95 126.89 48.95 126.89 79.75 128.79 79.75 129.46 79.75 131.67 79.75 132.34 79.75 134.56 79.75 135.22 79.75 137.44 79.75 138.1 79.75 140.32 79.75 140.99 79.75 143.2 79.75 143.87 79.75 146.08 79.75 146.75 79.75 148.96 79.75 149.63 79.75 151.27 79.75 151.51 79.96 151.51 39.53 161.79 39.53 161.79 12.52 189.01 36.13 189.01 84.33 194 84.33 194 81.22 201.59 81.22 201.59 92.41 212 92.41 212 59.49 225.67 59.49 225.67 105 230.45 105 230.45 16.46 234.58 16.46 234.58 10.95 238.71 10.95 238.71 5.45 242.84 5.45 246.97 5.45 246.97 10.95 251.1 10.95 251.1 16.46 255.22 16.46 256.9 266.19 252.77 266.19 248.64 266.19 244.51 266.19 240.38 266.19 238.05 266.19 236.25 266.19 232.12 266.19 227.35 266.19 220.66 266.19 213.67 266.19 203.27 266.19 190.69 266.19 163.46 266.19 153.19 266.19 142.42 266.19 127.98 266.19 123.77 266.19 109.33 266.19 93.57 266.19 84.44 266.19 75.31 266.19 75.31 266.19 69.36 266.19 65.14 266.19 43.53 266.19 42.48 266.19 32.55 266.19 32.55 266.19 9.38 266.19 7.7 103.72"/><g class="cls-9"><rect class="cls-10" x="7.7" width="247.52" height="264.58"/></g></g><path class="cls-11" d="M78.56,115.45H18.75A13.45,13.45,0,0,0,5.33,128.86V279.63a13.46,13.46,0,0,0,13.42,13.42H78.56A13.46,13.46,0,0,0,92,279.63v-19.3l-4.9-6.6,4.9-6.88v-118a13.45,13.45,0,0,0-13.42-13.41"/><path class="cls-12" d="M10.23,135.61v138.7a8.54,8.54,0,0,0,8.52,8.52H78.56a8.54,8.54,0,0,0,8.52-8.52v-28l-6.77-5,6.77-6.44v-105a8.55,8.55,0,0,0-8.52-8.52H65.75a2.36,2.36,0,0,0-2.36,2.36v1.67a3,3,0,0,1-2.94,2.95H36.86a3,3,0,0,1-3-2.95V123.7a2.36,2.36,0,0,0-2.35-2.36H18.75a8.55,8.55,0,0,0-8.52,8.52Z"/><path class="cls-13" d="M31.5,182.31l30.65-22.12-14.3-19.81a9.68,9.68,0,0,0-13.5-2.18L11.54,154.65ZM56.84,282.83h9.82l3.19-2.23c6.18-4.31,11.92-8.32,17.23-12.09v-6.92c-6.17,4.41-13,9.17-20.45,14.4ZM10.23,148.65v13.8l16.7,23.15-16.7,12.05v6.95l20-14.43,9.9,13.72L19.41,218.83A15.31,15.31,0,0,0,16,240.19L38.5,271.45,22.72,282.83H29.6l11.25-8.12,5.86,8.12h6.94l-8.23-11.41,41.66-30.06v-5l-44,31.75L20.52,236.9a9.7,9.7,0,0,1,2.18-13.5l20.71-14.94,3.37,4.67a15.33,15.33,0,0,0,21.37,3.46l18.93-13.66V196L64.86,212a9.7,9.7,0,0,1-13.5-2.18l-16.57-23,30.65-22.12,21.64,30v-9.63L70,161.47l17.07-12.32v-6.94L66.72,156.9,52.43,137.09a15.34,15.34,0,0,0-21.37-3.47Z"/><path class="cls-14" d="M46.16,216.26a7.28,7.28,0,1,1-7.27,7.28,7.28,7.28,0,0,1,7.27-7.28m0-9.13a16.41,16.41,0,0,1,16.41,16.41v0c.2,11.2-13.53,23.71-16.41,26.34-2.88-2.63-16.63-15.16-16.41-26.36A16.41,16.41,0,0,1,46.16,207.13Z"/><g class="cls-15"><rect class="cls-16" x="29.53" y="207.13" width="33.24" height="42.77"/></g><path class="cls-14" d="M123.72,280.44h1.69c0-6.78,1.72-11.79-2.59-17.2-4-5.06-11.22-5.38-18.18-5.38a22,22,0,0,0-22,22v.61h41.05Z"/><path class="cls-14" d="M253.12,280.44h4.29c0-6.78-.88-11.79-5.19-17.2-4-5.06-11.22-5.38-18.18-5.38a22,22,0,0,0-22,22v.61h41.05Z"/><path class="cls-14" d="M261.25,260c1.3-19.24-15.07-29.49-18-31.08l2-1.56-.88-1.38c-31.39-6-77.67-3.41-86.38-2.37s-38,15.84-43.68,18.91c-20,1.12-34.45,5.57-36,6.69-4.41,3.81-10,13-9.79,19.2.43,7,6.46,13.57,13.07,15.3a.85.85,0,0,0,1.06-.82v-3.07a22,22,0,0,1,39.17-13.68c4.3,5.41,3.57,7.51,3.57,14.3a2.68,2.68,0,0,0,2.67,2.67h82.84a2.68,2.68,0,0,0,2.67-2.67c0-6.79-.73-8.89,3.58-14.3a22,22,0,0,1,39.17,13.68v2.54a.84.84,0,0,0,1.06.82,13.72,13.72,0,0,0,6.8-9.67V261.24A1.24,1.24,0,0,0,263,260Z"/><g class="cls-17"><rect class="cls-16" x="68.35" y="220.02" width="195.84" height="63.77"/></g><path class="cls-18" d="M261.25,260c.23-3.39.54-6.75-.79-9.35-4.24-8.25-18.9-8.38-27.09-9-9.89-.77-20.7-.89-31.74-.72-42.65.63-88.52,6.72-95.87,7.41L93.17,245.1c-3.21.61-6,1.26-8.25,1.86-2.47,4.55-5.12,9.25-5.12,9.25l2.56,2.46c2.87-2.5,7.67-4.32,13.88-5.64,9.81-2.1,40.61-3.31,72.28-4.27,37.81-1.15,76.86-1.63,83,1.5,4.65,2.14,6.76,9.89,9.76,9.75"/><g class="cls-19"><rect class="cls-20" x="79.8" y="240.76" width="181.99" height="19.39"/></g><path class="cls-18" d="M207.7,283.12h3.22a2.68,2.68,0,0,0,2.67-2.67c0-6.79-.73-8.89,3.58-14.3a22,22,0,0,1,39.17,13.68v2.54a.84.84,0,0,0,1.06.82,12,12,0,0,0,2.94-2.22c0-.38,0-.76,0-1.14a26.43,26.43,0,0,0-52.86,0,27.42,27.42,0,0,0,.2,3.29"/><g class="cls-21"><rect class="cls-20" x="207.5" y="253.4" width="52.87" height="29.86"/></g><path class="cls-18" d="M77.27,281.85a16.24,16.24,0,0,0,4.34,1.87.85.85,0,0,0,1.06-.82v-3.07a22,22,0,0,1,39.17-13.68c4.3,5.41,3.57,7.51,3.57,14.3a2.68,2.68,0,0,0,2.67,2.67h3.81a29.67,29.67,0,0,0,.19-3.29,27.44,27.44,0,0,0-54.88,0c0,.68,0,1.36.07,2"/><g class="cls-22"><rect class="cls-20" x="77.2" y="252.39" width="54.88" height="31.4"/></g><path class="cls-11" d="M104.64,268a11.87,11.87,0,1,1-11.87,11.87A11.88,11.88,0,0,1,104.64,268"/><path class="cls-11" d="M104.64,267.43a12.4,12.4,0,1,1-12.4,12.4,12.4,12.4,0,0,1,12.4-12.4m0-6.46a18.87,18.87,0,1,1-18.86,18.86A18.85,18.85,0,0,1,104.64,261Z"/><path class="cls-14" d="M104.64,270.12a9.71,9.71,0,1,1-9.71,9.71,9.71,9.71,0,0,1,9.71-9.71m0-2.69a12.4,12.4,0,1,1-12.4,12.4A12.4,12.4,0,0,1,104.64,267.43Z"/><path class="cls-18" d="M104.64,270.12a9.71,9.71,0,1,1-9.71,9.71,9.71,9.71,0,0,1,9.71-9.71m0-1a10.75,10.75,0,1,1-10.75,10.75A10.75,10.75,0,0,1,104.64,269.08Z"/><path class="cls-14" d="M106.8,275.76a4.7,4.7,0,0,1,1,.76c4.24-.29,5.81-2.28,5.87-3.31a9,9,0,0,1,1.61,3.16,8.89,8.89,0,0,1,.55,3.49c-.65-.79-3.09-1.48-6.69.78a5.06,5.06,0,0,1-.4,1.23c1.59,3.94,4,4.81,5,4.56a9,9,0,0,1-2.5,2.5,9.08,9.08,0,0,1-3.15,1.61c.55-.87.45-3.4-2.81-6.13a4.25,4.25,0,0,1-1.3,0c-3.26,2.73-3.36,5.26-2.81,6.13A9.08,9.08,0,0,1,98,288.93a9,9,0,0,1-2.5-2.5c1,.25,3.37-.62,5-4.56a5.06,5.06,0,0,1-.4-1.23c-3.6-2.26-6-1.57-6.69-.78a8.89,8.89,0,0,1,.55-3.49,9.1,9.1,0,0,1,1.6-3.16c.07,1,1.64,3,5.88,3.31a4.7,4.7,0,0,1,1-.76c1-4.12-.38-6.23-1.34-6.61a11.41,11.41,0,0,1,7,0c-1,.38-2.37,2.49-1.34,6.61"/><path class="cls-11" d="M104.64,278.58a1.26,1.26,0,1,1-1.26,1.25,1.26,1.26,0,0,1,1.26-1.25"/><path class="cls-11" d="M104.64,276.58a.54.54,0,1,1-.54.54.54.54,0,0,1,.54-.54"/><path class="cls-11" d="M101.54,278.83a.54.54,0,1,1,1,.33.54.54,0,0,1-1-.33"/><path class="cls-11" d="M102.72,282.47a.54.54,0,1,1,.76-.12.55.55,0,0,1-.76.12"/><path class="cls-11" d="M106.55,282.47a.54.54,0,1,1,.12-.76.54.54,0,0,1-.12.76"/><path class="cls-11" d="M107.74,278.83a.54.54,0,1,1-1,.33.54.54,0,0,1,1-.33"/><path class="cls-14" d="M75,252.82c1.93,0,4.65,0,6.68.16a47.83,47.83,0,0,1,6.57-2.22,107.89,107.89,0,0,1,20.47-3c1.15-.06,1.89-.1,2.08-.15a28.45,28.45,0,0,0,3.66-1.55c1.39-.66,2.87-1.42,4-2a14.38,14.38,0,0,1-5.91-1.37c-19.07,1.27-32.73,5.49-34.22,6.58a24.68,24.68,0,0,0-3.31,3.6"/><path class="cls-14" d="M79.52,249.31c6.43-2.25,29.59-6.43,38.86-6.62l1,1.18-1.79.92a273.78,273.78,0,0,0-38.06,4.52"/><path class="cls-18" d="M221.08,241.48a40.86,40.86,0,0,1-4.93,1c-2.05.28-4.12.46-6.18.61-2.6.18-5.2.31-7.8.41-3.25.13-6.51.24-9.76.34-8.95.3-17.89.6-26.84,1q-19.5.9-39,2.32a1.06,1.06,0,0,1-1-.64,1,1,0,0,1,.27-1.2c1.1-1,2.27-1.93,3.44-2.84,1.45-1.11,2.94-2.18,4.44-3.22,3.48-2.38,7.09-4.61,10.79-6.64,2.62-1.43,5.31-2.77,8.06-3.94a50.38,50.38,0,0,1,7.7-2.65c1-.25,2.05-.44,3.08-.6,1.23-.19,2.47-.34,3.71-.46,3-.3,6-.46,9-.57,3.48-.12,7-.15,10.46-.13,3.73,0,7.47.09,11.2.21,7,.23,14,.62,21,1.18,2.94.24,5.88.5,8.81.83,2.26.25,4.53.53,6.77.91a10.79,10.79,0,0,1,3.55,1.31,12.13,12.13,0,0,1,1.73,1.2l.17.16-.14.19a3.13,3.13,0,0,1-.51.52c-.27.25-.57.48-.86.7-.84.65-1.73,1.26-2.61,1.85-2.42,1.62-4.93,3.16-7.47,4.59a75.65,75.65,0,0,1-7.07,3.59h0Z"/><path class="cls-14" d="M138.78,237a48.69,48.69,0,0,0-4.8,8.65q15.77-1.06,31.55-1.8,5.85-.27,11.72-.48c.86-4.65,3.61-18.21,3.61-18.21-1.6,0-3.19.06-4.78.11-3,.11-6,.27-8.93.56a48.43,48.43,0,0,0-6.67,1,50.27,50.27,0,0,0-7.55,2.61c-2.73,1.16-5.39,2.48-8,3.9q-3.13,1.71-6.17,3.62"/><path class="cls-23" d="M135.88,241.29c.8-1.43,1.73-3,2.72-4.39l0,0,0,0c1-.63,2-1.26,3.07-1.87s2.07-1.18,3.11-1.75c1.3-.71,2.61-1.4,4-2.06s2.68-1.28,4-1.86,2.47-1,3.74-1.46,2.56-.83,3.85-1.15a33.38,33.38,0,0,1,3.34-.64c1.11-.17,2.24-.3,3.36-.41,1.48-.15,3-.26,4.47-.35s3-.16,4.47-.21l2.39-.07,2.39,0h.26l-.05.26s-2.74,13.55-3.61,18.2l0,.17h-.17l-5.85.23-5.86.25q-7.89.36-15.78.82t-15.77,1l-.33,0,.12-.31a39.35,39.35,0,0,1,2.1-4.3m3.05-4.12c-1,1.41-1.9,2.92-2.68,4.32a42.46,42.46,0,0,0-1.95,3.95q7.69-.52,15.44-1t15.78-.82l5.86-.25,5.69-.23c.82-4.4,3.15-15.93,3.53-17.79l-2.13.05-2.38.06c-1.48.06-3,.12-4.47.21s-3,.21-4.45.35c-1.1.11-2.22.24-3.34.41s-2.23.37-3.3.63c-1.28.31-2.55.7-3.81,1.14s-2.49.94-3.71,1.45-2.71,1.2-4,1.85-2.63,1.34-3.93,2.05c-1,.56-2.07,1.15-3.09,1.75S139.94,236.54,138.93,237.17Z"/><path class="cls-14" d="M217.25,237s-4-7.26-6.78-11q-6.39-.39-12.79-.59-6-.21-12.07-.23c-.17,2.17-1,13.33-1.28,18l8-.27q4.88-.15,9.75-.34c2.59-.11,5.18-.23,7.77-.41,2-.14,4.09-.33,6.12-.6l1.23-.19Z"/><path class="cls-23" d="M210.64,225.85c2.76,3.78,6.78,11,6.79,11l0,.05v4.56l-.18,0-.61.1-.62.08c-1,.14-2,.26-3.06.36s-2.06.18-3.08.25c-1.28.09-2.58.17-3.88.24l-3.89.17c-3.13.13-6.28.23-9.43.33h-.32l-4,.14-4,.13h-.23v-.23c.13-2.34.41-6.29.68-9.92s.52-7,.61-8.07v-.19h.2c2,0,4,0,6,.06s4,.1,6,.16,4.27.16,6.4.26,4.28.21,6.41.34h.1Zm6.39,11.2c-.35-.64-4.06-7.28-6.67-10.87q-3.15-.19-6.29-.34t-6.4-.25q-3-.1-6-.16c-1.94,0-3.89-.07-5.84-.07-.09,1.26-.34,4.43-.59,7.86s-.53,7.35-.66,9.69l3.8-.13,4-.13h.33c3.14-.1,6.28-.2,9.42-.33l3.89-.18c1.28-.06,2.57-.14,3.87-.23,1-.07,2.06-.15,3.07-.25s2-.21,3.05-.35l.6-.09.43-.07Z"/><path class="cls-23" d="M183.43,224.22c0,.06-3.3,21-3.45,24.29l0,.55c-.23,5-1.37,30.64,2.14,34.06h-.42c-3.65-3.56-2.38-29-2.14-34.08l0-.54c.15-3.31,3.43-24.22,3.44-24.27Z"/><path class="cls-23" d="M129.37,246.92a55.5,55.5,0,0,0-1,19.13l-.53-.87c-1.23-11.27,1.06-18.2,1.06-18.22Z"/><path class="cls-23" d="M213.08,225.2l11.07,16.28a9,9,0,0,1,1.42,3.35,8.9,8.9,0,0,1-.06,3.63l-3.06,14.13-.41-.09,3.05-14.13a8.35,8.35,0,0,0-1.29-6.65l-11.25-16.55Z"/><path class="cls-14" d="M217.34,226.44l7,12.48c1.16-.59,2.3-1.22,3.42-1.85,2.52-1.42,5-2.94,7.41-4.55.87-.58,1.74-1.18,2.57-1.82.24-.19.48-.38.71-.58-.33-.23-.68-.45-1-.64a9.9,9.9,0,0,0-3.24-1.2c-2.22-.37-4.47-.65-6.71-.9-2.92-.33-5.85-.6-8.78-.83l-1.34-.11"/><path class="cls-23" d="M224.13,239,217,226.2l1.07.08.66.06c1.44.11,2.9.24,4.4.38s2.95.29,4.39.45c1.11.12,2.23.25,3.37.4s2.25.31,3.36.5a9.36,9.36,0,0,1,1.65.45,10.94,10.94,0,0,1,1.66.78c.17.09.35.2.54.32l.49.33.21.16-.2.17-.36.3h0c-.12.1-.24.2-.37.29-.41.32-.84.63-1.27.93s-.86.6-1.3.89q-1.81,1.22-3.67,2.35c-1.23.76-2.49,1.49-3.76,2.21-.57.32-1.13.64-1.7.94s-1.15.62-1.72.92l-.19.09Zm-6.41-12.33,6.67,11.95c.53-.27,1-.54,1.54-.82s1.14-.63,1.7-.94c1.24-.7,2.49-1.44,3.74-2.2s2.46-1.54,3.65-2.34c.43-.28.86-.58,1.3-.88s.85-.61,1.26-.93l.36-.28h0l.14-.11-.25-.16c-.17-.11-.34-.22-.52-.32a11.54,11.54,0,0,0-1.59-.75,9,9,0,0,0-1.58-.42c-1.12-.19-2.23-.35-3.35-.5s-2.23-.28-3.36-.4q-2.2-.26-4.38-.45l-4.39-.38Z"/><path class="cls-11" d="M233.48,268a11.87,11.87,0,1,1-11.87,11.87A11.87,11.87,0,0,1,233.48,268"/><path class="cls-11" d="M233.93,267.43a12.4,12.4,0,1,1-12.4,12.4,12.4,12.4,0,0,1,12.4-12.4m0-6.46a18.87,18.87,0,1,1-18.87,18.86A18.85,18.85,0,0,1,233.93,261Z"/><path class="cls-14" d="M233.93,270.12a9.71,9.71,0,1,1-9.71,9.71,9.71,9.71,0,0,1,9.71-9.71m0-2.69a12.4,12.4,0,1,1-12.4,12.4A12.4,12.4,0,0,1,233.93,267.43Z"/><path class="cls-18" d="M233.93,270.12a9.71,9.71,0,1,1-9.71,9.71,9.71,9.71,0,0,1,9.71-9.71m0-1a10.75,10.75,0,1,1-10.75,10.75A10.75,10.75,0,0,1,233.93,269.08Z"/><path class="cls-14" d="M236.09,275.76a4.7,4.7,0,0,1,1,.76c4.24-.29,5.81-2.28,5.87-3.31a9,9,0,0,1,1.61,3.16,8.89,8.89,0,0,1,.55,3.49c-.65-.79-3.09-1.48-6.69.78a5.06,5.06,0,0,1-.4,1.23c1.59,3.94,4,4.81,5,4.56a9,9,0,0,1-2.5,2.5,9.08,9.08,0,0,1-3.15,1.61c.55-.87.45-3.4-2.81-6.13a4.25,4.25,0,0,1-1.3,0c-3.26,2.73-3.36,5.26-2.81,6.13a9.08,9.08,0,0,1-3.15-1.61,9,9,0,0,1-2.5-2.5c1,.25,3.37-.62,5-4.56a5.06,5.06,0,0,1-.4-1.23c-3.6-2.26-6-1.57-6.69-.78a8.89,8.89,0,0,1,.55-3.49,9.1,9.1,0,0,1,1.6-3.16c.07,1,1.64,3,5.88,3.31a4.7,4.7,0,0,1,1.05-.76c1-4.12-.38-6.23-1.34-6.61a11.41,11.41,0,0,1,7,0c-1,.38-2.37,2.49-1.34,6.61"/><path class="cls-11" d="M233.93,278.58a1.26,1.26,0,1,1-1.26,1.25,1.26,1.26,0,0,1,1.26-1.25"/><path class="cls-11" d="M233.93,276.58a.54.54,0,1,1-.54.54.54.54,0,0,1,.54-.54"/><path class="cls-11" d="M230.83,278.83a.54.54,0,1,1,1,.33.54.54,0,0,1-1-.33"/><path class="cls-11" d="M232,282.47a.54.54,0,1,1,.76-.12.55.55,0,0,1-.76.12"/><path class="cls-11" d="M235.84,282.47a.54.54,0,1,1,.12-.76.54.54,0,0,1-.12.76"/><path class="cls-11" d="M237,278.83a.54.54,0,0,1-1,.33.54.54,0,1,1,1-.33"/><path class="cls-24" d="M125.46,276.28c0,1.19,0,2.55,0,4.17a2.68,2.68,0,0,0,2.67,2.67h82.84a2.68,2.68,0,0,0,2.67-2.67c0-1.62,0-3,0-4.17Z"/><path class="cls-25" d="M261.29,259.3a30.86,30.86,0,0,0-.2-5.23c-1.24-3.79-3.63-7.32-10.83-9.6a36.44,36.44,0,0,0-2,3.3c11.76,3.16,8.54,10.29,13,11.53"/><path class="cls-8" d="M261.26,256c0-.64-.1-1.26-.17-1.88-1.24-3.79-3.63-7.32-10.83-9.6l-.47.73c10.07,2.79,8.94,8.53,11.47,10.75"/><path class="cls-23" d="M119.58,243.87c-1.11.65-3.09,1.68-4.91,2.56a29.78,29.78,0,0,1-3.74,1.57,20.2,20.2,0,0,1-2.17.16A104.64,104.64,0,0,0,88.29,251l0-.21a107.89,107.89,0,0,1,20.47-3c1.15-.06,1.89-.1,2.08-.15a28.45,28.45,0,0,0,3.66-1.55c1.81-.86,3.78-1.88,4.89-2.54Z"/><path class="cls-11" d="M150.65,225.7c-12.14,4.42-31.79,14.38-36.34,16.83l-1.76.11c1.56.89,6.17,2.07,9.54.87,3.83-1.37,22.6-14.43,31.94-17.12a12.77,12.77,0,0,0-3.38-.69"/><path class="cls-26" d="M137.75,239.94c2.42-1.14,5.6-2.14,6.64-1,1.71,1.84,1.73,5.76-.39,6.11a25.75,25.75,0,0,1-5,.38c-3.09-.13-4.77-.48-4.95-1.48s.82-2.63,3.69-4"/><path class="cls-27" d="M72.42,259.79c2.52,0,8.45-.23,9.58-.87s4.14-4.37,10.83-5.92a13,13,0,0,0-4.56-2.24c-6.44,1.7-12.58,4.47-15.85,9"/><path class="cls-28" d="M72.42,259.79c2.52,0,8.45-.23,9.58-.87s3.49-3.57,8.68-5.31c-.21-.26-.81-.28-2,.07a14.53,14.53,0,0,1-8.88.19,20.07,20.07,0,0,0-7.38,5.92"/><path class="cls-25" d="M79,259.48a10.07,10.07,0,0,0,3-.56c1.21-.69,4.14-4.37,10.83-5.92a10.75,10.75,0,0,0-1.33-.9A43.73,43.73,0,0,0,79,259.48"/><path class="cls-11" d="M81.7,253c-2-.13-4.75-.19-6.68-.16a37.83,37.83,0,0,0-4.24,7h1.64c2.12-3,5.45-5.16,9.28-6.81"/></g></g></g></svg>