<?xml version="1.0" encoding="UTF-8" standalone="no" ?>
<!DOCTYPE svg PUBLIC "-//W3C//DTD SVG 1.1//EN" "http://www.w3.org/Graphics/SVG/1.1/DTD/svg11.dtd">
<svg xmlns="http://www.w3.org/2000/svg" xmlns:xlink="http://www.w3.org/1999/xlink" version="1.1" width="1080" height="1080" viewBox="0 0 1080 1080" xml:space="preserve">
<desc>Created with Fabric.js 5.2.4</desc>
<defs>
</defs>
<g transform="matrix(1 0 0 1 540 540)" id="4c4dbdd2-a297-4eed-9c36-8cc317548c9d"  >
<rect style="stroke: none; stroke-width: 1; stroke-dasharray: none; stroke-linecap: butt; stroke-dashoffset: 0; stroke-linejoin: miter; stroke-miterlimit: 4; fill: rgb(255,255,255); fill-rule: nonzero; opacity: 1; visibility: hidden;" vector-effect="non-scaling-stroke"  x="-540" y="-540" rx="0" ry="0" width="1080" height="1080" />
</g>
<g transform="matrix(1 0 0 1 540 540)" id="ba9108ab-5695-4175-a355-1f7b476fe319"  >
</g>
<g transform="matrix(3.27 0 0 3.27 560.95 625.86)"  >
<path style="stroke: none; stroke-width: 1; stroke-dasharray: none; stroke-linecap: butt; stroke-dashoffset: 0; stroke-linejoin: miter; stroke-miterlimit: 4; fill: rgb(209,236,242); fill-rule: evenodd; opacity: 1;" vector-effect="non-scaling-stroke"  transform=" translate(-242.03, -125.45)" d="M 200.292 25.123 C 200.865 25.156 201.802 25.156 202.375 25.123 C 202.948 25.091 202.479 25.064 201.333 25.064 C 200.188 25.064 199.719 25.091 200.292 25.123 M 210.747 50.75 C 210.747 60.742 210.767 64.854 210.792 59.888 C 210.816 54.922 210.816 46.747 210.792 41.721 C 210.767 36.695 210.747 40.758 210.747 50.75 M 286.083 56.685 C 261.743 58.003 238.846 63.499 221.417 72.208 C 219.302 73.265 215.506 75.331 215.192 75.595 C 215.16 75.622 215.223 75.915 215.332 76.245 C 216.079 78.51 216.057 77.616 216.156 110.149 C 216.239 137.226 216.28 140.897 216.5 141.022 C 217.466 141.568 222.062 143.667 222.295 143.668 C 222.879 143.669 223.823 144.492 227.079 147.833 C 228.91 149.712 231.798 152.675 233.498 154.417 C 235.198 156.158 239.248 160.321 242.499 163.667 C 245.751 167.012 249.878 171.25 251.672 173.083 C 253.466 174.917 255.493 177.004 256.175 177.722 L 257.417 179.028 L 257.514 168.889 C 257.608 159.069 257.622 158.711 257.978 157.523 C 259.963 150.888 264.619 147.292 271.542 147.048 L 274.167 146.956 L 274.167 126.895 L 274.167 106.833 L 315.667 106.833 L 357.167 106.833 L 357.167 111.75 L 357.167 116.667 L 358.556 116.667 L 359.946 116.667 L 360.146 114.822 C 360.576 110.856 362.354 107.053 363.494 107.663 C 363.693 107.77 363.833 107.779 363.833 107.686 C 363.833 107.311 366.488 104.752 367.746 103.914 C 375.333 98.866 385.531 101.602 389.561 109.766 C 393.068 116.87 390.349 125.602 383.411 129.517 C 382.939 129.784 382.469 130.184 382.368 130.407 C 382.02 131.17 379.408 131.857 376.458 131.96 L 374 132.045 L 374 139.506 L 374 146.967 L 378.208 147.042 C 382.847 147.125 383.456 147.224 385.629 148.249 C 389.577 150.111 392.138 153.146 393.366 157.417 L 393.749 158.75 L 393.794 192.292 L 393.84 225.833 L 396.753 225.833 L 399.667 225.833 L 399.667 159.04 L 399.667 92.247 L 398.301 91.082 C 369.666 66.642 329.51 54.333 286.083 56.685 M 379.212 124.333 C 379.212 124.746 379.245 124.915 379.284 124.708 C 379.324 124.502 379.324 124.165 379.284 123.958 C 379.245 123.752 379.212 123.921 379.212 124.333 M 103.054 126.792 C 106.338 126.817 111.663 126.817 114.887 126.792 C 118.112 126.766 115.425 126.746 108.917 126.746 C 102.408 126.746 99.77 126.766 103.054 126.792 M 132.909 141.75 C 132.909 145.233 132.931 146.682 132.958 144.969 C 132.985 143.257 132.985 140.407 132.958 138.636 C 132.931 136.865 132.909 138.267 132.909 141.75 M 84.392 137.417 C 84.392 138.242 84.42 138.6 84.455 138.213 C 84.49 137.827 84.49 137.152 84.456 136.713 C 84.422 136.275 84.393 136.592 84.392 137.417 M 95.279 153.458 C 99.512 153.483 106.487 153.483 110.779 153.458 C 115.071 153.434 111.608 153.413 103.083 153.413 C 94.558 153.413 91.046 153.434 95.279 153.458 M 216.17 164.208 L 216.167 166 L 217.865 166 L 219.562 166 L 219.073 165.469 C 218.804 165.177 218.041 164.371 217.379 163.677 L 216.174 162.417 L 216.17 164.208 M 131.212 165.5 C 131.212 165.912 131.245 166.081 131.284 165.875 C 131.324 165.669 131.324 165.331 131.284 165.125 C 131.245 164.919 131.212 165.087 131.212 165.5 M 124.383 174.791 C 125.19 174.821 126.465 174.821 127.217 174.791 C 127.968 174.76 127.308 174.735 125.75 174.735 C 124.192 174.735 123.577 174.76 124.383 174.791 M 85.379 178 C 85.379 178.412 85.411 178.581 85.451 178.375 C 85.491 178.169 85.491 177.831 85.451 177.625 C 85.411 177.419 85.379 177.588 85.379 178 M 138.417 178.731 C 138.386 178.833 138.318 184.268 138.264 190.808 C 138.157 204 138.202 203.492 137.033 204.723 C 135.928 205.887 135.332 206.075 132.417 206.178 C 130.95 206.23 130.264 206.286 130.893 206.303 L 132.035 206.333 L 131.937 207.042 C 131.77 208.248 131.615 221.808 131.744 223.876 L 131.866 225.833 L 194.683 225.833 L 257.5 225.833 L 257.495 215.375 L 257.49 204.917 L 256.06 203.417 C 255.273 202.592 253.415 200.679 251.932 199.167 C 249.788 196.981 238.37 185.244 235.507 182.283 L 234.895 181.65 L 233.406 182.117 L 231.917 182.583 L 211.167 182.675 L 190.417 182.766 L 188.857 183.216 C 187.006 183.751 186.832 183.76 186.314 183.358 C 185.982 183.1 185.475 183.03 183.25 182.933 C 176.886 182.655 171.484 181.483 167.069 179.422 L 165.556 178.715 L 152.014 178.63 C 142.145 178.569 138.457 178.596 138.417 178.731 M 107.216 181.457 C 107.931 181.489 109.056 181.488 109.716 181.457 C 110.376 181.425 109.792 181.4 108.417 181.4 C 107.042 181.4 106.501 181.426 107.216 181.457 M 124.466 181.457 C 125.227 181.488 126.427 181.488 127.133 181.457 C 127.839 181.426 127.217 181.401 125.75 181.401 C 124.283 181.401 123.706 181.427 124.466 181.457 M 107.034 187.29 C 107.649 187.322 108.699 187.322 109.368 187.291 C 110.036 187.259 109.533 187.233 108.25 187.232 C 106.967 187.232 106.42 187.258 107.034 187.29 M 131.039 190.667 C 131.039 190.987 131.073 191.119 131.115 190.958 C 131.157 190.798 131.157 190.535 131.115 190.375 C 131.073 190.215 131.039 190.346 131.039 190.667 M 100.054 198.625 C 104.805 198.65 112.53 198.65 117.221 198.625 C 121.912 198.6 118.025 198.58 108.583 198.58 C 99.142 198.58 95.304 198.6 100.054 198.625" stroke-linecap="round" />
</g>
<g transform="matrix(3.27 0 0 3.27 532.98 619.46)"  >
<path style="stroke: none; stroke-width: 1; stroke-dasharray: none; stroke-linecap: butt; stroke-dashoffset: 0; stroke-linejoin: miter; stroke-miterlimit: 4; fill: rgb(133,170,218); fill-rule: evenodd; opacity: 1;" vector-effect="non-scaling-stroke"  transform=" translate(-233.52, -123.49)" d="M 129.833 25.167 C 131.503 25.233 131.773 25.276 131.196 25.379 C 128.359 25.887 125.615 28.873 125.173 31.935 C 125.066 32.675 125.005 49.742 125.003 79.984 L 125 126.886 L 101.375 126.806 C 88.381 126.762 78.537 126.753 79.5 126.787 L 81.25 126.848 L 80.583 127.148 C 79.593 127.595 78.871 128.274 78.371 129.23 L 77.925 130.083 L 77.806 145.417 C 77.741 153.85 77.605 170.097 77.505 181.52 C 77.337 200.687 77.344 202.353 77.598 203.104 C 77.975 204.216 78.643 205.008 79.696 205.592 L 80.583 206.083 L 107.833 206.083 L 135.083 206.083 L 135.852 205.631 C 138.236 204.23 138.152 204.745 138.295 190.583 L 138.417 178.583 L 151.917 178.641 L 165.417 178.699 L 163.626 177.523 C 162.522 176.798 161.181 175.706 160.126 174.674 L 158.417 173.001 L 148.355 173.001 L 138.293 173 L 138.396 167.375 C 138.652 153.292 138.709 130.594 138.49 129.865 C 137.848 127.726 136.398 126.94 132.957 126.863 L 130.331 126.804 L 130.374 80.527 L 130.417 34.25 L 130.866 33.291 C 131.495 31.95 132.817 30.607 134.154 29.953 L 135.25 29.417 L 168.254 29.417 L 201.257 29.417 L 202.337 29.949 C 203.724 30.633 205.036 31.944 205.716 33.325 L 206.25 34.409 L 206.294 50.283 L 206.338 66.156 L 207.544 66.761 C 208.207 67.093 209.162 67.658 209.666 68.016 L 210.583 68.667 L 210.627 50.292 C 210.67 32.323 210.663 31.892 210.337 30.813 C 209.513 28.088 207.142 25.886 204.453 25.347 C 203.868 25.23 191.181 25.159 165.667 25.128 C 144.813 25.104 128.688 25.121 129.833 25.167 M 122.906 27.375 L 122.417 27.917 L 122.958 27.427 C 123.256 27.158 123.5 26.914 123.5 26.885 C 123.5 26.757 123.362 26.87 122.906 27.375 M 199.127 64.785 C 199.334 64.824 199.634 64.823 199.794 64.781 C 199.953 64.739 199.783 64.707 199.417 64.709 C 199.05 64.711 198.92 64.745 199.127 64.785 M 144.333 67.033 C 144.333 67.107 144.596 67.167 144.917 67.167 C 145.237 67.167 145.5 67.137 145.5 67.102 C 145.5 67.066 145.237 67.006 144.917 66.968 C 144.596 66.931 144.333 66.96 144.333 67.033 M 174.029 91.458 C 180.873 91.482 192.123 91.482 199.029 91.458 C 205.934 91.434 200.333 91.415 186.583 91.415 C 172.833 91.415 167.184 91.434 174.029 91.458 M 212.248 115.667 C 212.248 128.637 212.267 133.944 212.292 127.458 C 212.316 120.973 212.316 110.36 212.292 103.875 C 212.267 97.39 212.248 102.696 212.248 115.667 M 166.947 93.458 C 169.163 93.484 172.838 93.484 175.113 93.458 C 177.389 93.432 175.575 93.411 171.083 93.411 C 166.592 93.41 164.73 93.432 166.947 93.458 M 195.624 93.458 L 210.165 93.502 L 210.208 115.876 L 210.251 138.25 L 210.292 115.792 L 210.333 93.333 L 195.708 93.374 L 181.083 93.415 L 195.624 93.458 M 374.794 101.451 C 375.001 101.491 375.301 101.49 375.46 101.448 C 375.62 101.406 375.45 101.374 375.083 101.375 C 374.717 101.377 374.586 101.411 374.794 101.451 M 376.794 101.451 C 377.001 101.491 377.301 101.49 377.46 101.448 C 377.62 101.406 377.45 101.374 377.083 101.375 C 376.717 101.377 376.586 101.411 376.794 101.451 M 168.708 102.291 C 169.694 102.321 171.306 102.321 172.292 102.291 C 173.277 102.262 172.471 102.237 170.5 102.237 C 168.529 102.237 167.723 102.262 168.708 102.291 M 193.708 102.292 C 195.794 102.318 199.206 102.318 201.292 102.292 C 203.377 102.265 201.671 102.243 197.5 102.243 C 193.329 102.243 191.623 102.265 193.708 102.292 M 274.175 151.542 L 274.183 196.25 L 277.133 199.28 C 278.756 200.946 281.577 203.852 283.404 205.738 L 286.724 209.167 L 288.779 209.167 L 290.833 209.167 L 290.833 173.924 L 290.833 138.682 L 290.417 138.265 L 290 137.848 L 290 127.186 C 290 117.715 290.029 116.495 290.262 116.262 C 290.725 115.799 348.249 115.869 348.539 116.333 C 348.738 116.652 348.927 116.667 352.957 116.667 L 357.167 116.667 L 357.167 111.75 L 357.167 106.833 L 315.667 106.833 L 274.167 106.833 L 274.175 151.542 M 391.053 116.333 C 391.053 116.929 391.084 117.173 391.121 116.875 C 391.158 116.577 391.158 116.09 391.121 115.792 C 391.084 115.494 391.053 115.737 391.053 116.333 M 168.625 120.291 C 169.656 120.32 171.344 120.32 172.375 120.291 C 173.406 120.262 172.563 120.238 170.5 120.238 C 168.438 120.238 167.594 120.262 168.625 120.291 M 193.625 120.292 C 195.756 120.318 199.244 120.318 201.375 120.292 C 203.506 120.265 201.762 120.244 197.5 120.244 C 193.237 120.244 191.494 120.265 193.625 120.292 M 377.665 124.966 L 377.747 126.25 L 377.798 125.1 C 377.827 124.467 377.79 123.889 377.717 123.816 C 377.643 123.742 377.62 124.26 377.665 124.966 M 379.209 125.583 C 379.211 125.95 379.245 126.08 379.285 125.873 C 379.324 125.666 379.323 125.366 379.281 125.206 C 379.239 125.047 379.207 125.217 379.209 125.583 M 386.575 127.042 L 385.917 127.75 L 386.625 127.091 C 387.284 126.478 387.41 126.333 387.284 126.333 C 387.257 126.333 386.938 126.652 386.575 127.042 M 130.75 132.978 C 132.955 133.982 133.057 134.451 132.963 143.149 C 132.873 151.379 132.881 151.323 131.566 152.481 C 130.334 153.565 131.454 153.517 108.25 153.465 L 87.083 153.417 L 86.391 153.047 C 84.357 151.958 84.301 151.681 84.364 142.833 C 84.426 134.139 84.487 133.877 86.667 132.932 C 87.651 132.506 129.81 132.549 130.75 132.978 M 123.884 134.625 C 124.967 134.654 126.692 134.654 127.718 134.624 C 128.744 134.595 127.858 134.571 125.75 134.571 C 123.642 134.572 122.802 134.595 123.884 134.625 M 86.239 146 C 86.239 148.246 86.262 149.165 86.291 148.042 C 86.32 146.919 86.32 145.081 86.291 143.958 C 86.262 142.835 86.239 143.754 86.239 146 M 166.947 144.125 C 169.163 144.151 172.838 144.151 175.113 144.125 C 177.389 144.099 175.575 144.077 171.083 144.077 C 166.592 144.077 164.73 144.099 166.947 144.125 M 185.583 144.122 C 197.304 144.237 206.294 144.238 206.224 144.125 C 206.182 144.056 200.508 144.017 193.615 144.039 C 186.723 144.06 183.108 144.098 185.583 144.122 M 184.25 146 L 161.583 146.085 L 184.292 146.126 C 199.347 146.153 207 146.11 207 146 C 207 145.908 206.981 145.852 206.958 145.874 C 206.935 145.897 196.717 145.953 184.25 146 M 373.915 183 C 373.915 202.846 373.935 210.965 373.958 201.042 C 373.982 191.119 373.982 174.881 373.958 164.958 C 373.935 155.035 373.915 163.154 373.915 183 M 73.56 149.667 C 73.56 150.537 73.588 150.894 73.623 150.458 C 73.657 150.023 73.657 149.31 73.623 148.875 C 73.588 148.44 73.56 148.796 73.56 149.667 M 228.667 149.583 C 229.442 150.362 230.113 151 230.159 151 C 230.205 151 229.608 150.362 228.833 149.583 C 228.058 148.804 227.387 148.167 227.341 148.167 C 227.295 148.167 227.892 148.804 228.667 149.583 M 169.042 149.292 C 171.127 149.318 174.54 149.318 176.625 149.292 C 178.71 149.265 177.004 149.243 172.833 149.243 C 168.662 149.243 166.956 149.265 169.042 149.292 M 316.555 150.958 C 325.523 150.982 340.148 150.982 349.055 150.958 C 357.962 150.934 350.625 150.915 332.75 150.915 C 314.875 150.915 307.587 150.934 316.555 150.958 M 234.667 155.75 C 235.442 156.529 236.113 157.167 236.159 157.167 C 236.205 157.167 235.608 156.529 234.833 155.75 C 234.058 154.971 233.387 154.333 233.341 154.333 C 233.295 154.333 233.892 154.971 234.667 155.75 M 213.75 160 C 214.479 160.733 215.113 161.333 215.159 161.333 C 215.205 161.333 214.646 160.733 213.917 160 C 213.188 159.267 212.554 158.667 212.508 158.667 C 212.462 158.667 213.021 159.267 213.75 160 M 393.748 192.833 C 393.748 211.029 393.768 218.473 393.792 209.375 C 393.815 200.277 393.815 185.39 393.792 176.292 C 393.768 167.194 393.748 174.637 393.748 192.833 M 257.578 169.833 C 257.578 175.012 257.599 177.131 257.625 174.542 C 257.651 171.952 257.651 167.715 257.625 165.125 C 257.599 162.535 257.578 164.654 257.578 169.833 M 240.917 162.167 C 241.646 162.9 242.28 163.5 242.326 163.5 C 242.371 163.5 241.812 162.9 241.083 162.167 C 240.354 161.433 239.72 160.833 239.674 160.833 C 239.629 160.833 240.188 161.433 240.917 162.167 M 316.528 161.458 C 325.39 161.482 339.94 161.482 348.862 161.458 C 357.784 161.434 350.533 161.415 332.75 161.415 C 314.967 161.415 307.667 161.434 316.528 161.458 M 94.383 162.392 C 96.189 163.147 96.889 165.731 95.732 167.374 C 94.805 168.689 94.208 168.859 90.722 168.801 L 87.694 168.75 L 86.972 168.248 C 84.843 166.767 85.079 163.648 87.417 162.36 C 87.925 162.08 93.7 162.106 94.383 162.392 M 112.361 162.652 C 114.538 164.145 114.289 167.445 111.918 168.523 C 110.802 169.029 105.821 168.975 104.818 168.445 C 102.514 167.229 102.479 163.849 104.757 162.54 C 105.779 161.953 111.465 162.037 112.361 162.652 M 129.846 162.75 C 131.747 164.094 131.747 166.906 129.846 168.25 L 129.139 168.75 L 126.195 168.804 C 122.796 168.866 122.269 168.755 121.403 167.796 C 120.144 166.403 120.137 164.507 121.385 163.189 C 122.298 162.224 122.581 162.165 126.028 162.21 L 129.139 162.25 L 129.846 162.75 M 219.072 165.457 L 219.56 165.997 L 210.072 166.042 L 200.583 166.086 L 210.125 166.126 C 215.373 166.149 219.667 166.106 219.667 166.031 C 219.667 165.957 219.423 165.675 219.125 165.406 L 218.583 164.917 L 219.072 165.457 M 246 167.379 C 246 167.404 246.581 167.986 247.292 168.671 L 248.583 169.917 L 247.338 168.625 C 246.18 167.425 246 167.257 246 167.379 M 221.097 167.811 C 221.012 167.948 218.367 168 211.425 168 C 201.01 168 201.667 167.939 201.667 168.909 C 201.667 173.406 197.263 179.61 192.417 181.942 L 190.917 182.664 L 211.417 182.622 L 231.917 182.579 L 233.156 182.197 C 233.838 181.987 234.495 181.759 234.616 181.691 C 234.77 181.606 233.509 180.203 230.468 177.076 C 222.511 168.893 221.218 167.615 221.097 167.811 M 361.715 168.624 C 362.338 168.656 363.313 168.656 363.882 168.623 C 364.451 168.591 363.942 168.564 362.75 168.565 C 361.558 168.565 361.093 168.592 361.715 168.624 M 298.58 186.833 C 298.58 196.504 298.6 200.46 298.625 195.625 C 298.65 190.79 298.65 182.877 298.625 178.042 C 298.6 173.206 298.58 177.162 298.58 186.833 M 300.579 175.458 L 300.583 180.25 L 321.5 180.25 L 342.417 180.25 L 342.421 176.125 L 342.426 172 L 342.377 176.083 L 342.328 180.167 L 321.5 180.167 L 300.672 180.167 L 300.624 175.417 L 300.576 170.667 L 300.579 175.458 M 73.394 173.917 C 73.395 174.833 73.423 175.187 73.456 174.703 C 73.49 174.218 73.49 173.468 73.456 173.036 C 73.421 172.604 73.394 173 73.394 173.917 M 253.33 174.875 C 254.953 176.539 255.167 176.742 255.167 176.622 C 255.167 176.597 254.36 175.791 253.375 174.83 L 251.583 173.083 L 253.33 174.875 M 94.13 174.925 C 96.688 175.992 96.968 179.528 94.606 180.912 C 93.606 181.498 88.268 181.562 87.17 181.002 C 84.81 179.798 84.82 176.184 87.186 175.037 C 88.148 174.571 93.09 174.491 94.13 174.925 M 111.927 175.078 C 114.318 176.27 114.457 179.318 112.192 180.91 L 111.471 181.417 L 108.444 181.417 C 105.544 181.417 105.387 181.4 104.711 181.012 C 102.286 179.623 102.457 176.035 105.001 174.932 C 106.083 174.463 110.896 174.564 111.927 175.078 M 129.417 175.098 C 131.698 176.29 131.704 179.841 129.427 181.052 C 128.618 181.482 124.12 181.68 122.86 181.34 C 119.928 180.551 119.481 176.525 122.169 175.12 L 123.077 174.646 L 125.914 174.698 C 128.405 174.744 128.831 174.792 129.417 175.098 M 313.875 174.792 C 318.069 174.816 324.931 174.816 329.125 174.792 C 333.319 174.767 329.887 174.747 321.5 174.747 C 313.112 174.747 309.681 174.767 313.875 174.792 M 313.958 176.625 C 318.106 176.65 324.894 176.65 329.042 176.625 C 333.19 176.6 329.796 176.58 321.5 176.58 C 313.204 176.58 309.81 176.6 313.958 176.625 M 348.47 180.292 C 350.791 180.318 354.541 180.318 356.803 180.292 C 359.066 180.265 357.167 180.244 352.583 180.244 C 348 180.244 346.149 180.265 348.47 180.292 M 300.612 182.277 C 300.55 182.339 300.5 184.402 300.5 186.862 L 300.5 191.335 L 321.458 191.292 L 342.417 191.25 L 342.417 186.75 L 342.417 182.25 L 321.57 182.208 C 310.104 182.184 300.673 182.216 300.612 182.277 M 349.47 182.292 C 352.342 182.317 356.992 182.317 359.804 182.292 C 362.616 182.266 360.267 182.245 354.583 182.245 C 348.9 182.245 346.599 182.266 349.47 182.292 M 342.333 186.75 L 342.333 191.167 L 321.5 191.167 L 300.667 191.167 L 300.667 186.75 L 300.667 182.333 L 321.5 182.333 L 342.333 182.333 L 342.333 186.75 M 238 184.917 C 238.775 185.696 239.447 186.333 239.493 186.333 C 239.538 186.333 238.942 185.696 238.167 184.917 C 237.392 184.137 236.72 183.5 236.674 183.5 C 236.628 183.5 237.225 184.137 238 184.917 M 305.979 186.708 C 306.194 186.983 307.109 186.998 321.562 186.959 L 336.917 186.918 L 321.599 186.875 C 309.688 186.841 306.223 186.785 306.016 186.624 C 305.78 186.44 305.776 186.45 305.979 186.708 M 93.713 187.343 C 96.883 188.224 96.897 192.885 93.731 193.834 C 92.59 194.176 87.714 193.994 87.018 193.583 C 84.491 192.094 84.833 188.329 87.583 187.368 C 88.241 187.138 92.906 187.119 93.713 187.343 M 110.957 187.318 C 114.207 187.947 114.679 192.467 111.628 193.742 C 110.845 194.069 106.149 194.108 105.107 193.796 C 102.055 192.881 102.184 188.238 105.284 187.404 C 106.181 187.163 109.866 187.107 110.957 187.318 M 129.595 187.875 C 131.91 189.445 131.476 192.899 128.85 193.805 C 127.961 194.111 123.142 194.064 122.37 193.741 C 119.809 192.671 119.521 189.172 121.877 187.76 C 122.566 187.347 122.661 187.336 125.689 187.335 L 128.796 187.333 L 129.595 187.875 M 244.25 191.333 C 245.071 192.158 245.781 192.833 245.826 192.833 C 245.872 192.833 245.238 192.158 244.417 191.333 C 243.595 190.508 242.886 189.833 242.84 189.833 C 242.794 189.833 243.429 190.508 244.25 191.333 M 73.236 193.833 C 73.236 195.529 73.261 196.223 73.291 195.375 C 73.321 194.527 73.321 193.14 73.291 192.292 C 73.261 191.444 73.236 192.137 73.236 193.833 M 349.47 191.292 C 352.342 191.317 356.992 191.317 359.804 191.292 C 362.616 191.266 360.267 191.245 354.583 191.245 C 348.9 191.245 346.599 191.266 349.47 191.292 M 300.576 193.376 C 300.531 193.493 300.516 195.724 300.542 198.335 L 300.589 203.083 L 300.628 198.208 L 300.667 193.333 L 321.497 193.333 L 342.328 193.333 L 342.376 198.042 L 342.424 202.75 L 342.421 198 L 342.417 193.25 L 321.537 193.208 C 304.809 193.174 300.641 193.207 300.576 193.376 M 349.47 193.292 C 352.342 193.317 356.992 193.317 359.804 193.292 C 362.616 193.266 360.267 193.245 354.583 193.245 C 348.9 193.245 346.599 193.266 349.47 193.292 M 250.5 197.75 C 250.998 198.254 251.443 198.667 251.489 198.667 C 251.534 198.667 251.165 198.254 250.667 197.75 C 250.169 197.246 249.724 196.833 249.678 196.833 C 249.632 196.833 250.002 197.246 250.5 197.75 M 313.958 196.958 C 318.106 196.983 324.894 196.983 329.042 196.958 C 333.19 196.933 329.796 196.913 321.5 196.913 C 313.204 196.913 309.81 196.933 313.958 196.958 M 126.265 198.86 C 126.632 199.227 126.617 200.002 126.239 200.279 C 125.806 200.595 91.534 200.608 91.132 200.292 C 90.635 199.901 90.61 199.374 91.068 198.917 L 91.489 198.495 L 108.739 198.539 C 124.555 198.58 126.011 198.606 126.265 198.86 M 344.379 202.333 C 344.379 202.746 344.411 202.915 344.451 202.708 C 344.491 202.502 344.491 202.165 344.451 201.958 C 344.411 201.752 344.379 201.921 344.379 202.333 M 256.583 204 C 257.035 204.458 257.442 204.833 257.487 204.833 C 257.533 204.833 257.201 204.458 256.75 204 C 256.299 203.542 255.892 203.167 255.846 203.167 C 255.8 203.167 256.132 203.542 256.583 204 M 299.628 204.954 C 299.928 204.991 300.378 204.99 300.628 204.952 C 300.878 204.914 300.633 204.884 300.083 204.885 C 299.533 204.886 299.328 204.917 299.628 204.954 M 319.375 204.958 C 327.969 204.982 342.031 204.982 350.625 204.958 C 359.219 204.934 352.188 204.915 335 204.915 C 317.813 204.915 310.781 204.934 319.375 204.958 M 257.578 215.417 C 257.578 221.192 257.599 223.53 257.625 220.613 C 257.65 217.696 257.65 212.971 257.625 210.113 C 257.599 207.255 257.578 209.642 257.578 215.417 M 295.583 218.333 C 295.941 218.7 296.272 219 296.318 219 C 296.363 219 296.108 218.7 295.75 218.333 C 295.392 217.967 295.062 217.667 295.016 217.667 C 294.97 217.667 295.225 217.967 295.583 218.333" stroke-linecap="round" />
</g>
<g transform="matrix(3.27 0 0 3.27 526.46 628.5)"  >
<path style="stroke: none; stroke-width: 1; stroke-dasharray: none; stroke-linecap: butt; stroke-dashoffset: 0; stroke-linejoin: miter; stroke-miterlimit: 4; fill: rgb(58,98,156); fill-rule: evenodd; opacity: 1;" vector-effect="non-scaling-stroke"  transform=" translate(-231.53, -126.25)" d="M 127.24 27.542 L 126.75 28.083 L 127.292 27.594 C 127.59 27.325 127.833 27.081 127.833 27.052 C 127.833 26.923 127.696 27.037 127.24 27.542 M 136 29.496 C 136.202 29.653 136.148 29.678 135.717 29.625 C 135.424 29.59 135.217 29.614 135.258 29.679 C 135.361 29.846 134.525 30.035 134.3 29.896 C 134.19 29.828 134.162 29.858 134.23 29.968 C 134.348 30.159 133.134 30.887 132.937 30.743 C 132.88 30.701 132.872 30.718 132.92 30.781 C 133.035 30.933 131.983 32.009 131.818 31.907 C 131.748 31.864 131.635 31.916 131.569 32.023 C 131.489 32.153 131.527 32.177 131.683 32.095 C 131.811 32.027 131.729 32.134 131.5 32.333 C 131.271 32.533 131.185 32.643 131.308 32.578 C 131.49 32.483 131.497 32.528 131.344 32.813 C 131.24 33.008 131.085 33.167 130.999 33.167 C 130.914 33.167 130.887 33.279 130.94 33.417 C 130.992 33.554 130.955 33.667 130.856 33.667 C 130.758 33.667 130.725 33.791 130.784 33.944 C 130.859 34.141 130.828 34.183 130.677 34.09 C 130.519 33.992 130.493 34.05 130.577 34.312 C 130.639 34.507 130.618 34.667 130.532 34.667 C 129.796 34.667 130.628 36.346 136.378 46.478 C 139.585 52.127 142.443 57.18 142.729 57.706 L 143.25 58.661 L 161.62 58.664 L 179.989 58.667 L 178.105 55.792 C 177.069 54.21 174.139 49.767 171.595 45.917 C 169.05 42.067 165.569 36.799 163.859 34.211 L 160.75 29.506 L 148.555 29.503 C 141.848 29.501 136.223 29.455 136.055 29.401 C 135.796 29.317 135.788 29.331 136 29.496 M 187.792 29.458 C 180.848 29.482 175.167 29.535 175.167 29.575 C 175.167 29.652 177.595 33.342 190.702 53.184 L 194.292 58.617 L 194.995 58.73 C 197.6 59.146 199.327 61.985 198.416 64.357 C 198.334 64.573 198.535 64.633 199.617 64.719 C 201.445 64.863 203.6 65.263 205.078 65.733 L 206.34 66.133 L 206.295 50.271 L 206.25 34.409 L 205.706 33.305 C 205.16 32.195 203.151 30.054 202.838 30.247 C 202.759 30.296 202.669 30.258 202.638 30.164 C 202.607 30.07 202.362 29.953 202.094 29.904 C 201.826 29.856 201.526 29.765 201.428 29.704 C 201.33 29.642 201.111 29.615 200.94 29.643 C 200.752 29.674 200.674 29.623 200.742 29.514 C 200.803 29.414 200.755 29.352 200.635 29.374 C 200.515 29.396 194.735 29.434 187.792 29.458 M 120.708 79.375 L 120.667 126.833 L 122.042 126.8 L 123.417 126.766 L 122.125 126.709 L 120.834 126.653 L 120.792 79.285 L 120.749 31.917 L 120.708 79.375 M 148.716 68.189 C 148.852 68.406 150.106 70.608 151.502 73.083 C 154.396 78.215 154.232 77.96 154.084 77.083 C 153.363 72.825 151.472 69.468 149.025 68.106 L 148.467 67.795 L 148.716 68.189 M 166.409 102.742 C 165.891 103.26 165.889 103.852 166.402 104.449 L 166.804 104.917 L 170.36 104.961 C 174.689 105.014 175.549 104.695 174.995 103.237 C 174.665 102.37 174.538 102.344 170.534 102.339 L 166.818 102.333 L 166.409 102.742 M 189.362 102.719 C 188.912 103.199 188.892 103.997 189.318 104.523 L 189.637 104.917 L 196.943 104.967 C 205.873 105.029 206 105.01 206 103.612 C 206 102.299 206.228 102.333 197.477 102.333 L 189.725 102.333 L 189.362 102.719 M 361.542 115.75 C 361.544 116.117 361.578 116.247 361.618 116.04 C 361.658 115.832 361.656 115.532 361.615 115.373 C 361.573 115.214 361.54 115.383 361.542 115.75 M 361.539 117 C 361.539 117.321 361.573 117.452 361.615 117.292 C 361.657 117.131 361.657 116.869 361.615 116.708 C 361.573 116.548 361.539 116.679 361.539 117 M 305.625 117.458 C 313.44 117.482 326.227 117.482 334.042 117.458 C 341.856 117.434 335.462 117.415 319.833 117.415 C 304.204 117.415 297.81 117.434 305.625 117.458 M 166.893 117.665 C 166 118.026 165.751 119.1 166.409 119.758 L 166.818 120.167 L 170.557 120.167 C 174.579 120.167 174.935 120.093 175.009 119.25 C 175.15 117.646 174.774 117.499 170.583 117.511 C 168.75 117.517 167.089 117.586 166.893 117.665 M 189.75 117.692 C 188.918 118.148 188.723 119.229 189.365 119.827 C 189.721 120.159 189.91 120.167 197.502 120.167 L 205.275 120.167 L 205.638 119.781 C 206.252 119.127 206.099 118.146 205.321 117.744 C 204.721 117.434 190.31 117.386 189.75 117.692 M 365.167 125.885 C 365.167 125.914 365.41 126.158 365.708 126.427 L 366.25 126.917 L 365.76 126.375 C 365.304 125.87 365.167 125.757 365.167 125.885 M 364.66 127.375 C 365.068 127.81 365.425 128.167 365.451 128.167 C 365.577 128.167 365.444 128.017 364.708 127.326 L 363.917 126.583 L 364.66 127.375 M 138.728 132.25 C 138.728 133.167 138.756 133.52 138.79 133.036 C 138.824 132.552 138.823 131.802 138.789 131.369 C 138.755 130.937 138.727 131.333 138.728 132.25 M 73.736 135.917 C 73.736 137.658 73.761 138.348 73.791 137.45 C 73.821 136.551 73.821 135.126 73.791 134.283 C 73.761 133.44 73.736 134.175 73.736 135.917 M 166.75 133.026 C 165.88 133.502 165.74 134.441 166.441 135.091 C 166.881 135.499 166.89 135.5 170.515 135.5 C 174.656 135.5 175.056 135.383 175.056 134.167 C 175.056 132.956 174.644 132.833 170.616 132.838 C 168.382 132.842 166.961 132.911 166.75 133.026 M 189.833 132.949 C 188.892 133.305 188.67 134.549 189.439 135.155 C 189.866 135.49 190.056 135.5 196.284 135.5 L 202.689 135.5 L 202.572 135.125 C 202.507 134.919 202.417 134.65 202.371 134.528 C 202.325 134.406 202.892 134.61 203.631 134.982 L 204.974 135.658 L 205.487 135.179 C 206.091 134.614 206.165 133.907 205.681 133.31 L 205.363 132.917 L 197.723 132.886 C 193.521 132.869 189.971 132.897 189.833 132.949 M 87.731 134.603 C 87.538 134.648 87.163 134.91 86.898 135.186 L 86.417 135.688 L 86.37 143.003 L 86.323 150.317 L 86.815 150.867 L 87.306 151.417 L 108.361 151.466 C 131.984 151.522 130.219 151.613 130.74 150.309 C 131.073 149.478 131.133 136.308 130.808 135.594 C 130.329 134.542 131.849 134.614 108.92 134.566 C 97.46 134.542 87.925 134.559 87.731 134.603 M 77.736 147.25 C 77.736 148.992 77.761 149.682 77.791 148.783 C 77.821 147.884 77.821 146.459 77.791 145.616 C 77.761 144.773 77.736 145.508 77.736 147.25 M 128.728 147.345 C 129.419 147.89 129.302 148.835 128.49 149.255 C 127.709 149.659 126.833 149.131 126.833 148.256 C 126.833 147.139 127.846 146.652 128.728 147.345 M 138.573 153.583 C 138.573 156.15 138.596 157.177 138.625 155.865 C 138.653 154.553 138.653 152.453 138.625 151.198 C 138.596 149.943 138.573 151.017 138.573 153.583 M 164.652 149.493 C 161.988 150.3 161.705 154.035 164.206 155.37 L 164.917 155.75 L 172.917 155.75 L 180.917 155.75 L 181.66 155.333 C 183.955 154.047 183.817 150.734 181.424 149.647 C 180.704 149.32 165.678 149.182 164.652 149.493 M 214.417 151.833 C 215.053 152.475 215.612 153 215.658 153 C 215.704 153 215.22 152.475 214.583 151.833 C 213.947 151.192 213.388 150.667 213.342 150.667 C 213.296 150.667 213.78 151.192 214.417 151.833 M 272.417 151.179 C 268.22 151.421 264.759 153.627 263.022 157.167 C 261.833 159.592 261.839 159.512 261.842 172.25 L 261.845 183.583 L 267.964 189.876 L 274.083 196.168 L 274.126 184.821 C 274.15 178.58 274.15 168.436 274.126 162.279 L 274.083 151.083 L 272.417 151.179 M 374 185.069 L 374 219 L 335.236 219 C 311.27 219 296.493 219.059 296.528 219.156 C 296.558 219.241 297.99 220.734 299.708 222.473 C 301.427 224.212 302.792 225.567 302.74 225.484 C 302.685 225.394 320.259 225.333 346.24 225.333 L 389.833 225.333 L 389.833 193.265 C 389.833 157.503 389.908 159.794 388.664 157.225 C 386.632 153.026 383.451 151.303 377.542 151.2 L 374 151.138 L 374 185.069 M 73.56 155.667 C 73.56 156.537 73.588 156.894 73.623 156.458 C 73.657 156.023 73.657 155.31 73.623 154.875 C 73.588 154.44 73.56 154.796 73.56 155.667 M 219 155.917 C 219.867 156.787 220.614 157.5 220.66 157.5 C 220.706 157.5 220.034 156.787 219.167 155.917 C 218.299 155.046 217.552 154.333 217.507 154.333 C 217.461 154.333 218.133 155.046 219 155.917 M 220.333 157.879 C 220.333 157.904 220.915 158.486 221.625 159.171 L 222.917 160.417 L 221.671 159.125 C 220.514 157.925 220.333 157.757 220.333 157.879 M 225.333 162.379 C 225.333 162.404 225.915 162.986 226.625 163.671 L 227.917 164.917 L 226.671 163.625 C 225.514 162.425 225.333 162.257 225.333 162.379 M 77.573 167.083 C 77.573 169.65 77.596 170.677 77.625 169.365 C 77.653 168.053 77.653 165.953 77.625 164.698 C 77.596 163.443 77.573 164.517 77.573 167.083 M 228.833 166.583 C 229.424 167.179 229.945 167.667 229.99 167.667 C 230.036 167.667 229.591 167.179 229 166.583 C 228.409 165.987 227.889 165.5 227.843 165.5 C 227.797 165.5 228.243 165.987 228.833 166.583 M 234 171.25 C 234.591 171.846 235.111 172.333 235.157 172.333 C 235.203 172.333 234.757 171.846 234.167 171.25 C 233.576 170.654 233.055 170.167 233.01 170.167 C 232.964 170.167 233.409 170.654 234 171.25 M 138.392 171.667 C 138.392 172.446 138.42 172.765 138.455 172.375 C 138.49 171.985 138.49 171.348 138.455 170.958 C 138.42 170.569 138.392 170.887 138.392 171.667 M 236.167 174.083 C 236.757 174.679 237.278 175.167 237.324 175.167 C 237.37 175.167 236.924 174.679 236.333 174.083 C 235.743 173.487 235.222 173 235.176 173 C 235.13 173 235.576 173.487 236.167 174.083 M 73.403 178.5 C 73.403 180.196 73.427 180.89 73.458 180.042 C 73.488 179.194 73.488 177.806 73.458 176.958 C 73.427 176.11 73.403 176.804 73.403 178.5 M 241.25 178.667 C 241.887 179.308 242.445 179.833 242.491 179.833 C 242.537 179.833 242.053 179.308 241.417 178.667 C 240.78 178.025 240.221 177.5 240.176 177.5 C 240.13 177.5 240.613 178.025 241.25 178.667 M 258.5 180.25 C 258.998 180.754 259.443 181.167 259.489 181.167 C 259.534 181.167 259.165 180.754 258.667 180.25 C 258.169 179.746 257.724 179.333 257.678 179.333 C 257.632 179.333 258.002 179.746 258.5 180.25 M 243 181.046 C 243 181.071 243.581 181.652 244.292 182.338 L 245.583 183.583 L 244.338 182.292 C 243.18 181.092 243 180.924 243 181.046 M 77.403 187 C 77.403 188.696 77.427 189.39 77.458 188.542 C 77.488 187.694 77.488 186.306 77.458 185.458 C 77.427 184.61 77.403 185.304 77.403 187 M 248.5 186.083 C 249.091 186.679 249.611 187.167 249.657 187.167 C 249.703 187.167 249.257 186.679 248.667 186.083 C 248.076 185.487 247.555 185 247.51 185 C 247.464 185 247.909 185.487 248.5 186.083 M 90.049 187.29 C 90.671 187.323 91.646 187.322 92.215 187.29 C 92.784 187.257 92.275 187.231 91.083 187.231 C 89.892 187.232 89.426 187.258 90.049 187.29 M 250.667 188.917 C 251.257 189.512 251.778 190 251.824 190 C 251.87 190 251.424 189.512 250.833 188.917 C 250.243 188.321 249.722 187.833 249.676 187.833 C 249.63 187.833 250.076 188.321 250.667 188.917 M 254.833 192.546 C 254.833 192.571 255.415 193.152 256.125 193.838 L 257.417 195.083 L 256.171 193.792 C 255.014 192.592 254.833 192.424 254.833 192.546 M 257.5 195.879 C 257.5 195.904 258.081 196.486 258.792 197.171 L 260.083 198.417 L 258.838 197.125 C 257.68 195.925 257.5 195.757 257.5 195.879 M 73.223 201 C 73.223 201.688 73.252 201.969 73.288 201.625 C 73.324 201.281 73.324 200.719 73.288 200.375 C 73.252 200.031 73.223 200.313 73.223 201 M 263.417 201.333 C 263.961 201.883 264.444 202.333 264.49 202.333 C 264.535 202.333 264.128 201.883 263.583 201.333 C 263.039 200.783 262.556 200.333 262.51 200.333 C 262.465 200.333 262.872 200.783 263.417 201.333 M 264.833 203.379 C 264.833 203.404 265.415 203.986 266.125 204.671 L 267.417 205.917 L 266.171 204.625 C 265.014 203.425 264.833 203.257 264.833 203.379 M 271.25 209.333 C 271.794 209.883 272.277 210.333 272.323 210.333 C 272.369 210.333 271.961 209.883 271.417 209.333 C 270.872 208.783 270.39 208.333 270.344 208.333 C 270.298 208.333 270.706 208.783 271.25 209.333 M 288.279 210.708 C 289.116 211.556 290.033 212.51 290.317 212.829 L 290.833 213.408 L 290.833 211.287 L 290.833 209.167 L 288.795 209.167 L 286.757 209.167 L 288.279 210.708 M 261.833 217.332 L 261.833 225.333 L 269.621 225.333 L 277.408 225.333 L 276.162 224.042 C 275.477 223.332 273.527 221.326 271.828 219.584 C 270.13 217.842 267.186 214.822 265.287 212.874 L 261.833 209.331 L 261.833 217.332 M 273.417 212.167 C 273.961 212.717 274.444 213.167 274.49 213.167 C 274.535 213.167 274.128 212.717 273.583 212.167 C 273.039 211.617 272.556 211.167 272.51 211.167 C 272.465 211.167 272.872 211.617 273.417 212.167 M 278.5 216.75 C 279.091 217.346 279.611 217.833 279.657 217.833 C 279.703 217.833 279.257 217.346 278.667 216.75 C 278.076 216.154 277.555 215.667 277.51 215.667 C 277.464 215.667 277.909 216.154 278.5 216.75 M 280.75 219.667 C 281.387 220.308 281.945 220.833 281.991 220.833 C 282.037 220.833 281.553 220.308 280.917 219.667 C 280.28 219.025 279.721 218.5 279.676 218.5 C 279.63 218.5 280.113 219.025 280.75 219.667 M 285.25 223.667 C 286.071 224.492 286.781 225.167 286.826 225.167 C 286.872 225.167 286.238 224.492 285.417 223.667 C 284.595 222.842 283.886 222.167 283.84 222.167 C 283.794 222.167 284.429 222.842 285.25 223.667" stroke-linecap="round" />
</g>
<g transform="matrix(3.27 0 0 3.27 533.03 626.06)"  >
<path style="stroke: none; stroke-width: 1; stroke-dasharray: none; stroke-linecap: butt; stroke-dashoffset: 0; stroke-linejoin: miter; stroke-miterlimit: 4; fill: rgb(24,61,106); fill-rule: evenodd; opacity: 1;" vector-effect="non-scaling-stroke"  transform=" translate(-233.53, -125.51)" d="M 126.707 25.343 C 124.67 25.745 122.494 27.525 121.463 29.634 L 120.917 30.75 L 120.874 78.708 L 120.831 126.667 L 121.64 126.667 C 122.086 126.667 123.024 126.715 123.725 126.774 L 125 126.882 L 125 79.507 C 125 36.948 125.027 32.027 125.262 31.107 C 125.916 28.555 127.776 26.536 130.354 25.578 L 131.417 25.184 L 129.417 25.194 C 128.317 25.199 127.097 25.266 126.707 25.343 M 135.417 29.568 C 133.964 29.927 132.512 30.86 131.811 31.887 C 131.53 32.297 131.652 32.225 132.349 31.568 C 134.62 29.429 134.069 29.499 148.577 29.503 L 160.75 29.506 L 163.859 34.211 C 165.569 36.799 169.05 42.067 171.595 45.917 C 174.139 49.767 177.069 54.21 178.105 55.792 L 179.989 58.667 L 187.157 58.667 L 194.325 58.667 L 192.621 56.081 C 191.684 54.658 189.454 51.285 187.667 48.586 C 180.595 37.904 175.247 29.784 175.195 29.646 C 175.164 29.566 180.745 29.483 187.778 29.458 C 194.729 29.434 185.979 29.403 168.333 29.388 C 143.353 29.368 136.066 29.407 135.417 29.568 M 130.361 80.875 L 130.333 126.833 L 132.875 126.837 C 136.236 126.842 137.287 127.305 138.298 129.23 L 138.747 130.083 L 138.707 137.417 C 138.685 141.45 138.62 151.106 138.561 158.875 L 138.455 173 L 148.394 173 C 153.861 173 158.333 172.966 158.333 172.925 C 158.333 172.883 157.993 172.363 157.578 171.768 C 156.532 170.272 155.401 167.817 154.867 165.88 L 154.417 164.25 L 154.333 121.083 L 154.25 77.917 L 151.413 72.921 L 148.576 67.924 L 147.746 67.601 C 147.085 67.343 146.292 67.254 143.833 67.163 C 139.872 67.016 138.898 66.606 137.991 64.706 C 136.606 61.806 138.792 58.667 142.196 58.667 C 143.324 58.667 143.31 58.696 142.685 57.597 C 132.72 40.073 130.513 36.092 130.454 35.536 C 130.419 35.195 130.377 55.598 130.361 80.875 M 362.633 107.951 C 362.2 108.439 361.222 110.502 360.86 111.688 C 358.191 120.444 363.621 129.694 372.563 131.624 C 376.276 132.425 382.461 131.423 382.303 130.046 C 382.23 129.405 381.805 129.384 380.135 129.94 C 378.17 130.594 373.796 130.639 371.833 130.026 C 363.162 127.317 359.084 117.889 363.109 109.856 C 363.709 108.658 363.851 108.232 363.72 108.023 C 363.477 107.635 362.944 107.6 362.633 107.951 M 290.353 116.227 C 289.996 116.656 290.18 138.003 290.542 138.231 C 291.426 138.789 291.413 138.943 291.46 127.69 L 291.503 117.333 L 319.912 117.333 L 348.322 117.333 L 348.507 116.986 C 348.656 116.709 348.635 116.574 348.404 116.319 C 348.023 115.898 290.701 115.807 290.353 116.227 M 76.41 127.228 C 75.417 127.69 74.301 128.891 74.037 129.782 C 73.625 131.166 73.149 202.419 73.545 203.357 C 74.362 205.291 75.778 206.04 78.75 206.109 C 80.047 206.139 80.749 206.104 80.499 206.022 C 79.159 205.579 78.072 204.553 77.58 203.264 C 77.279 202.476 77.382 174.143 77.814 138.75 C 77.94 128.399 77.965 128.287 80.417 127.15 L 81.083 126.841 L 79.167 126.839 C 77.503 126.837 77.139 126.888 76.41 127.228 M 270.5 147.085 C 270.362 147.113 269.688 147.227 269 147.337 C 263.341 148.243 258.653 153.098 257.848 158.887 C 257.734 159.706 257.669 163.734 257.672 169.72 L 257.677 179.25 L 259.751 181.417 L 261.825 183.583 L 261.832 172.25 C 261.84 159.516 261.834 159.588 263.022 157.167 C 264.759 153.627 268.22 151.421 272.417 151.179 L 274.083 151.083 L 274.083 149.083 L 274.083 147.083 L 272.417 147.058 C 271.5 147.044 270.637 147.056 270.5 147.085 M 374 149.051 L 374 151.138 L 377.542 151.2 C 383.451 151.303 386.632 153.026 388.664 157.225 C 389.908 159.794 389.833 157.503 389.833 193.265 L 389.833 225.333 L 346.255 225.333 C 307.588 225.333 302.688 225.362 302.773 225.583 C 302.858 225.805 308.067 225.833 348.268 225.833 L 393.667 225.833 L 393.667 192.824 C 393.667 169.396 393.613 159.466 393.481 158.615 C 392.778 154.075 389.641 150.083 385.305 148.208 C 383.202 147.299 382.167 147.137 377.875 147.046 L 374 146.965 L 374 149.051 M 213.457 150.436 C 213.407 150.517 214.082 151.333 214.957 152.25 C 216.799 154.179 228.207 165.856 233.579 171.31 C 235.598 173.36 237.325 175.127 237.417 175.236 C 237.508 175.346 239.385 177.268 241.588 179.509 C 243.79 181.75 248.78 186.846 252.677 190.833 C 273.416 212.057 282.471 221.321 284.566 223.458 C 285.847 224.765 287.008 225.833 287.147 225.833 C 287.285 225.833 286.542 224.952 285.494 223.875 C 281.88 220.157 270.306 208.312 265.666 203.583 C 263.777 201.658 258.865 196.633 254.75 192.417 C 250.635 188.2 245.504 182.95 243.349 180.75 C 234.365 171.581 232.063 169.228 225.001 162 C 220.926 157.829 216.682 153.488 215.57 152.352 C 214.458 151.217 213.507 150.354 213.457 150.436 M 299.942 151.305 C 299.572 151.715 299.595 152.261 300 152.667 C 300.331 152.998 300.556 153 332.744 153 L 365.154 153 L 365.494 152.635 C 365.901 152.198 365.922 151.867 365.574 151.37 L 365.314 151 L 332.766 151 C 301.446 151 300.208 151.011 299.942 151.305 M 300 159.667 C 299.584 160.083 299.571 160.696 299.971 161.058 C 300.497 161.533 365.024 161.476 365.5 161 C 365.683 160.817 365.833 160.517 365.833 160.333 C 365.833 159.244 368.783 159.333 332.75 159.333 C 300.556 159.333 300.331 159.336 300 159.667 M 87.974 187.372 C 84.971 187.891 84.445 192.143 87.204 193.611 C 87.916 193.99 92.109 194.141 93.47 193.836 C 96.381 193.185 97.011 189.255 94.444 187.759 C 93.699 187.325 89.648 187.083 87.974 187.372 M 257.667 215.461 L 257.667 225.833 L 267.77 225.833 C 276.733 225.833 277.851 225.805 277.667 225.583 C 277.488 225.368 276.388 225.333 269.646 225.333 L 261.833 225.333 L 261.833 217.289 L 261.833 209.245 L 259.75 207.167 L 257.667 205.088 L 257.667 215.461" stroke-linecap="round" />
</g>
<g transform="matrix(3.27 0 0 3.27 337.26 542.22)"  >
<path style="stroke: none; stroke-width: 1; stroke-dasharray: none; stroke-linecap: butt; stroke-dashoffset: 0; stroke-linejoin: miter; stroke-miterlimit: 4; fill: rgb(42,50,84); fill-rule: evenodd; opacity: 1;" vector-effect="non-scaling-stroke"  transform=" translate(-173.54, -99.79)" d="M 140.398 58.936 C 136.828 60.202 136.656 65.277 140.131 66.766 C 141.596 67.393 143.279 67.291 145.275 66.452 C 149.706 64.592 148.331 64.673 175.363 64.67 L 198.309 64.667 L 198.51 63.771 C 198.997 61.593 197.552 59.351 195.333 58.846 C 194.019 58.546 141.251 58.633 140.398 58.936 M 202.5 134.652 C 202.5 135.306 205.157 141.341 205.253 140.905 C 205.677 138.978 206.683 138.038 208.525 137.847 L 209.466 137.75 L 206.467 136.333 C 202.67 134.539 202.5 134.467 202.5 134.652" stroke-linecap="round" />
</g>
<g transform="matrix(3.27 0 0 3.27 508.77 614.7)"  >
<path style="stroke: none; stroke-width: 1; stroke-dasharray: none; stroke-linecap: butt; stroke-dashoffset: 0; stroke-linejoin: miter; stroke-miterlimit: 4; fill: rgb(226,227,228); fill-rule: evenodd; opacity: 1;" vector-effect="non-scaling-stroke"  transform=" translate(-226.13, -122.04)" d="M 149.222 25.125 C 158.464 25.149 173.539 25.149 182.722 25.125 C 191.904 25.101 184.342 25.082 165.917 25.082 C 147.492 25.082 139.979 25.101 149.222 25.125 M 151.833 64.862 C 149.826 65.032 147.559 65.589 145.703 66.368 L 144.417 66.907 L 145.333 67.038 C 147.858 67.399 148.959 67.838 150.43 69.068 C 151.538 69.994 152.714 71.887 153.313 73.709 C 154.397 77.006 154.332 74.059 154.333 119.965 C 154.333 163.9 154.329 163.63 155.106 166.312 C 157.994 176.279 168.19 182.29 183.305 182.936 L 186 183.051 L 186.003 182.651 C 186.007 181.961 186.239 181.816 188.126 181.322 C 195.285 179.45 199.005 174.862 199.872 166.838 C 199.96 166.026 200.179 166.005 208.458 166.002 L 216.167 166 L 216.161 164.208 L 216.155 162.417 L 213.93 160.144 C 212.346 158.526 211.645 157.687 211.496 157.228 C 211.209 156.346 208.828 150.457 208.675 150.25 C 208.607 150.158 208.455 149.727 208.338 149.292 C 208.22 148.856 208.067 148.5 207.999 148.5 C 207.931 148.5 207.832 148.284 207.779 148.02 C 207.726 147.756 207.549 147.231 207.386 146.853 L 207.088 146.167 L 184.377 146.167 C 161.889 146.167 161.663 146.163 161.333 145.833 C 161.003 145.503 161 145.278 161 118.75 C 161 92.222 161.003 91.997 161.333 91.667 C 161.664 91.336 161.889 91.333 186.591 91.333 L 211.515 91.333 L 211.924 91.742 L 212.333 92.152 L 212.333 115.666 L 212.333 139.18 L 214.125 140.025 C 215.11 140.49 216.067 140.949 216.25 141.046 C 216.535 141.196 216.554 141.185 216.38 140.974 C 216.221 140.782 216.164 133.904 216.12 110.072 C 216.069 82.728 216.034 79.277 215.796 78.127 C 214.118 70.036 208.874 65.624 199.997 64.839 C 197.615 64.628 154.339 64.649 151.833 64.862 M 163 118.75 L 163 144 L 171.083 144 L 179.167 144 L 179.167 118.75 L 179.167 93.5 L 171.083 93.5 L 163 93.5 L 163 118.75 M 181.167 118.748 L 181.167 143.996 L 193.722 144.04 L 206.277 144.083 L 205.773 142.833 C 205.496 142.146 205.221 141.546 205.163 141.5 C 205.106 141.454 204.531 140.104 203.886 138.5 L 202.715 135.583 L 196.133 135.5 C 189.026 135.41 189.119 135.423 188.917 134.501 C 188.798 133.959 189.169 133.099 189.591 132.937 C 190.409 132.623 205.332 132.832 205.662 133.162 C 206.353 133.853 206.147 135.158 205.307 135.425 C 205.004 135.521 205.179 135.652 206.347 136.202 C 207.118 136.566 208.162 137.058 208.667 137.296 C 209.171 137.534 209.682 137.827 209.804 137.948 C 209.925 138.068 210.056 138.167 210.095 138.167 C 210.135 138.167 210.167 128.117 210.167 115.833 L 210.167 93.5 L 195.667 93.5 L 181.167 93.5 L 181.167 118.748 M 174.765 102.718 C 175.29 103.329 175.287 104.061 174.758 104.591 L 174.348 105 L 170.56 105 C 166.234 105 166 104.932 166 103.669 C 166 102.283 166.4 102.159 170.723 102.208 L 174.363 102.25 L 174.765 102.718 M 205.765 102.718 C 206.282 103.32 206.274 103.847 205.735 104.487 L 205.304 105 L 197.517 105 C 189.924 105 189.72 104.992 189.367 104.662 C 188.607 103.955 188.755 102.847 189.672 102.377 C 189.99 102.214 191.821 102.176 197.723 102.208 L 205.362 102.25 L 205.765 102.718 M 378.294 104.951 C 378.501 104.991 378.801 104.99 378.96 104.948 C 379.12 104.906 378.95 104.874 378.583 104.875 C 378.217 104.877 378.086 104.911 378.294 104.951 M 348.581 117.042 L 348.417 117.417 L 320.042 117.459 L 291.667 117.501 L 291.667 127.738 L 291.667 137.976 L 291.25 138.304 L 290.833 138.631 L 290.833 175.987 L 290.833 213.343 L 293.608 216.172 L 296.382 219 L 335.086 219 L 373.791 219 L 373.866 175.542 C 373.919 144.737 373.889 132.048 373.762 131.961 C 373.664 131.894 373.381 131.837 373.134 131.836 C 371.853 131.829 368.416 130.385 366.583 129.085 C 363.14 126.643 360.199 121.561 360.167 118 C 360.164 117.679 360.117 117.248 360.062 117.042 L 359.961 116.667 L 354.353 116.667 L 348.746 116.667 L 348.581 117.042 M 174.848 117.977 C 175.345 118.59 175.264 119.388 174.654 119.902 L 174.141 120.333 L 170.48 120.333 L 166.818 120.333 L 166.409 119.924 C 165.849 119.364 165.852 118.466 166.418 117.9 L 166.836 117.483 L 170.683 117.533 C 174.497 117.583 174.533 117.587 174.848 117.977 M 205.679 117.987 C 205.973 118.281 206.167 118.65 206.167 118.917 C 206.167 119.183 205.973 119.552 205.679 119.846 L 205.192 120.333 L 197.5 120.333 L 189.808 120.333 L 189.321 119.846 C 189.027 119.552 188.833 119.183 188.833 118.917 C 188.833 118.65 189.027 118.281 189.321 117.987 L 189.808 117.5 L 197.5 117.5 L 205.192 117.5 L 205.679 117.987 M 378.127 122.118 C 378.334 122.158 378.634 122.156 378.794 122.115 C 378.953 122.073 378.783 122.04 378.417 122.042 C 378.05 122.044 377.92 122.078 378.127 122.118 M 363.675 131.365 C 369.652 134.326 369.081 142.895 362.777 144.863 C 361.264 145.335 305.569 145.335 304.057 144.863 C 297.37 142.775 297.283 133.309 303.93 131.016 C 304.91 130.678 305.103 130.676 333.675 130.713 L 362.434 130.75 L 363.675 131.365 M 174.821 133.272 C 175.011 133.514 175.167 133.916 175.167 134.167 C 175.167 134.417 175.011 134.819 174.821 135.061 L 174.476 135.5 L 170.578 135.5 C 166.168 135.5 166 135.452 166 134.188 C 166 132.894 166.206 132.833 170.6 132.833 L 174.476 132.833 L 174.821 133.272 M 131.059 137.417 C 131.059 138.242 131.087 138.6 131.122 138.213 C 131.157 137.827 131.157 137.152 131.123 136.713 C 131.088 136.275 131.06 136.592 131.059 137.417 M 86.236 139.083 C 86.236 140.733 86.261 141.386 86.291 140.533 C 86.321 139.681 86.321 138.331 86.291 137.533 C 86.26 136.736 86.235 137.433 86.236 139.083 M 180.848 149.352 C 183.435 149.907 184.27 153.056 182.332 154.951 C 181.435 155.827 181.125 155.854 172.5 155.8 L 164.583 155.75 L 163.947 155.354 C 161.636 153.918 162.084 149.967 164.621 149.406 C 164.875 149.35 165.158 149.279 165.25 149.249 C 165.726 149.09 180.07 149.185 180.848 149.352 M 365.5 151.167 C 365.905 151.572 365.932 152.282 365.558 152.695 C 365.292 152.989 364.054 153 332.736 153 L 300.191 153 L 299.843 152.557 C 299.447 152.054 299.51 151.577 300.033 151.125 C 300.599 150.636 365.01 150.677 365.5 151.167 M 98.208 151.625 C 103.96 151.649 113.373 151.649 119.125 151.625 C 124.877 151.601 120.171 151.581 108.667 151.581 C 97.162 151.581 92.456 151.601 98.208 151.625 M 365.571 159.595 C 365.897 159.921 365.91 160.665 365.597 161.093 C 365.362 161.414 302.281 161.726 300.542 161.415 C 299.574 161.242 299.27 159.993 300.067 159.461 C 300.486 159.181 365.29 159.314 365.571 159.595 M 73.409 166.333 C 73.409 169.679 73.431 171.048 73.458 169.375 C 73.485 167.702 73.485 164.965 73.458 163.292 C 73.431 161.619 73.409 162.987 73.409 166.333 M 366.51 168.926 C 367.026 169.393 367.016 204.15 366.5 204.667 C 366.169 204.998 365.944 205 332.719 205 L 299.271 205 L 298.886 204.638 L 298.5 204.275 L 298.5 186.823 C 298.5 170.447 298.518 169.348 298.792 169.016 L 299.083 168.663 L 329.917 168.611 C 367.064 168.549 366.084 168.54 366.51 168.926 M 300.667 175.417 L 300.667 180.167 L 321.5 180.167 L 342.333 180.167 L 342.333 175.417 L 342.333 170.667 L 321.5 170.667 L 300.667 170.667 L 300.667 175.417 M 344.333 175.417 L 344.333 180.167 L 354.583 180.167 L 364.833 180.167 L 364.833 175.417 L 364.833 170.667 L 354.583 170.667 L 344.333 170.667 L 344.333 175.417 M 352.534 172.375 C 352.68 172.49 353.302 173.352 353.916 174.292 C 355.315 176.433 355.161 176.387 356.067 174.934 C 356.826 173.716 357.067 173.5 357.668 173.5 C 358.855 173.5 358.724 174.521 357.227 176.937 C 355.324 180.009 355.232 179.995 352.704 176.215 C 351.675 174.676 350.833 173.302 350.833 173.162 C 350.834 172.364 351.896 171.873 352.534 172.375 M 337 175 C 337.392 175.392 337.425 175.811 337.097 176.26 C 336.725 176.768 306.275 176.768 305.903 176.26 C 305.575 175.811 305.608 175.392 306 175 C 306.328 174.672 306.556 174.667 321.5 174.667 C 336.444 174.667 336.672 174.672 337 175 M 300.667 186.75 L 300.667 191.167 L 321.5 191.167 L 342.333 191.167 L 342.333 186.75 L 342.333 182.333 L 321.5 182.333 L 300.667 182.333 L 300.667 186.75 M 344.333 186.75 L 344.333 191.167 L 354.583 191.167 L 364.833 191.167 L 364.833 186.75 L 364.833 182.333 L 354.583 182.333 L 344.333 182.333 L 344.333 186.75 M 353.848 185.356 C 355.408 187.684 355.165 187.575 355.931 186.292 C 356.794 184.846 356.976 184.667 357.576 184.667 C 358.843 184.667 358.813 185.542 357.473 187.71 C 355.286 191.248 355.305 191.251 352.489 187.022 C 350.647 184.257 350.538 183.865 351.475 183.398 C 352.161 183.056 352.489 183.327 353.848 185.356 M 73.236 187.75 C 73.236 189.492 73.261 190.182 73.291 189.283 C 73.321 188.384 73.321 186.959 73.291 186.116 C 73.261 185.273 73.236 186.008 73.236 187.75 M 337.071 185.429 C 337.403 185.761 337.404 186.158 337.074 186.63 L 336.814 187 L 321.5 187 L 306.186 187 L 305.926 186.63 C 305.596 186.158 305.597 185.761 305.929 185.429 C 306.163 185.194 307.804 185.167 321.5 185.167 C 335.196 185.167 336.837 185.194 337.071 185.429 M 300.667 198.167 L 300.667 203 L 321.5 203 L 342.333 203 L 342.333 198.167 L 342.333 193.333 L 321.5 193.333 L 300.667 193.333 L 300.667 198.167 M 344.333 197.142 C 344.333 199.237 344.382 201.412 344.44 201.976 L 344.547 203 L 354.065 202.998 C 359.3 202.997 363.865 202.95 364.208 202.893 L 364.833 202.79 L 364.833 198.062 L 364.833 193.333 L 354.583 193.333 L 344.333 193.333 L 344.333 197.142 M 352.344 194.5 C 352.426 194.5 353.103 195.41 353.849 196.523 L 355.204 198.547 L 356.019 197.27 C 356.96 195.794 357.436 195.477 358.077 195.897 C 358.78 196.358 358.638 196.939 357.292 199.103 C 355.944 201.273 355.546 201.65 354.91 201.361 C 354.475 201.162 350.833 195.837 350.833 195.399 C 350.833 195.02 351.643 194.289 351.938 194.402 C 352.079 194.456 352.261 194.5 352.344 194.5 M 336.746 197.029 C 337.298 197.28 337.45 197.881 337.098 198.418 L 336.826 198.833 L 321.506 198.833 L 306.186 198.833 L 305.926 198.463 C 305.554 197.932 305.604 197.573 306.106 197.179 C 306.634 196.763 335.85 196.62 336.746 197.029 M 90.721 206.292 C 97.947 206.316 109.722 206.316 116.888 206.292 C 124.054 206.268 118.142 206.248 103.75 206.248 C 89.358 206.248 83.495 206.268 90.721 206.292" stroke-linecap="round" />
</g>
<g transform="matrix(3.27 0 0 3.27 337.26 542.22)"  >
<path style="stroke: none; stroke-width: 1; stroke-dasharray: none; stroke-linecap: butt; stroke-dashoffset: 0; stroke-linejoin: miter; stroke-miterlimit: 4; fill: rgb(42,50,84); fill-rule: evenodd; opacity: 1;" vector-effect="non-scaling-stroke"  transform=" translate(-173.54, -99.79)" d="M 140.398 58.936 C 136.828 60.202 136.656 65.277 140.131 66.766 C 141.596 67.393 143.279 67.291 145.275 66.452 C 149.706 64.592 148.331 64.673 175.363 64.67 L 198.309 64.667 L 198.51 63.771 C 198.997 61.593 197.552 59.351 195.333 58.846 C 194.019 58.546 141.251 58.633 140.398 58.936 M 202.5 134.652 C 202.5 135.306 205.157 141.341 205.253 140.905 C 205.677 138.978 206.683 138.038 208.525 137.847 L 209.466 137.75 L 206.467 136.333 C 202.67 134.539 202.5 134.467 202.5 134.652" stroke-linecap="round" />
</g>
<g transform="matrix(3.27 0 0 3.27 528.34 735.26)"  >
<path style="stroke: none; stroke-width: 1; stroke-dasharray: none; stroke-linecap: butt; stroke-dashoffset: 0; stroke-linejoin: miter; stroke-miterlimit: 4; fill: rgb(60,149,156); fill-rule: evenodd; opacity: 1;" vector-effect="non-scaling-stroke"  transform=" translate(-232.1, -158.67)" d="M 161.259 91.87 C 161.027 92.202 161 95.027 161 118.75 C 161 142.473 161.027 145.298 161.259 145.63 L 161.519 146 L 184.176 146 C 197.804 146 206.833 145.939 206.833 145.847 C 206.833 145.763 206.686 145.351 206.506 144.93 L 206.179 144.167 L 193.673 144.167 L 181.167 144.167 L 181.167 118.75 L 181.167 93.333 L 195.75 93.333 L 210.333 93.333 L 210.333 115.715 L 210.333 138.097 L 211.25 138.547 L 212.167 138.996 L 212.167 115.448 C 212.167 97.355 212.12 91.854 211.967 91.7 C 211.813 91.546 205.961 91.5 186.643 91.5 L 161.519 91.5 L 161.259 91.87 M 179.167 118.75 L 179.167 144.167 L 171.083 144.167 L 163 144.167 L 163 118.75 L 163 93.333 L 171.083 93.333 L 179.167 93.333 L 179.167 118.75 M 374.38 101.521 C 370.156 101.964 363.833 105.937 363.833 108.148 C 363.833 108.35 363.498 109.206 363.089 110.049 C 357.531 121.499 368.401 133.727 380.566 129.708 L 381.882 129.273 L 382.168 129.627 L 382.455 129.982 L 383.737 129.231 C 394.77 122.773 392.795 105.92 380.558 102.106 C 379.522 101.783 375.923 101.218 375.774 101.355 C 375.761 101.368 375.133 101.442 374.38 101.521 M 379.5 106.042 L 379.5 107.25 L 380.48 107.538 C 381.164 107.739 381.704 108.05 382.271 108.568 L 383.083 109.311 L 382.485 109.918 L 381.887 110.524 L 381.402 110.119 C 379.159 108.246 376.5 108.988 376.5 111.486 C 376.5 112.645 377.009 113.17 379.422 114.503 C 382.508 116.208 383.286 117.308 383.129 119.75 C 382.996 121.821 381.358 123.667 379.653 123.667 C 379.366 123.667 379.333 123.796 379.333 124.917 L 379.333 126.167 L 378.507 126.167 L 377.681 126.167 L 377.632 124.981 L 377.583 123.795 L 376.647 123.506 C 375.667 123.203 374.005 122.324 373.686 121.94 C 373.482 121.694 374.387 120.244 374.646 120.404 C 374.72 120.45 375.172 120.75 375.649 121.072 C 377.925 122.603 380.49 122.226 381.013 120.284 C 381.458 118.634 380.592 117.4 378 115.987 C 375.867 114.825 375.265 114.317 374.737 113.238 C 373.646 111.008 374.781 108.287 377.108 107.554 L 378 107.272 L 378 106.053 L 378 104.833 L 378.75 104.833 L 379.5 104.833 L 379.5 106.042 M 290.079 127.167 C 290.079 133.079 290.099 135.498 290.125 132.542 C 290.15 129.585 290.15 124.748 290.125 121.792 C 290.099 118.835 290.079 121.254 290.079 127.167 M 291.578 127.583 C 291.578 133.175 291.599 135.438 291.625 132.613 C 291.651 129.788 291.651 125.213 291.625 122.446 C 291.599 119.68 291.578 121.992 291.578 127.583 M 304.437 130.932 C 298.005 132.488 297.087 141.656 303.083 144.44 C 304.681 145.182 304.347 145.174 333.917 145.128 L 362.25 145.083 L 363.192 144.702 C 369.732 142.058 369.128 132.529 362.319 130.924 C 360.76 130.556 305.957 130.564 304.437 130.932 M 73.718 131.917 C 73.719 132.467 73.75 132.672 73.787 132.372 C 73.825 132.072 73.824 131.622 73.786 131.372 C 73.748 131.122 73.717 131.367 73.718 131.917 M 220.417 143.9 C 215.339 145.511 209.912 153.818 211.619 157.368 C 211.783 157.709 213.66 159.783 215.792 161.978 C 217.923 164.174 219.667 166.014 219.667 166.068 C 219.667 166.122 215.322 166.167 210.012 166.167 C 199.186 166.167 199.835 166.089 199.831 167.387 C 199.811 173.898 194.878 179.706 187.921 181.41 C 186.274 181.813 185.693 182.306 186.1 182.957 C 187.194 184.709 194.446 181.681 197.428 178.227 C 199.598 175.712 201.667 171.165 201.667 168.909 C 201.667 167.939 201.012 168 211.401 168 C 217.512 168 220.993 167.94 221.099 167.834 C 221.266 167.668 221.9 168.291 229.414 176.003 C 231.157 177.792 234.308 181.019 236.417 183.173 C 240.023 186.859 242.35 189.246 249.567 196.667 C 251.216 198.362 253.92 201.138 255.575 202.834 C 257.229 204.531 260.836 208.243 263.588 211.084 C 266.341 213.926 270.691 218.406 273.254 221.042 L 277.915 225.833 L 282.402 225.833 C 284.87 225.833 286.858 225.801 286.819 225.762 C 286.781 225.723 284.953 223.866 282.756 221.637 C 280.56 219.407 277.222 216.007 275.34 214.081 C 273.457 212.154 270.12 208.742 267.924 206.497 C 259.209 197.589 257.097 195.43 253.335 191.583 C 251.184 189.383 247.921 186.046 246.085 184.167 C 244.249 182.287 241.02 178.987 238.909 176.833 C 236.799 174.679 231.777 169.542 227.75 165.417 C 223.723 161.292 218.832 156.302 216.881 154.328 C 213.702 151.113 213.035 150.333 213.463 150.333 C 213.597 150.333 217.685 154.441 224.743 161.667 C 226.936 163.912 230.273 167.326 232.157 169.252 C 234.042 171.179 237.305 174.516 239.409 176.669 C 242.998 180.341 244.698 182.077 254.167 191.752 C 262.939 200.714 272.599 210.601 279.755 217.943 L 287.417 225.803 L 295.137 225.818 L 302.858 225.833 L 302.498 225.375 C 302.301 225.123 300.364 223.113 298.194 220.908 C 296.025 218.703 293.242 215.853 292.009 214.575 C 289.885 212.371 287.543 209.964 280.828 203.083 C 279.217 201.433 275.096 197.196 271.668 193.667 C 268.241 190.137 263.668 185.45 261.508 183.25 C 259.347 181.05 256.084 177.713 254.256 175.833 C 252.428 173.954 249.691 171.142 248.173 169.583 C 246.656 168.025 242.717 163.975 239.42 160.583 C 236.123 157.192 232.033 152.992 230.33 151.25 C 228.628 149.508 226.413 147.23 225.409 146.186 C 223.03 143.715 222.2 143.335 220.417 143.9 M 138.56 147.5 C 138.56 148.371 138.588 148.727 138.623 148.292 C 138.657 147.856 138.657 147.144 138.623 146.708 C 138.588 146.273 138.56 146.629 138.56 147.5 M 73.56 152.667 C 73.56 153.537 73.588 153.894 73.623 153.458 C 73.657 153.023 73.657 152.31 73.623 151.875 C 73.588 151.44 73.56 151.796 73.56 152.667 M 138.393 168.833 C 138.393 169.704 138.422 170.06 138.456 169.625 C 138.49 169.19 138.49 168.477 138.456 168.042 C 138.422 167.606 138.393 167.962 138.393 168.833 M 298.929 168.929 C 298.546 169.311 298.526 204.343 298.908 204.66 C 299.095 204.815 306.775 204.857 332.7 204.845 L 366.25 204.829 L 366.542 204.479 C 367.029 203.895 366.989 169.489 366.5 169 C 366.036 168.536 299.392 168.465 298.929 168.929 M 342.412 172.042 C 342.471 172.798 342.497 174.954 342.468 176.833 L 342.417 180.25 L 321.5 180.25 L 300.583 180.25 L 300.539 175.458 L 300.495 170.667 L 321.399 170.667 L 342.303 170.667 L 342.412 172.042 M 364.833 175.39 L 364.833 180.114 L 361.807 180.224 C 360.142 180.284 355.529 180.333 351.557 180.333 L 344.333 180.333 L 344.333 175.5 L 344.333 170.667 L 354.583 170.667 L 364.833 170.667 L 364.833 175.39 M 77.56 173.167 C 77.56 174.037 77.588 174.394 77.623 173.958 C 77.657 173.523 77.657 172.81 77.623 172.375 C 77.588 171.94 77.56 172.296 77.56 173.167 M 351.262 172.429 C 350.698 172.992 350.788 173.214 352.806 176.228 C 355.195 179.796 355.344 179.84 356.861 177.417 C 358.701 174.477 358.768 174.294 358.195 173.776 C 357.509 173.155 357.015 173.483 355.918 175.292 C 355.151 176.556 355.418 176.66 353.995 174.542 C 352.275 171.981 351.956 171.735 351.262 172.429 M 305.901 175.25 C 305.648 175.636 305.648 175.697 305.901 176.083 L 306.174 176.5 L 321.5 176.5 L 336.826 176.5 L 337.083 176.107 C 337.343 175.71 337.274 175.197 336.929 174.961 C 336.83 174.894 329.87 174.837 321.462 174.836 L 306.174 174.833 L 305.901 175.25 M 342.417 186.75 L 342.417 191.25 L 321.458 191.292 L 300.5 191.335 L 300.5 186.862 C 300.5 184.402 300.55 182.339 300.612 182.277 C 300.673 182.216 310.104 182.184 321.57 182.208 L 342.417 182.25 L 342.417 186.75 M 364.833 186.75 L 364.833 191.333 L 354.583 191.333 L 344.333 191.333 L 344.333 186.75 L 344.333 182.167 L 354.583 182.167 L 364.833 182.167 L 364.833 186.75 M 351.261 183.555 C 350.685 183.976 350.918 184.551 352.8 187.366 C 355.254 191.039 355.316 191.047 357.224 187.976 C 358.56 185.827 358.697 185.397 358.195 184.942 C 357.502 184.315 357.109 184.546 356.046 186.209 L 355.219 187.502 L 354.089 185.793 C 352.407 183.249 352.057 182.972 351.261 183.555 M 306.046 185.375 C 305.73 185.784 305.696 186.134 305.939 186.481 L 306.186 186.833 L 321.597 186.833 L 337.008 186.833 L 337.175 186.394 C 337.302 186.06 337.28 185.86 337.084 185.561 L 336.826 185.167 L 321.517 185.167 C 309.466 185.167 306.173 185.211 306.046 185.375 M 77.394 191.583 C 77.395 192.5 77.423 192.854 77.456 192.369 C 77.49 191.885 77.49 191.135 77.456 190.703 C 77.421 190.27 77.394 190.667 77.394 191.583 M 342.417 198.083 L 342.417 202.917 L 321.458 202.959 L 300.5 203.001 L 300.5 198.195 C 300.5 195.552 300.55 193.339 300.612 193.277 C 300.673 193.216 310.104 193.184 321.57 193.208 L 342.417 193.25 L 342.417 198.083 M 364.833 198.083 L 364.833 203 L 354.583 203 L 344.333 203 L 344.333 198.083 L 344.333 193.167 L 354.583 193.167 L 364.833 193.167 L 364.833 198.083 M 351.166 194.751 C 350.749 195.254 350.992 195.823 352.758 198.474 C 355.213 202.158 355.308 202.173 357.19 199.167 C 358.565 196.971 358.697 196.563 358.181 196.097 C 357.54 195.516 357 195.8 356.161 197.156 C 355.17 198.759 355.271 198.779 353.917 196.717 C 352.377 194.373 351.814 193.97 351.166 194.751 M 73.227 198.333 C 73.227 199.204 73.255 199.56 73.289 199.125 C 73.324 198.69 73.324 197.977 73.289 197.542 C 73.255 197.106 73.227 197.463 73.227 198.333 M 306.127 197.208 C 305.698 197.539 305.684 198.16 306.095 198.571 C 306.366 198.842 336.056 198.993 336.749 198.727 C 337.207 198.552 337.383 197.851 337.084 197.394 L 336.826 197 L 321.611 197 C 309.695 197 306.338 197.045 306.127 197.208" stroke-linecap="round" />
</g>
</svg>